<svg xmlns="http://www.w3.org/2000/svg" width="250" height="250" viewBox="0 0 250 250" fill="none"><circle cx="125" cy="125" r="124.5" fill="#D5D9FF" stroke="black"></circle><g clip-path="url(#clip0_301_697)"><path d="M178.48 193.212C178.389 193.227 178.285 193.246 178.163 193.269C178.143 193.273 178.124 193.277 178.101 193.281C177.983 193.3 177.856 193.323 177.711 193.346C177.68 193.35 177.645 193.357 177.611 193.361C177.473 193.384 177.324 193.407 177.163 193.434C177.117 193.442 177.071 193.449 177.021 193.457C176.86 193.484 176.688 193.511 176.504 193.541C176.454 193.549 176.404 193.557 176.355 193.564C176.163 193.595 175.96 193.625 175.746 193.656C175.688 193.664 175.631 193.671 175.573 193.683C175.355 193.714 175.125 193.748 174.888 193.783C174.823 193.79 174.757 193.802 174.688 193.809C174.447 193.844 174.198 193.878 173.938 193.917C173.857 193.928 173.781 193.94 173.7 193.947C173.436 193.982 173.16 194.02 172.873 194.058C172.785 194.07 172.704 194.081 172.616 194.093C172.321 194.131 172.015 194.169 171.701 194.208C171.613 194.219 171.525 194.231 171.433 194.242C171.096 194.284 170.743 194.326 170.383 194.369C170.307 194.376 170.234 194.388 170.153 194.395C169.766 194.441 169.36 194.487 168.947 194.533C168.885 194.541 168.828 194.549 168.767 194.552C167.801 194.66 166.775 194.771 165.672 194.878C165.607 194.886 165.538 194.89 165.469 194.897C164.998 194.943 164.519 194.989 164.021 195.035C163.776 195.058 163.519 195.081 163.266 195.104C162.937 195.135 162.611 195.165 162.274 195.192C161.96 195.219 161.631 195.246 161.305 195.273C161.014 195.296 160.731 195.322 160.432 195.345C160.057 195.376 159.67 195.407 159.287 195.437C159.03 195.456 158.773 195.476 158.509 195.499C158.072 195.533 157.628 195.564 157.176 195.594C156.954 195.61 156.732 195.625 156.506 195.64C156.008 195.675 155.498 195.709 154.985 195.744C154.797 195.755 154.61 195.767 154.418 195.782C153.859 195.816 153.288 195.851 152.71 195.885C152.561 195.893 152.407 195.905 152.258 195.912C151.63 195.951 150.99 195.985 150.339 196.019C150.239 196.023 150.136 196.031 150.036 196.035C149.328 196.073 148.608 196.108 147.872 196.142C147.838 196.142 147.799 196.146 147.765 196.146C141.349 196.445 133.941 196.644 125.507 196.644C125.438 196.644 125.373 196.644 125.304 196.644C89.245 196.644 71.6484 193.108 71.6484 193.108C71.6484 193.108 77.8229 199.421 125.304 199.421C172.773 199.421 178.955 193.108 178.959 193.108C178.959 193.108 178.802 193.139 178.503 193.193C178.507 193.208 178.492 193.208 178.48 193.212Z" fill="#F2E7CE"></path><path d="M126.874 145.444C127.138 145.444 127.395 145.39 127.644 145.287C127.655 145.283 127.667 145.275 127.678 145.268C127.831 145.199 127.985 145.111 128.13 145.003C129.62 143.942 130.693 141.058 130.693 137.649C130.693 133.34 128.988 129.847 126.878 129.847C125.736 129.847 124.713 130.885 124.013 132.516C123.426 133.888 123.066 135.68 123.066 137.649C123.066 139.534 123.392 141.261 123.936 142.609C124.633 144.341 125.69 145.444 126.874 145.444Z" fill="#6474BE"></path><path d="M123.239 156.142C123.047 155.752 122.84 155.399 122.618 155.093C121.948 154.166 121.14 153.622 120.266 153.622C117.937 153.622 116.057 157.475 116.057 162.221C116.057 166.978 117.937 170.828 120.266 170.828C121.136 170.828 121.944 170.288 122.618 169.357C122.84 169.047 123.051 168.694 123.239 168.308C124.001 166.749 124.468 164.6 124.468 162.221C124.468 159.85 123.997 157.698 123.239 156.142Z" fill="#6474BE"></path><path d="M111.92 142.955L112.36 148.627C112.36 148.627 117.96 147.999 119.627 142.87C120.067 141.514 120.236 139.848 119.952 137.788C119.259 132.804 116.325 131.475 113.601 131.379C112.694 131.349 111.809 131.452 111.035 131.605L111.92 142.955Z" fill="#6474BE"></path><path d="M180.629 121.646C167.166 82.5003 164.825 70.5879 164.825 70.5879L162.312 71.894C162.312 71.894 165.392 91.5935 174.631 117.353C175.405 119.517 176.129 121.692 176.803 123.872C176.956 124.366 177.105 124.856 177.251 125.35C177.665 126.737 178.059 128.123 178.431 129.514C182.548 144.935 184.073 160.551 182.579 175.114C182.483 176.045 182.376 176.968 182.253 177.891C182.081 179.216 181.882 180.53 181.656 181.836C180.989 185.697 180.101 189.466 178.971 193.117C178.978 193.113 196.15 166.783 180.629 121.646Z" fill="white"></path><path d="M153.982 71.8936H150.963H147.945H144.927H141.904H138.886H135.868H132.85H129.831H126.813H125.304H123.795H120.776H117.758H114.74H111.721H108.726H108.025H105.712H102.693H101.732C101.732 71.8936 100.744 74.4752 99.3379 78.9107H156.479C158.08 86.7821 161.585 101.774 168.02 119.727C176.531 143.46 178.411 167.116 173.436 186.907C166.384 187.895 150.362 189.642 125.315 189.642C121.359 189.642 117.628 189.6 114.127 189.523C119.03 192.618 124.833 195.039 131.674 196.617C137.607 196.548 142.973 196.383 147.78 196.157C147.815 196.157 147.853 196.154 147.887 196.154C148.623 196.119 149.343 196.085 150.052 196.046C150.151 196.043 150.255 196.035 150.354 196.031C151.005 195.997 151.645 195.962 152.273 195.924C152.426 195.916 152.576 195.905 152.725 195.897C153.304 195.863 153.874 195.828 154.434 195.794C154.625 195.782 154.813 195.771 155 195.755C155.514 195.721 156.023 195.686 156.521 195.652C156.747 195.637 156.969 195.621 157.191 195.606C157.64 195.575 158.088 195.541 158.524 195.51C158.789 195.491 159.041 195.472 159.302 195.449C159.689 195.418 160.076 195.388 160.447 195.357C160.742 195.334 161.029 195.307 161.32 195.284C161.646 195.257 161.972 195.231 162.29 195.204C162.627 195.173 162.952 195.146 163.282 195.116C163.534 195.093 163.791 195.07 164.036 195.047C164.53 195.001 165.013 194.955 165.484 194.909C165.549 194.901 165.622 194.897 165.687 194.89C166.786 194.779 167.821 194.671 168.782 194.564C168.843 194.556 168.901 194.549 168.962 194.545C169.376 194.499 169.782 194.453 170.169 194.407C170.245 194.399 170.322 194.388 170.398 194.38C170.758 194.338 171.111 194.296 171.448 194.254C171.54 194.242 171.624 194.231 171.716 194.219C172.03 194.181 172.337 194.143 172.631 194.104C172.72 194.093 172.804 194.081 172.888 194.07C173.172 194.032 173.451 193.997 173.715 193.959C173.796 193.947 173.873 193.936 173.953 193.928C174.213 193.894 174.466 193.855 174.704 193.821C174.773 193.809 174.838 193.802 174.903 193.794C175.14 193.76 175.37 193.725 175.589 193.695C175.646 193.687 175.703 193.679 175.761 193.668C175.975 193.637 176.178 193.606 176.37 193.576C176.42 193.568 176.473 193.561 176.519 193.553C176.703 193.522 176.875 193.495 177.036 193.469C177.082 193.461 177.132 193.453 177.178 193.446C177.339 193.419 177.488 193.396 177.626 193.373C177.657 193.369 177.695 193.361 177.726 193.358C177.868 193.335 177.998 193.312 178.117 193.292C178.136 193.289 178.159 193.285 178.178 193.281C178.297 193.262 178.4 193.243 178.496 193.223C178.507 193.22 178.523 193.22 178.534 193.216C178.837 193.162 178.99 193.132 178.99 193.132C180.12 189.481 181.012 185.708 181.675 181.851C181.901 180.545 182.1 179.231 182.272 177.906C182.391 176.987 182.502 176.06 182.598 175.129C184.092 160.566 182.567 144.946 178.45 129.529C178.078 128.138 177.68 126.752 177.27 125.365C177.124 124.871 176.975 124.381 176.822 123.887C176.148 121.707 175.428 119.532 174.65 117.367C165.411 91.6083 162.332 71.9089 162.332 71.9089H157.019H153.982V71.8936Z" fill="#FFF8E6"></path><path d="M114.127 189.52C117.628 189.596 121.359 189.639 125.316 189.639C150.362 189.639 166.385 187.892 173.436 186.904C178.412 167.112 176.531 143.456 168.02 119.723C161.585 101.771 158.081 86.7786 156.479 78.9072H99.3423C92.5013 100.403 75.7895 165.358 114.127 189.52ZM166.971 125.408C177.987 158.705 170.376 184.728 170.376 184.728C165.121 185.452 162.949 185.329 162.949 185.329C162.949 185.329 167.833 152.909 162.957 131C156.652 102.667 155.196 89.3755 155.196 89.3755C155.196 89.3755 157.077 95.5118 166.971 125.408Z" fill="#6474BE"></path><path d="M164.821 70.5876L168.043 50.1719H165.783L162.309 71.8937L164.821 70.5876Z" fill="white"></path><path d="M120.791 70.2927V71.8937H123.81V70.2927L123.683 51.8764V50.1719H120.408V51.8764L120.791 70.2927Z" fill="#FFF8E6"></path><path d="M93.6421 70.2927V71.8937H96.6604V70.2927L94.2243 51.8764V50.1719H90.957V51.8764L93.6421 70.2927Z" fill="#F2E7CE"></path><path d="M132.861 70.2927V71.8937H135.876V70.2927L136.776 51.8764V50.1719H133.497V51.8764L132.861 70.2927Z" fill="#FFF8E6"></path><path d="M129.844 70.2927V71.8937H132.862V70.2927L133.498 51.8764V50.1719H130.231V51.8764L129.844 70.2927Z" fill="#FFF8E6"></path><path d="M126.828 70.2927V71.8937H129.843V70.2927L130.229 51.8764V50.1719H126.955V51.8764L126.828 70.2927Z" fill="#FFF8E6"></path><path d="M102.694 70.2927V71.8937H105.713V70.2927L105.157 64.1565L104.05 51.8764V50.1719H100.771V51.8764L102.694 70.2927Z" fill="#F2E7CE"></path><path d="M157 70.2927V71.8937H162.309L165.783 50.1719H159.685V51.8764L157 70.2927Z" fill="#FFF8E6"></path><path d="M153.982 70.2927V71.8937H157.001V70.2927L159.686 51.8764V50.1719H156.411V51.8764L153.982 70.2927Z" fill="#FFF8E6"></path><path d="M150.967 70.2927V71.8937H153.981V70.2927L156.41 51.8764V50.1719H153.142V51.8764L150.967 70.2927Z" fill="#FFF8E6"></path><path d="M141.908 70.2927V71.8937H144.934V70.2927L146.597 51.8764V50.1719H143.318V51.8764L141.908 70.2927Z" fill="#FFF8E6"></path><path d="M138.895 70.2927V71.8937H141.909V70.2927L143.319 51.8764V50.1719H140.044V51.8764L138.895 70.2927Z" fill="#FFF8E6"></path><path d="M108.725 71.8937V70.2927L107.668 56.4804L107.316 51.8764V50.1719H106.389L108.024 71.8937H108.725Z" fill="#FFF8E6"></path><path d="M111.745 70.2927V71.8937H114.759V70.2927L113.863 51.8764V50.1719H110.592V51.8764L111.745 70.2927Z" fill="#FFF8E6"></path><path d="M108.726 71.8937H111.744V70.2927L110.591 51.8764V50.1719H107.316V51.8764L107.669 56.4804L108.726 70.2927V71.8937Z" fill="#FFF8E6"></path><path d="M135.875 70.2927V71.8937H138.893V70.2927L140.042 51.8764V50.1719H136.775V51.8764L135.875 70.2927Z" fill="#FFF8E6"></path><path d="M123.81 70.2927V71.8937H125.319H126.828V70.2927L126.955 51.8764V50.1719H125.319H123.684V51.8764L123.81 70.2927Z" fill="#FFF8E6"></path><path d="M96.6607 70.2927V71.8937H99.6752V70.2927L97.5034 51.8764V50.1719H94.2246V51.8764L96.6607 70.2927Z" fill="#F2E7CE"></path><path d="M88.3258 71.8937H93.6424V70.2927L90.9573 51.8764V50.1719H84.8594L88.3258 71.8937Z" fill="#F2E7CE"></path><path d="M99.6757 70.2927V71.8937H101.733H102.694V70.2927L100.771 51.8764V50.1719H97.5039V51.8764L99.6757 70.2927Z" fill="#F2E7CE"></path><path d="M144.936 70.2927V71.8937H147.95V70.2927L149.865 51.8764V50.1719H146.598V51.8764L144.936 70.2927Z" fill="#FFF8E6"></path><path d="M117.778 70.2927V71.8937H120.793V70.2927L120.41 51.8764V50.1719H117.139V51.8764L117.778 70.2927Z" fill="#FFF8E6"></path><path d="M114.76 70.2927V71.8937H117.778V70.2927L117.138 51.8764V50.1719H113.863V51.8764L114.76 70.2927Z" fill="#FFF8E6"></path><path d="M147.949 70.2927V71.8937H150.968V70.2927L153.143 51.8764V50.1719H149.864V51.8764L147.949 70.2927Z" fill="#FFF8E6"></path><path d="M105.711 71.8937H108.025L106.389 50.1719H104.049V51.8764L105.156 64.1565L105.711 70.2927V71.8937Z" fill="#F2E7CE"></path><path d="M114.127 189.519C95.3622 189.113 83.1204 187.746 77.2064 186.911C72.2269 167.12 74.1038 143.456 82.6148 119.723C89.0536 101.77 92.5546 86.7782 94.1557 78.9068H99.3419C100.744 74.4713 101.736 71.8896 101.736 71.8896H99.679H96.6607H93.6424H88.3259C88.3259 71.8896 87.736 75.6587 86.2996 82.0592C86.0928 82.9747 85.8706 83.9399 85.6331 84.9588C85.2731 86.4871 84.8709 88.1265 84.4266 89.8693C84.1317 91.0299 83.8137 92.2364 83.4805 93.4851C81.6343 100.353 79.1905 108.492 76.0152 117.348C68.5077 138.285 65.6809 160.213 68.6609 179.894C69.0324 182.345 69.4997 184.762 70.0513 187.137C70.5224 189.159 71.0549 191.159 71.6639 193.12C71.6639 193.12 89.2605 196.655 125.319 196.655C125.388 196.655 125.453 196.655 125.522 196.655C127.637 196.655 129.69 196.64 131.674 196.613C124.833 195.035 119.034 192.614 114.127 189.519Z" fill="#F2E7CE"></path><path d="M82.6148 119.723C74.1077 143.456 72.227 167.12 77.2064 186.911C83.1204 187.746 95.3622 189.114 114.127 189.52C75.7892 165.358 92.501 100.403 99.3419 78.9072H94.1557C92.5546 86.7786 89.0575 101.771 82.6148 119.723Z" fill="#4D5F9E"></path><path d="M162.948 185.325C162.948 185.325 165.12 185.448 170.375 184.724C170.375 184.724 177.986 158.704 166.97 125.403C157.076 95.5073 155.195 89.3711 155.195 89.3711C155.195 89.3711 156.651 102.662 162.956 130.995C167.832 152.905 162.948 185.325 162.948 185.325Z" fill="#899BDB"></path><path d="M71.6641 193.12C71.6641 193.12 77.8386 199.433 125.319 199.433" stroke="#000707" stroke-width="0.738107" stroke-miterlimit="10" stroke-linecap="round" stroke-linejoin="round"></path><path d="M71.6638 193.12C71.6638 193.12 54.4847 166.791 70.0091 121.646C83.4727 82.5 85.8207 70.5915 85.8207 70.5915L88.3296 71.8938L84.8593 50.1758H125.323" stroke="#000707" stroke-width="0.738107" stroke-miterlimit="10" stroke-linecap="round" stroke-linejoin="round"></path><path d="M125.319 71.8936H162.312C162.312 71.8936 165.392 91.593 174.627 117.352C183.862 143.111 186.01 170.387 178.974 193.12C178.974 193.12 161.381 196.655 125.319 196.655C89.256 196.655 71.6633 193.12 71.6633 193.12C64.6269 170.391 66.7757 143.115 76.0107 117.352C85.2457 91.593 88.3252 71.8936 88.3252 71.8936H125.319Z" stroke="#000707" stroke-width="0.738107" stroke-miterlimit="10" stroke-linecap="round" stroke-linejoin="round"></path><path d="M125.319 189.639C100.158 189.639 84.2236 187.896 77.2064 186.908C72.227 167.12 74.1077 143.456 82.6148 119.72C89.0498 101.767 92.5546 86.7786 94.1557 78.9072H156.479C158.08 86.7786 161.585 101.767 168.02 119.72C176.531 143.456 178.408 167.116 173.432 186.9C166.384 187.892 150.366 189.639 125.319 189.639Z" stroke="#000707" stroke-width="0.246023" stroke-miterlimit="10" stroke-linecap="round" stroke-linejoin="round"></path><path d="M178.974 193.12C178.974 193.12 172.799 199.433 125.318 199.433" stroke="#000707" stroke-width="0.738107" stroke-miterlimit="10" stroke-linecap="round" stroke-linejoin="round"></path><path d="M178.974 193.12C178.974 193.12 196.153 166.791 180.628 121.646C167.169 82.5 164.817 70.5915 164.817 70.5915L162.308 71.8938L165.778 50.1758H125.318" stroke="#000707" stroke-width="0.738107" stroke-miterlimit="10" stroke-linecap="round" stroke-linejoin="round"></path><path d="M164.818 70.5914L168.047 50.1719H165.784" stroke="#000707" stroke-width="0.738107" stroke-miterlimit="10" stroke-linecap="round" stroke-linejoin="round"></path><path d="M90.6233 70.2923L87.6816 51.876" stroke="#000707" stroke-width="0.246023" stroke-miterlimit="10" stroke-linecap="round" stroke-linejoin="round"></path><path d="M93.642 70.2923L90.9531 51.876" stroke="#000707" stroke-width="0.246023" stroke-miterlimit="10" stroke-linecap="round" stroke-linejoin="round"></path><path d="M96.657 70.2923L94.2285 51.876" stroke="#000707" stroke-width="0.246023" stroke-miterlimit="10" stroke-linecap="round" stroke-linejoin="round"></path><path d="M99.6756 70.2923L97.5 51.876" stroke="#000707" stroke-width="0.246023" stroke-miterlimit="10" stroke-linecap="round" stroke-linejoin="round"></path><path d="M102.692 70.2923L100.773 51.876" stroke="#000707" stroke-width="0.246023" stroke-miterlimit="10" stroke-linecap="round" stroke-linejoin="round"></path><path d="M105.707 70.2923L104.045 51.876" stroke="#000707" stroke-width="0.246023" stroke-miterlimit="10" stroke-linecap="round" stroke-linejoin="round"></path><path d="M108.726 70.2923L107.32 51.876" stroke="#000707" stroke-width="0.246023" stroke-miterlimit="10" stroke-linecap="round" stroke-linejoin="round"></path><path d="M111.745 70.2923L110.592 51.876" stroke="#000707" stroke-width="0.246023" stroke-miterlimit="10" stroke-linecap="round" stroke-linejoin="round"></path><path d="M114.758 70.2923L113.861 51.876" stroke="#000707" stroke-width="0.246023" stroke-miterlimit="10" stroke-linecap="round" stroke-linejoin="round"></path><path d="M117.776 70.2923L117.137 51.876" stroke="#000707" stroke-width="0.246023" stroke-miterlimit="10" stroke-linecap="round" stroke-linejoin="round"></path><path d="M120.795 70.2923L120.408 51.876" stroke="#000707" stroke-width="0.246023" stroke-miterlimit="10" stroke-linecap="round" stroke-linejoin="round"></path><path d="M123.81 70.2923L123.684 51.876" stroke="#000707" stroke-width="0.246023" stroke-miterlimit="10" stroke-linecap="round" stroke-linejoin="round"></path><path d="M126.828 70.2923L126.955 51.876" stroke="#000707" stroke-width="0.246023" stroke-miterlimit="10" stroke-linecap="round" stroke-linejoin="round"></path><path d="M129.846 70.2923L130.229 51.876" stroke="#000707" stroke-width="0.246023" stroke-miterlimit="10" stroke-linecap="round" stroke-linejoin="round"></path><path d="M132.859 70.2923L133.499 51.876" stroke="#000707" stroke-width="0.246023" stroke-miterlimit="10" stroke-linecap="round" stroke-linejoin="round"></path><path d="M135.879 70.2923L136.775 51.876" stroke="#000707" stroke-width="0.246023" stroke-miterlimit="10" stroke-linecap="round" stroke-linejoin="round"></path><path d="M138.898 70.2923L140.048 51.876" stroke="#000707" stroke-width="0.246023" stroke-miterlimit="10" stroke-linecap="round" stroke-linejoin="round"></path><path d="M141.912 70.2923L143.318 51.876" stroke="#000707" stroke-width="0.246023" stroke-miterlimit="10" stroke-linecap="round" stroke-linejoin="round"></path><path d="M144.93 70.2923L146.592 51.876" stroke="#000707" stroke-width="0.246023" stroke-miterlimit="10" stroke-linecap="round" stroke-linejoin="round"></path><path d="M147.947 70.2923L149.862 51.876" stroke="#000707" stroke-width="0.246023" stroke-miterlimit="10" stroke-linecap="round" stroke-linejoin="round"></path><path d="M150.963 70.2923L153.139 51.876" stroke="#000707" stroke-width="0.246023" stroke-miterlimit="10" stroke-linecap="round" stroke-linejoin="round"></path><path d="M153.98 70.2923L156.409 51.876" stroke="#000707" stroke-width="0.246023" stroke-miterlimit="10" stroke-linecap="round" stroke-linejoin="round"></path><path d="M156.996 70.2923L159.685 51.876" stroke="#000707" stroke-width="0.246023" stroke-miterlimit="10" stroke-linecap="round" stroke-linejoin="round"></path><path d="M160.014 70.2923L162.955 51.876" stroke="#000707" stroke-width="0.246023" stroke-miterlimit="10" stroke-linecap="round" stroke-linejoin="round"></path><path d="M96.8643 153.664C97.5653 153.622 98.1322 153.599 98.5689 153.599C99.0055 153.599 99.3043 153.622 99.4613 153.668C99.6184 153.714 99.7639 153.779 99.8865 153.856C100.151 154.028 100.281 154.243 100.281 154.507C100.281 154.771 100.235 155.009 100.147 155.227C100.059 155.446 99.9401 155.641 99.7869 155.817C99.6375 155.993 99.4651 156.146 99.2698 156.277C99.0783 156.411 98.8791 156.518 98.6761 156.602C98.2586 156.775 97.91 156.859 97.6342 156.859C97.3585 156.859 97.1401 156.84 96.9793 156.798C96.8184 156.759 96.6767 156.69 96.5541 156.591C96.3089 156.399 96.1289 156.062 96.0178 155.576L94.57 158.801L95.834 159.115C97.3087 159.498 98.4041 159.931 99.1242 160.425C99.3962 160.62 99.6107 160.885 99.7754 161.218C99.9363 161.551 100.021 161.854 100.021 162.129C100.021 162.627 99.9095 163.022 99.6873 163.309C99.4652 163.596 99.174 163.861 98.8102 164.102C98.4463 164.343 98.0364 164.562 97.5768 164.757C97.1172 164.952 96.6154 165.129 96.0791 165.286C95.5429 165.443 94.9951 165.581 94.4359 165.703C93.3749 165.925 92.2718 166.09 91.1265 166.201L90.6937 167.086C90.5788 167.308 90.4907 167.457 90.4294 167.534C90.3719 167.611 90.28 167.68 90.1574 167.741C90.0348 167.802 89.9123 167.848 89.7897 167.879C89.5369 167.948 89.3454 167.963 89.2075 167.932C89.0045 167.883 88.9049 167.752 88.9049 167.534C88.9049 167.434 88.9202 167.35 88.9509 167.277L89.3645 166.32C89.2841 166.328 89.2075 166.328 89.1347 166.328H88.9241C87.1544 166.328 85.7525 166.109 84.7145 165.673C84.3583 165.431 84.0595 164.792 83.822 163.746C83.6918 163.225 83.6229 162.83 83.6152 162.566C83.6075 162.302 83.6229 162.149 83.6612 162.106C83.6995 162.064 83.8067 162.064 83.9791 162.106C84.1514 162.149 84.3736 162.221 84.6532 162.329L85.6683 162.708C87.2732 163.29 88.8972 163.589 90.5443 163.6L91.4751 161.436L88.9853 160.904C88.1388 160.712 87.3345 160.505 86.5722 160.287C85.7602 160.015 85.2469 159.456 85.0324 158.609C84.9711 158.372 84.9405 158.123 84.9405 157.862C84.9405 157.265 85.1014 156.855 85.4193 156.629C87.4953 155.216 90.5902 154.285 94.7079 153.837L95.0947 152.944C95.2058 152.688 95.2786 152.508 95.3131 152.412C95.3475 152.312 95.4203 152.224 95.539 152.14C95.654 152.056 95.7957 151.983 95.9527 151.922C96.286 151.78 96.5771 151.711 96.8337 151.711C97.0903 151.711 97.2704 151.742 97.3814 151.799C97.4925 151.856 97.5347 151.941 97.5117 152.048C97.4887 152.155 97.4159 152.347 97.301 152.623L96.8643 153.664ZM90.9924 157.066C90.8124 157.227 90.7281 157.365 90.7281 157.479C90.732 157.594 90.7818 157.69 90.8852 157.767C90.9886 157.843 91.1265 157.912 91.3027 157.989C91.6168 158.104 92.1032 158.242 92.7697 158.395L93.2868 157.177C93.3366 157.016 93.4132 156.813 93.5166 156.568L93.8499 155.775C92.4978 156.139 91.544 156.568 90.9924 157.066ZM92.3943 163.551C94.0529 163.459 95.2096 163.282 95.8608 163.026C96.0944 162.934 96.2132 162.83 96.2132 162.712C96.2132 162.593 96.0025 162.478 95.585 162.355C95.1675 162.237 94.773 162.137 94.4053 162.057L93.2064 161.789L92.3943 163.551Z" fill="#FFFAF9" stroke="#000405" stroke-width="0.383034" stroke-miterlimit="10"></path><path d="M106.684 161.597C106.684 162.624 107.707 163.137 109.753 163.137C111.135 163.137 112.87 162.616 114.958 161.571L115.896 161.073C117.321 160.349 118.126 160.192 118.31 160.602C118.359 160.713 118.382 160.839 118.382 160.985C118.382 161.13 118.321 161.276 118.202 161.425C118.084 161.574 117.923 161.743 117.72 161.923C117.517 162.103 117.279 162.295 117.011 162.494C116.739 162.693 116.456 162.892 116.153 163.087L115.249 163.65C114.943 163.834 114.609 164.014 114.253 164.194L112.909 164.857C110.802 165.841 108.814 166.332 106.945 166.332C105.309 166.332 104.053 166.01 103.176 165.363C102.391 164.792 101.996 164.053 101.996 163.153C101.996 161.904 102.559 160.647 103.681 159.383C104.651 158.296 105.983 157.265 107.673 156.289C109.147 155.434 110.722 154.733 112.392 154.186C113.97 153.665 115.253 153.404 116.233 153.404C116.44 153.404 116.617 153.473 116.758 153.607C117.015 153.849 117.145 154.082 117.145 154.316C117.145 155.224 116.766 155.959 116.011 156.518C115.368 156.993 114.613 157.227 113.755 157.227C112.897 157.227 112.25 157.143 111.821 156.97C110.216 157.591 108.914 158.422 107.914 159.468C107.496 159.904 107.186 160.314 106.983 160.693C106.78 161.073 106.684 161.379 106.684 161.597Z" fill="#FFFAF9" stroke="#000405" stroke-width="0.383034" stroke-miterlimit="10"></path><path d="M132.838 159.008C133.034 159.008 133.133 159.172 133.133 159.506C133.133 160.076 132.735 160.815 131.935 161.727L131.41 162.263C129.82 163.853 128.319 164.914 126.913 165.443C126.04 165.768 125.415 165.753 125.032 165.397C124.718 165.094 124.469 164.611 124.285 163.941L124.063 163.141L122.102 164.347L120.968 164.991C119.616 165.726 118.605 166.098 117.927 166.098C117.061 166.098 116.337 165.764 115.763 165.094C115.211 164.462 114.932 163.727 114.932 162.892C114.932 162.068 115.261 161.333 115.916 160.689C116.854 159.766 118.341 158.923 120.367 158.153C122.282 157.433 123.833 157.073 125.009 157.073C125.408 157.073 125.607 157.269 125.607 157.663C125.607 157.935 125.553 158.138 125.45 158.272C125.346 158.406 125.132 158.544 124.806 158.686L123.646 159.184C121.926 159.904 120.666 160.651 119.869 161.425C119.643 161.639 119.528 161.85 119.528 162.053C119.528 162.256 119.689 162.355 120.018 162.355C120.336 162.355 121.079 162.011 122.248 161.325L123.014 160.873C124.197 160.161 125.193 159.804 125.99 159.804C126.664 159.804 127.112 160.103 127.334 160.697C127.388 160.858 127.442 161.018 127.491 161.179C127.541 161.344 127.591 161.49 127.641 161.616C127.752 161.919 127.851 162.068 127.939 162.068C128.028 162.068 128.158 162.022 128.323 161.934C128.487 161.846 128.671 161.731 128.87 161.593C129.069 161.455 129.276 161.302 129.491 161.137L130.605 160.245C131.597 159.421 132.341 159.008 132.838 159.008Z" fill="#FFFAF9" stroke="#000405" stroke-width="0.383034" stroke-miterlimit="10"></path><path d="M148.421 160.881C148.421 161.784 148.704 162.236 149.267 162.236C149.662 162.236 150.34 161.892 151.305 161.206C152.178 160.563 152.696 160.157 152.864 159.988C153.243 159.67 153.646 159.509 154.063 159.509C154.243 159.509 154.392 159.571 154.519 159.689C154.645 159.808 154.707 159.988 154.707 160.229C154.707 160.467 154.649 160.685 154.53 160.884C154.415 161.08 154.266 161.283 154.082 161.493C153.902 161.7 153.676 161.934 153.408 162.194C153.14 162.451 152.833 162.723 152.493 163.01C152.152 163.297 151.772 163.581 151.363 163.864C150.953 164.148 150.531 164.401 150.095 164.63C149.11 165.136 148.226 165.385 147.433 165.385C146.525 165.385 145.904 164.975 145.583 164.152C145.391 163.677 145.295 163.11 145.295 162.447L142.614 164.263C140.776 165.554 139.684 166.239 139.335 166.32C139.155 166.362 138.979 166.385 138.795 166.385C138.615 166.385 138.443 166.369 138.282 166.335C138.121 166.3 137.979 166.243 137.857 166.163C137.573 165.998 137.432 165.753 137.432 165.427C137.432 165.297 137.516 164.987 137.688 164.489L138.481 162.313C138.726 161.612 138.849 161.191 138.849 161.049C138.849 160.999 138.818 160.976 138.757 160.976C138.696 160.976 138.581 161.041 138.416 161.172C138.251 161.302 138.048 161.467 137.819 161.67L135.624 163.585L134.471 164.542C133.291 165.481 132.33 165.952 131.587 165.952C131.238 165.952 130.882 165.795 130.526 165.481C130.139 165.148 129.943 164.749 129.943 164.282C129.943 163.815 129.989 163.305 130.077 162.754C130.166 162.202 130.296 161.67 130.46 161.156C130.625 160.643 130.832 160.16 131.077 159.708C131.322 159.256 131.602 158.866 131.916 158.533C132.59 157.809 133.387 157.445 134.306 157.445C135.225 157.445 135.685 157.717 135.685 158.257C135.685 158.49 135.559 158.847 135.306 159.325C134.77 160.383 134.505 160.953 134.505 161.034C134.505 161.118 134.532 161.179 134.586 161.225C134.639 161.271 134.693 161.294 134.754 161.294C134.884 161.294 135.068 161.191 135.306 160.98C136.884 159.597 137.88 158.739 138.286 158.41C138.692 158.081 139.09 157.786 139.469 157.533C140.343 156.962 141.036 156.675 141.553 156.675C141.978 156.675 142.319 156.744 142.583 156.878C143.043 157.119 143.273 157.387 143.273 157.69C143.273 157.992 143.231 158.333 143.15 158.713C143.07 159.092 142.978 159.463 142.878 159.82L142.603 160.758C142.518 161.03 142.472 161.237 142.472 161.378C142.472 161.52 142.534 161.597 142.656 161.597C142.951 161.597 143.537 161.179 144.414 160.344L145.307 159.505C146.333 158.582 147.111 158.123 147.64 158.123C147.892 158.123 148.115 158.222 148.314 158.418C148.658 158.762 148.831 159.061 148.831 159.322C148.831 159.463 148.781 159.655 148.685 159.892C148.513 160.333 148.421 160.666 148.421 160.881Z" fill="#FFFAF9" stroke="#000405" stroke-width="0.383034" stroke-miterlimit="10"></path><path d="M165.601 159.157C165.896 159.157 166.045 159.322 166.045 159.655C166.045 159.877 165.968 160.153 165.819 160.49C165.67 160.823 165.451 161.137 165.168 161.429C164.884 161.72 164.563 162.022 164.195 162.336C163.827 162.65 163.402 162.98 162.916 163.321C162.425 163.665 161.889 164.006 161.299 164.343C160.709 164.68 160.081 164.987 159.418 165.255C157.951 165.856 156.527 166.159 155.151 166.159C154.102 166.159 153.183 165.887 152.397 165.339C151.574 164.769 151.164 164.075 151.164 163.256C151.164 161.972 151.854 160.751 153.236 159.598C154.428 158.602 155.833 157.832 157.45 157.284C158.434 156.951 159.265 156.786 159.947 156.786C160.499 156.786 160.966 156.92 161.349 157.192C161.755 157.487 161.958 157.882 161.958 158.38C161.958 159.161 161.341 160.023 160.108 160.969C159.913 161.122 159.733 161.252 159.572 161.356L159.238 161.578C158.626 162.007 157.691 162.49 156.438 163.026C156.825 163.229 157.185 163.328 157.522 163.328C157.86 163.328 158.158 163.29 158.426 163.21C158.695 163.129 158.997 163.018 159.334 162.869C159.671 162.719 160.031 162.543 160.418 162.34C160.801 162.133 161.192 161.907 161.583 161.662C162.46 161.114 163.222 160.555 163.869 159.984C164.206 159.67 164.635 159.421 165.16 159.238C165.321 159.184 165.47 159.157 165.601 159.157ZM155.435 161.746L155.94 161.49C156.105 161.406 156.255 161.325 156.381 161.248C157.622 160.536 158.327 160.096 158.499 159.931C158.672 159.766 158.756 159.651 158.756 159.586C158.756 159.521 158.737 159.448 158.702 159.36C158.664 159.276 158.614 159.199 158.553 159.13C158.407 158.958 158.25 158.874 158.082 158.874C157.913 158.874 157.733 158.904 157.534 158.966C157.335 159.027 157.132 159.111 156.929 159.218C156.726 159.326 156.53 159.456 156.343 159.605C156.155 159.755 155.99 159.916 155.849 160.088C155.523 160.475 155.362 160.808 155.362 161.091C155.37 161.375 155.393 161.593 155.435 161.746Z" fill="#FFFAF9" stroke="#000405" stroke-width="0.383034" stroke-miterlimit="10"></path><path d="M124.389 147.823C110.638 147.823 99.4922 136.676 99.4922 122.926C99.4922 109.175 110.638 98.0283 124.389 98.0283C138.14 98.0283 149.287 109.175 149.287 122.926C149.287 136.676 138.14 147.823 124.389 147.823Z" fill="white"></path><mask id="mask0_301_697" style="mask-type:luminance" maskUnits="userSpaceOnUse" x="99" y="98" width="51" height="50"><path d="M124.389 147.822C110.638 147.822 99.4922 136.675 99.4922 122.925C99.4922 109.174 110.638 98.0273 124.389 98.0273C138.14 98.0273 149.287 109.174 149.287 122.925C149.287 136.675 138.14 147.822 124.389 147.822Z" fill="white"></path></mask><g mask="url(#mask0_301_697)"><path d="M113.158 136.247C113.158 136.247 111.07 138.239 110.821 138.488C110.572 138.737 110.572 138.986 110.572 139.235C110.572 139.484 110.572 139.982 110.821 140.231C111.07 140.48 111.319 140.231 111.319 140.231C111.319 140.231 111.07 140.978 112.066 140.978C113.062 140.978 115.303 139.733 115.303 139.733C115.303 139.733 115.249 136.496 113.158 136.247Z" fill="#FEFEFE" stroke="black" stroke-width="0.124486" stroke-miterlimit="10"></path><path d="M111.319 139.234C111.319 139.234 110.852 139.483 110.588 139.606" stroke="black" stroke-width="0.124486" stroke-miterlimit="10" stroke-linecap="round"></path><path d="M111.759 139.606L111.318 140.231" stroke="black" stroke-width="0.124486" stroke-miterlimit="10" stroke-linecap="round"></path></g><mask id="mask1_301_697" style="mask-type:luminance" maskUnits="userSpaceOnUse" x="99" y="98" width="51" height="50"><path d="M124.389 147.822C110.638 147.822 99.4922 136.675 99.4922 122.925C99.4922 109.174 110.638 98.0273 124.389 98.0273C138.14 98.0273 149.287 109.174 149.287 122.925C149.287 136.675 138.14 147.822 124.389 147.822Z" fill="white"></path></mask><g mask="url(#mask1_301_697)"><path d="M114.805 136.76L112.813 136.496L110.979 138.335C110.979 138.335 111.71 140.139 114.502 137.818" fill="#6D6D6D"></path></g><mask id="mask2_301_697" style="mask-type:luminance" maskUnits="userSpaceOnUse" x="99" y="98" width="51" height="50"><path d="M124.389 147.822C110.638 147.822 99.4922 136.675 99.4922 122.925C99.4922 109.174 110.638 98.0273 124.389 98.0273C138.14 98.0273 149.287 109.174 149.287 122.925C149.287 136.675 138.14 147.822 124.389 147.822Z" fill="white"></path></mask><g mask="url(#mask2_301_697)"><path d="M112.289 137.14L113.04 137.848C113.04 137.848 113.538 138.013 113.603 137.496C113.668 136.979 112.852 136.6 112.852 136.6" fill="black"></path></g><mask id="mask3_301_697" style="mask-type:luminance" maskUnits="userSpaceOnUse" x="99" y="98" width="51" height="50"><path d="M124.389 147.822C110.638 147.822 99.4922 136.675 99.4922 122.925C99.4922 109.174 110.638 98.0273 124.389 98.0273C138.14 98.0273 149.287 109.174 149.287 122.925C149.287 136.675 138.14 147.822 124.389 147.822Z" fill="white"></path></mask><g mask="url(#mask3_301_697)"><path d="M113.158 136.254C113.158 136.254 111.07 138.246 110.821 138.495C110.572 138.744 110.572 138.993 110.572 139.242C110.572 139.491 110.572 139.988 110.821 140.237C111.07 140.486 111.319 140.237 111.319 140.237C111.319 140.237 111.07 140.984 112.066 140.984C113.062 140.984 115.303 139.74 115.303 139.74C115.303 139.74 115.245 136.503 113.158 136.254Z" stroke="black" stroke-width="0.124486" stroke-miterlimit="10"></path></g><mask id="mask4_301_697" style="mask-type:luminance" maskUnits="userSpaceOnUse" x="99" y="98" width="51" height="50"><path d="M124.389 147.822C110.638 147.822 99.4922 136.675 99.4922 122.925C99.4922 109.174 110.638 98.0273 124.389 98.0273C138.14 98.0273 149.287 109.174 149.287 122.925C149.287 136.675 138.14 147.822 124.389 147.822Z" fill="white"></path></mask><g mask="url(#mask4_301_697)"><path d="M123.602 108.99L128.252 105.872C128.252 105.872 129.496 104.876 130.99 106.37C132.484 107.864 134.614 112.077 134.794 113.207L123.602 108.99Z" fill="#6D6D6D" stroke="black" stroke-width="0.124486" stroke-miterlimit="10"></path><path d="M129.745 106.37C129.745 106.37 128.251 108.362 128.998 110.354L129.745 106.37Z" fill="#6D6D6D"></path><path d="M129.745 106.37C129.745 106.37 128.251 108.362 128.998 110.354" stroke="black" stroke-width="0.124486" stroke-miterlimit="10"></path></g><mask id="mask5_301_697" style="mask-type:luminance" maskUnits="userSpaceOnUse" x="99" y="98" width="51" height="50"><path d="M124.389 147.822C110.638 147.822 99.4922 136.675 99.4922 122.925C99.4922 109.174 110.638 98.0273 124.389 98.0273C138.14 98.0273 149.287 109.174 149.287 122.925C149.287 136.675 138.14 147.822 124.389 147.822Z" fill="white"></path></mask><g mask="url(#mask5_301_697)"><path d="M106.092 120.562C106.092 120.562 106.092 115.766 106.59 113.809C107.088 111.847 108.582 112.096 108.582 112.096L112.948 112.085C112.948 112.085 111.071 117.076 106.092 120.562Z" fill="#6D6D6D" stroke="black" stroke-width="0.124486" stroke-miterlimit="10"></path></g><mask id="mask6_301_697" style="mask-type:luminance" maskUnits="userSpaceOnUse" x="99" y="98" width="51" height="50"><path d="M124.389 147.822C110.638 147.822 99.4922 136.675 99.4922 122.925C99.4922 109.174 110.638 98.0273 124.389 98.0273C138.14 98.0273 149.287 109.174 149.287 122.925C149.287 136.675 138.14 147.822 124.389 147.822Z" fill="white"></path></mask><g mask="url(#mask6_301_697)"><path d="M138.519 121.718C138.519 121.718 139.951 110.476 125.511 108.733C125.511 108.733 114.729 106.99 107.796 115.704C107.796 115.704 101.112 125.196 106.838 133.895C106.838 133.895 108.83 137.116 114.556 137.116C114.556 137.116 114.058 137.602 114.805 137.859C114.805 137.859 113.062 143.838 116.299 148.197L151.653 148.32C151.653 148.32 149.964 128.98 139.978 123.836C139.978 123.836 140.074 121.752 138.519 121.718Z" fill="#FEFEFE" stroke="black" stroke-width="0.124486" stroke-miterlimit="10"></path></g><mask id="mask7_301_697" style="mask-type:luminance" maskUnits="userSpaceOnUse" x="99" y="98" width="51" height="50"><path d="M124.389 147.822C110.638 147.822 99.4922 136.675 99.4922 122.925C99.4922 109.174 110.638 98.0273 124.389 98.0273C138.14 98.0273 149.287 109.174 149.287 122.925C149.287 136.675 138.14 147.822 124.389 147.822Z" fill="white"></path></mask><g mask="url(#mask7_301_697)"><path d="M144.751 148.447C144.751 148.447 144.87 138.082 137.619 134.6L131.417 130.184C131.417 130.184 129.728 127.682 131.417 127.154C133.107 126.629 134.6 127.376 135.596 126.38C135.596 126.38 138.335 121.01 134.976 116.463C134.976 116.463 132.609 113.912 129.498 114.533C129.498 114.533 124.642 114.97 121.033 117.183L112.289 120.811C112.289 120.811 108.734 122.55 106.719 124.668C106.719 124.668 104.498 127.874 104.613 128.154C104.728 128.433 103.257 119.374 110.343 113.15C110.343 113.15 115.184 109.01 119.543 108.964C119.543 108.964 128.882 107.355 134.98 112.625C134.98 112.625 138.592 114.904 138.592 121.887C138.592 121.887 139.89 121.47 139.986 123.921C140.082 126.372 150.416 135.849 150.477 148.443H144.751V148.447Z" fill="#6E6E6E"></path></g><mask id="mask8_301_697" style="mask-type:luminance" maskUnits="userSpaceOnUse" x="99" y="98" width="51" height="50"><path d="M124.389 147.822C110.638 147.822 99.4922 136.675 99.4922 122.925C99.4922 109.174 110.638 98.0273 124.389 98.0273C138.14 98.0273 149.287 109.174 149.287 122.925C149.287 136.675 138.14 147.822 124.389 147.822Z" fill="white"></path></mask><g mask="url(#mask8_301_697)"><path d="M117.047 120.313C117.047 120.313 116.3 119.815 116.051 118.321" stroke="black" stroke-width="0.124486" stroke-miterlimit="10" stroke-linecap="round"></path></g><mask id="mask9_301_697" style="mask-type:luminance" maskUnits="userSpaceOnUse" x="99" y="98" width="51" height="50"><path d="M124.389 147.822C110.638 147.822 99.4922 136.675 99.4922 122.925C99.4922 109.174 110.638 98.0273 124.389 98.0273C138.14 98.0273 149.287 109.174 149.287 122.925C149.287 136.675 138.14 147.822 124.389 147.822Z" fill="white"></path></mask><g mask="url(#mask9_301_697)"><path d="M114.807 122.802C114.807 122.802 119.288 128.279 119.288 131.516C119.288 131.516 122.774 132.512 124.766 129.026C124.766 129.026 121.456 122.304 120.996 119.316C120.993 119.316 116.3 119.565 114.807 122.802Z" fill="#D13B53" stroke="black" stroke-width="0.124486" stroke-miterlimit="10"></path></g><mask id="mask10_301_697" style="mask-type:luminance" maskUnits="userSpaceOnUse" x="99" y="98" width="51" height="50"><path d="M124.389 147.822C110.638 147.822 99.4922 136.675 99.4922 122.925C99.4922 109.174 110.638 98.0273 124.389 98.0273C138.14 98.0273 149.287 109.174 149.287 122.925C149.287 136.675 138.14 147.822 124.389 147.822Z" fill="white"></path></mask><g mask="url(#mask10_301_697)"><path d="M115.553 123.051L116.798 123.549V122.09L115.553 123.051Z" fill="white" stroke="black" stroke-width="0.124486" stroke-miterlimit="10" stroke-linecap="round"></path></g><mask id="mask11_301_697" style="mask-type:luminance" maskUnits="userSpaceOnUse" x="99" y="98" width="51" height="50"><path d="M124.389 147.822C110.638 147.822 99.4922 136.675 99.4922 122.925C99.4922 109.174 110.638 98.0273 124.389 98.0273C138.14 98.0273 149.287 109.174 149.287 122.925C149.287 136.675 138.14 147.822 124.389 147.822Z" fill="white"></path></mask><g mask="url(#mask11_301_697)"><path d="M118.789 121.059L120.034 121.806L120.283 120.312L118.789 121.059Z" fill="white" stroke="black" stroke-width="0.124486" stroke-miterlimit="10" stroke-linecap="round"></path></g><mask id="mask12_301_697" style="mask-type:luminance" maskUnits="userSpaceOnUse" x="99" y="98" width="51" height="50"><path d="M124.389 147.822C110.638 147.822 99.4922 136.675 99.4922 122.925C99.4922 109.174 110.638 98.0273 124.389 98.0273C138.14 98.0273 149.287 109.174 149.287 122.925C149.287 136.675 138.14 147.822 124.389 147.822Z" fill="white"></path></mask><g mask="url(#mask12_301_697)"><path d="M106.838 124.546C106.838 124.546 103.69 121.31 107.256 116.828C107.256 116.828 112.315 112.703 115.303 119.494C115.303 119.494 108.332 122.305 106.838 124.546Z" fill="white" stroke="black" stroke-width="0.124486" stroke-miterlimit="10" stroke-linecap="round"></path><path d="M106.34 125.293L106.838 124.546" stroke="black" stroke-width="0.124486" stroke-miterlimit="10" stroke-linecap="round"></path><path d="M112.688 119.068C112.895 119.068 113.063 118.9 113.063 118.693C113.063 118.485 112.895 118.317 112.688 118.317C112.481 118.317 112.312 118.485 112.312 118.693C112.312 118.9 112.481 119.068 112.688 119.068Z" fill="black" stroke="black" stroke-width="0.124486" stroke-miterlimit="10" stroke-linecap="round"></path></g><mask id="mask13_301_697" style="mask-type:luminance" maskUnits="userSpaceOnUse" x="99" y="98" width="51" height="50"><path d="M124.389 147.822C110.638 147.822 99.4922 136.675 99.4922 122.925C99.4922 109.174 110.638 98.0273 124.389 98.0273C138.14 98.0273 149.287 109.174 149.287 122.925C149.287 136.675 138.14 147.822 124.389 147.822Z" fill="white"></path></mask><g mask="url(#mask13_301_697)"><path d="M129.495 114.586L127.262 114.93C122.539 115.773 118.716 118.696 118.716 118.696C115.656 112.349 120.532 110.437 120.532 110.437C127.752 108.281 127.254 114.835 127.254 114.835" fill="white"></path><path d="M129.495 114.586L127.262 114.93C122.539 115.773 118.716 118.696 118.716 118.696C115.656 112.349 120.532 110.437 120.532 110.437C127.752 108.281 127.254 114.835 127.254 114.835" stroke="black" stroke-width="0.124486" stroke-miterlimit="10" stroke-linecap="round"></path><path d="M124.389 114.586C124.596 114.586 124.764 114.418 124.764 114.21C124.764 114.003 124.596 113.835 124.389 113.835C124.182 113.835 124.014 114.003 124.014 114.21C124.014 114.418 124.182 114.586 124.389 114.586Z" fill="black" stroke="black" stroke-width="0.124486" stroke-miterlimit="10" stroke-linecap="round"></path></g><mask id="mask14_301_697" style="mask-type:luminance" maskUnits="userSpaceOnUse" x="99" y="98" width="51" height="50"><path d="M124.389 147.822C110.638 147.822 99.4922 136.675 99.4922 122.925C99.4922 109.174 110.638 98.0273 124.389 98.0273C138.14 98.0273 149.287 109.174 149.287 122.925C149.287 136.675 138.14 147.822 124.389 147.822Z" fill="white"></path></mask><g mask="url(#mask14_301_697)"><path d="M132.482 115.831C132.482 115.831 133.229 115.084 134.972 115.333" stroke="black" stroke-width="0.124486" stroke-miterlimit="10" stroke-linecap="round"></path></g><mask id="mask15_301_697" style="mask-type:luminance" maskUnits="userSpaceOnUse" x="99" y="98" width="51" height="50"><path d="M124.389 147.822C110.638 147.822 99.4922 136.675 99.4922 122.925C99.4922 109.174 110.638 98.0273 124.389 98.0273C138.14 98.0273 149.287 109.174 149.287 122.925C149.287 136.675 138.14 147.822 124.389 147.822Z" fill="white"></path></mask><g mask="url(#mask15_301_697)"><path d="M133.367 117.574C133.367 117.574 135.221 117.325 136.217 118.32" stroke="black" stroke-width="0.124486" stroke-miterlimit="10" stroke-linecap="round"></path></g><mask id="mask16_301_697" style="mask-type:luminance" maskUnits="userSpaceOnUse" x="99" y="98" width="51" height="50"><path d="M124.389 147.822C110.638 147.822 99.4922 136.675 99.4922 122.925C99.4922 109.174 110.638 98.0273 124.389 98.0273C138.14 98.0273 149.287 109.174 149.287 122.925C149.287 136.675 138.14 147.822 124.389 147.822Z" fill="white"></path></mask><g mask="url(#mask16_301_697)"><path d="M104.35 131.018C104.35 131.018 104.848 129.773 105.843 129.773" stroke="black" stroke-width="0.124486" stroke-miterlimit="10" stroke-linecap="round"></path></g><mask id="mask17_301_697" style="mask-type:luminance" maskUnits="userSpaceOnUse" x="99" y="98" width="51" height="50"><path d="M124.389 147.822C110.638 147.822 99.4922 136.675 99.4922 122.925C99.4922 109.174 110.638 98.0273 124.389 98.0273C138.14 98.0273 149.287 109.174 149.287 122.925C149.287 136.675 138.14 147.822 124.389 147.822Z" fill="white"></path></mask><g mask="url(#mask17_301_697)"><path d="M105.096 133.321C105.096 133.321 105.096 131.267 106.341 130.77" stroke="black" stroke-width="0.124486" stroke-miterlimit="10" stroke-linecap="round"></path></g><mask id="mask18_301_697" style="mask-type:luminance" maskUnits="userSpaceOnUse" x="99" y="98" width="51" height="50"><path d="M124.389 147.822C110.638 147.822 99.4922 136.675 99.4922 122.925C99.4922 109.174 110.638 98.0273 124.389 98.0273C138.14 98.0273 149.287 109.174 149.287 122.925C149.287 136.675 138.14 147.822 124.389 147.822Z" fill="white"></path></mask><g mask="url(#mask18_301_697)"><path d="M121.777 133.508C121.777 133.508 124.267 133.508 125.263 131.766" stroke="black" stroke-width="0.124486" stroke-miterlimit="10" stroke-linecap="round"></path></g><mask id="mask19_301_697" style="mask-type:luminance" maskUnits="userSpaceOnUse" x="99" y="98" width="51" height="50"><path d="M124.389 147.822C110.638 147.822 99.4922 136.675 99.4922 122.925C99.4922 109.174 110.638 98.0273 124.389 98.0273C138.14 98.0273 149.287 109.174 149.287 122.925C149.287 136.675 138.14 147.822 124.389 147.822Z" fill="white"></path></mask><g mask="url(#mask19_301_697)"><path d="M122.523 134.006C122.523 134.006 123.768 134.255 125.013 132.761" stroke="black" stroke-width="0.124486" stroke-miterlimit="10" stroke-linecap="round"></path></g><mask id="mask20_301_697" style="mask-type:luminance" maskUnits="userSpaceOnUse" x="99" y="98" width="51" height="50"><path d="M124.389 147.822C110.638 147.822 99.4922 136.675 99.4922 122.925C99.4922 109.174 110.638 98.0273 124.389 98.0273C138.14 98.0273 149.287 109.174 149.287 122.925C149.287 136.675 138.14 147.822 124.389 147.822Z" fill="white"></path></mask><g mask="url(#mask20_301_697)"><path d="M123.77 134.255C123.77 134.255 124.359 134.255 124.934 133.508" stroke="black" stroke-width="0.124486" stroke-miterlimit="10" stroke-linecap="round"></path></g><mask id="mask21_301_697" style="mask-type:luminance" maskUnits="userSpaceOnUse" x="99" y="98" width="51" height="50"><path d="M124.389 147.822C110.638 147.822 99.4922 136.675 99.4922 122.925C99.4922 109.174 110.638 98.0273 124.389 98.0273C138.14 98.0273 149.287 109.174 149.287 122.925C149.287 136.675 138.14 147.822 124.389 147.822Z" fill="white"></path></mask><g mask="url(#mask21_301_697)"><path d="M119.593 128.322C119.593 128.322 119.95 128.153 119.475 127.728C119 127.303 119.237 126.537 119.237 126.537C119.237 126.537 119.475 125.775 120.149 126.541C120.149 126.541 120.348 126.882 120.267 127.134C120.187 127.387 120.386 127.728 120.386 127.728C120.386 127.728 120.861 128.153 121.018 127.644C121.018 127.644 121.099 127.391 120.899 127.05C120.7 126.709 120.7 126.709 120.857 126.2C121.014 125.69 121.662 126.169 121.773 126.483C121.888 126.797 121.888 126.797 121.807 127.05C121.727 127.303 121.708 127.257 121.777 127.579C121.846 127.901 122.401 128.073 122.401 128.073L121.98 129.057L121.298 129.682L120.666 129.766L119.915 129.253L119.44 128.827L119.593 128.322Z" fill="black"></path></g><mask id="mask22_301_697" style="mask-type:luminance" maskUnits="userSpaceOnUse" x="99" y="98" width="51" height="50"><path d="M124.389 147.822C110.638 147.822 99.4922 136.675 99.4922 122.925C99.4922 109.174 110.638 98.0273 124.389 98.0273C138.14 98.0273 149.287 109.174 149.287 122.925C149.287 136.675 138.14 147.822 124.389 147.822Z" fill="white"></path></mask><g mask="url(#mask22_301_697)"><path d="M116.93 119.226C118.007 118.53 118.46 117.316 117.942 116.515C117.424 115.714 116.132 115.628 115.055 116.324C113.978 117.02 113.525 118.234 114.043 119.035C114.561 119.836 115.854 119.922 116.93 119.226Z" fill="#EF8EA8" stroke="black" stroke-width="0.124486" stroke-miterlimit="10"></path><path d="M114.928 118.32C115.135 118.32 115.303 118.152 115.303 117.945C115.303 117.737 115.135 117.569 114.928 117.569C114.721 117.569 114.553 117.737 114.553 117.945C114.553 118.152 114.721 118.32 114.928 118.32Z" fill="black" stroke="black" stroke-width="0.124486" stroke-miterlimit="10" stroke-linecap="round"></path><path d="M116.67 117.574C116.878 117.574 117.046 117.406 117.046 117.199C117.046 116.991 116.878 116.823 116.67 116.823C116.463 116.823 116.295 116.991 116.295 117.199C116.295 117.406 116.463 117.574 116.67 117.574Z" fill="black" stroke="black" stroke-width="0.124486" stroke-miterlimit="10" stroke-linecap="round"></path></g><mask id="mask23_301_697" style="mask-type:luminance" maskUnits="userSpaceOnUse" x="99" y="98" width="51" height="50"><path d="M124.389 147.822C110.638 147.822 99.4922 136.675 99.4922 122.925C99.4922 109.174 110.638 98.0273 124.389 98.0273C138.14 98.0273 149.287 109.174 149.287 122.925C149.287 136.675 138.14 147.822 124.389 147.822Z" fill="white"></path></mask><g mask="url(#mask23_301_697)"><path d="M136.991 128.031C136.991 128.031 131.735 128.28 130.49 127.782C129.246 127.284 129.743 128.529 129.743 128.529C129.743 128.529 128.997 129.524 129.992 129.773C129.992 129.773 129.992 130.769 130.49 131.018C130.988 131.267 131.862 133.259 136.902 132.639" fill="#FEFEFE"></path><path d="M136.991 128.031C136.991 128.031 131.735 128.28 130.49 127.782C129.246 127.284 129.743 128.529 129.743 128.529C129.743 128.529 128.997 129.524 129.992 129.773C129.992 129.773 129.992 130.769 130.49 131.018C130.988 131.267 131.862 133.259 136.902 132.639" stroke="black" stroke-width="0.124486" stroke-miterlimit="10"></path><path d="M130.491 128.777L129.744 128.528" stroke="black" stroke-width="0.124486" stroke-miterlimit="10" stroke-linecap="round"></path><path d="M130.739 129.773H129.992" stroke="black" stroke-width="0.124486" stroke-miterlimit="10" stroke-linecap="round"></path></g><mask id="mask24_301_697" style="mask-type:luminance" maskUnits="userSpaceOnUse" x="99" y="98" width="51" height="50"><path d="M124.389 147.822C110.638 147.822 99.4922 136.675 99.4922 122.925C99.4922 109.174 110.638 98.0273 124.389 98.0273C138.14 98.0273 149.287 109.174 149.287 122.925C149.287 136.675 138.14 147.822 124.389 147.822Z" fill="white"></path></mask><g mask="url(#mask24_301_697)"><path d="M116.051 118.32C116.051 118.32 113.313 118.569 112.566 120.561C112.566 120.561 111.57 122.802 114.06 123.3C114.06 123.3 116.3 123.549 117.296 121.059C117.296 121.059 121.28 121.806 121.529 118.569C121.529 118.569 121.529 116.08 118.79 116.578C118.79 116.578 117.545 116.827 116.051 118.32Z" fill="white" stroke="black" stroke-width="0.124486" stroke-miterlimit="10"></path></g><mask id="mask25_301_697" style="mask-type:luminance" maskUnits="userSpaceOnUse" x="99" y="98" width="51" height="50"><path d="M124.389 147.822C110.638 147.822 99.4922 136.675 99.4922 122.925C99.4922 109.174 110.638 98.0273 124.389 98.0273C138.14 98.0273 149.287 109.174 149.287 122.925C149.287 136.675 138.14 147.822 124.389 147.822Z" fill="white"></path></mask><g mask="url(#mask25_301_697)"><mask id="mask26_301_697" style="mask-type:luminance" maskUnits="userSpaceOnUse" x="112" y="116" width="10" height="8"><path d="M115.964 118.271C115.964 118.271 113.225 118.52 112.478 120.511C112.478 120.511 111.482 122.752 113.972 123.25C113.972 123.25 116.213 123.499 117.208 121.009C117.208 121.009 121.192 121.756 121.441 118.52C121.441 118.52 121.441 116.03 118.702 116.528C118.702 116.528 117.457 116.777 115.964 118.271Z" fill="white"></path></mask><g mask="url(#mask26_301_697)"><path d="M112.612 124.204C112.612 124.204 113.558 120.312 116.546 120.063C116.546 120.063 117.791 116.827 122.521 118.321L121.774 114.835L113.558 115.084L110.57 120.063L112.612 124.204Z" fill="#D9D3D0"></path></g></g><mask id="mask27_301_697" style="mask-type:luminance" maskUnits="userSpaceOnUse" x="99" y="98" width="51" height="50"><path d="M124.389 147.822C110.638 147.822 99.4922 136.675 99.4922 122.925C99.4922 109.174 110.638 98.0273 124.389 98.0273C138.14 98.0273 149.287 109.174 149.287 122.925C149.287 136.675 138.14 147.822 124.389 147.822Z" fill="white"></path></mask><g mask="url(#mask27_301_697)"><path d="M116.024 118.206C116.024 118.206 113.285 118.455 112.539 120.447C112.539 120.447 111.543 122.688 114.032 123.186C114.032 123.186 116.273 123.435 117.269 120.945C117.269 120.945 121.253 121.692 121.502 118.455C121.502 118.455 121.502 115.965 118.763 116.463C118.763 116.463 117.518 116.712 116.024 118.206Z" stroke="black" stroke-width="0.124486" stroke-miterlimit="10"></path></g><mask id="mask28_301_697" style="mask-type:luminance" maskUnits="userSpaceOnUse" x="99" y="98" width="51" height="50"><path d="M124.389 147.822C110.638 147.822 99.4922 136.675 99.4922 122.925C99.4922 109.174 110.638 98.0273 124.389 98.0273C138.14 98.0273 149.287 109.174 149.287 122.925C149.287 136.675 138.14 147.822 124.389 147.822Z" fill="white"></path></mask><g mask="url(#mask28_301_697)"><path d="M124.765 129.027C123.409 131.402 121.356 131.697 120.188 131.643C119.64 131.616 119.288 131.517 119.288 131.517C119.288 130.808 119.073 129.992 118.736 129.15C119.012 128.357 119.679 127.552 121.28 128.28C121.28 128.28 121.647 126.277 123.409 126.101C124.149 127.767 124.765 129.027 124.765 129.027Z" fill="#EF8EA8" stroke="black" stroke-width="0.124486" stroke-miterlimit="10"></path></g><mask id="mask29_301_697" style="mask-type:luminance" maskUnits="userSpaceOnUse" x="99" y="98" width="51" height="50"><path d="M124.389 147.822C110.638 147.822 99.4922 136.675 99.4922 122.925C99.4922 109.174 110.638 98.0273 124.389 98.0273C138.14 98.0273 149.287 109.174 149.287 122.925C149.287 136.675 138.14 147.822 124.389 147.822Z" fill="white"></path></mask><g mask="url(#mask29_301_697)"><path d="M123.343 130.459L124.316 129.536L122.994 128.927L123.343 130.459Z" fill="white" stroke="black" stroke-width="0.124486" stroke-miterlimit="10" stroke-linecap="round"></path></g><mask id="mask30_301_697" style="mask-type:luminance" maskUnits="userSpaceOnUse" x="99" y="98" width="51" height="50"><path d="M124.389 147.822C110.638 147.822 99.4922 136.675 99.4922 122.925C99.4922 109.174 110.638 98.0273 124.389 98.0273C138.14 98.0273 149.287 109.174 149.287 122.925C149.287 136.675 138.14 147.822 124.389 147.822Z" fill="white"></path></mask><g mask="url(#mask30_301_697)"><path d="M121.711 131.359L120.876 130.176L120.045 131.44L121.711 131.359Z" fill="white" stroke="black" stroke-width="0.124486" stroke-miterlimit="10" stroke-linecap="round"></path></g><mask id="mask31_301_697" style="mask-type:luminance" maskUnits="userSpaceOnUse" x="99" y="98" width="51" height="50"><path d="M124.389 147.822C110.638 147.822 99.4922 136.675 99.4922 122.925C99.4922 109.174 110.638 98.0273 124.389 98.0273C138.14 98.0273 149.287 109.174 149.287 122.925C149.287 136.675 138.14 147.822 124.389 147.822Z" fill="white"></path></mask><g mask="url(#mask31_301_697)"><path d="M139.978 123.959C139.978 123.959 149.412 127.778 151.653 148.443H148.39C148.39 148.443 146.858 132.033 139.182 126.79C139.182 126.79 140.005 125.618 139.978 123.959Z" fill="#6E6E6E"></path></g><mask id="mask32_301_697" style="mask-type:luminance" maskUnits="userSpaceOnUse" x="99" y="98" width="51" height="50"><path d="M124.389 147.822C110.638 147.822 99.4922 136.675 99.4922 122.925C99.4922 109.174 110.638 98.0273 124.389 98.0273C138.14 98.0273 149.287 109.174 149.287 122.925C149.287 136.675 138.14 147.822 124.389 147.822Z" fill="white"></path></mask><g mask="url(#mask32_301_697)"><path d="M138.53 121.718C138.53 121.718 139.963 110.476 125.523 108.733C125.523 108.733 114.74 106.99 107.807 115.704C107.807 115.704 101.123 125.196 106.85 133.895C106.85 133.895 108.842 137.116 114.568 137.116C114.568 137.116 114.07 137.602 114.817 137.859C114.817 137.859 113.074 143.838 116.311 148.197L151.665 148.32C151.665 148.32 149.976 128.98 139.99 123.836C139.99 123.836 140.086 121.752 138.53 121.718Z" stroke="black" stroke-width="0.124486" stroke-miterlimit="10"></path></g><mask id="mask33_301_697" style="mask-type:luminance" maskUnits="userSpaceOnUse" x="99" y="98" width="51" height="50"><path d="M124.389 147.822C110.638 147.822 99.4922 136.675 99.4922 122.925C99.4922 109.174 110.638 98.0273 124.389 98.0273C138.14 98.0273 149.287 109.174 149.287 122.925C149.287 136.675 138.14 147.822 124.389 147.822Z" fill="white"></path></mask><g mask="url(#mask33_301_697)"><path d="M136.715 126.288C136.715 126.288 138.331 125.116 138.519 121.845" stroke="black" stroke-width="0.124486" stroke-miterlimit="10" stroke-linecap="round"></path></g><mask id="mask34_301_697" style="mask-type:luminance" maskUnits="userSpaceOnUse" x="99" y="98" width="51" height="50"><path d="M124.389 147.822C110.638 147.822 99.4922 136.675 99.4922 122.925C99.4922 109.174 110.638 98.0273 124.389 98.0273C138.14 98.0273 149.287 109.174 149.287 122.925C149.287 136.675 138.14 147.822 124.389 147.822Z" fill="white"></path></mask><g mask="url(#mask34_301_697)"><path d="M138.209 128.031C138.209 128.031 139.756 126.866 139.979 123.963" stroke="black" stroke-width="0.124486" stroke-miterlimit="10" stroke-linecap="round"></path></g><mask id="mask35_301_697" style="mask-type:luminance" maskUnits="userSpaceOnUse" x="99" y="98" width="51" height="50"><path d="M124.389 147.822C110.638 147.822 99.4922 136.675 99.4922 122.925C99.4922 109.174 110.638 98.0273 124.389 98.0273C138.14 98.0273 149.287 109.174 149.287 122.925C149.287 136.675 138.14 147.822 124.389 147.822Z" fill="white"></path></mask><g mask="url(#mask35_301_697)"><path d="M111.436 137.901L112.186 138.61C112.186 138.61 112.684 138.775 112.749 138.258C112.814 137.741 111.999 137.361 111.999 137.361" fill="black"></path></g><mask id="mask36_301_697" style="mask-type:luminance" maskUnits="userSpaceOnUse" x="99" y="98" width="51" height="50"><path d="M124.389 147.822C110.638 147.822 99.4922 136.675 99.4922 122.925C99.4922 109.174 110.638 98.0273 124.389 98.0273C138.14 98.0273 149.287 109.174 149.287 122.925C149.287 136.675 138.14 147.822 124.389 147.822Z" fill="white"></path></mask><g mask="url(#mask36_301_697)"><path d="M131.625 128.03H137.129L137.336 132.887H135.593C135.593 132.887 135.593 133.136 134.597 132.389C133.601 131.642 135.149 131.026 134.375 130.589C133.601 130.152 132.387 130.643 131.625 128.03Z" fill="#6D6D6D"></path></g><mask id="mask37_301_697" style="mask-type:luminance" maskUnits="userSpaceOnUse" x="99" y="98" width="51" height="50"><path d="M124.389 147.822C110.638 147.822 99.4922 136.675 99.4922 122.925C99.4922 109.174 110.638 98.0273 124.389 98.0273C138.14 98.0273 149.287 109.174 149.287 122.925C149.287 136.675 138.14 147.822 124.389 147.822Z" fill="white"></path></mask><g mask="url(#mask37_301_697)"><path d="M136.991 128.031C136.991 128.031 131.735 128.28 130.49 127.782C129.246 127.284 129.743 128.529 129.743 128.529C129.743 128.529 128.997 129.524 129.992 129.773C129.992 129.773 129.992 130.769 130.49 131.018C130.988 131.267 131.862 133.259 136.902 132.639" stroke="black" stroke-width="0.124486" stroke-miterlimit="10"></path><path d="M130.491 128.777L129.744 128.528" stroke="black" stroke-width="0.124486" stroke-miterlimit="10" stroke-linecap="round"></path><path d="M130.739 129.773H129.992" stroke="black" stroke-width="0.124486" stroke-miterlimit="10" stroke-linecap="round"></path></g><mask id="mask38_301_697" style="mask-type:luminance" maskUnits="userSpaceOnUse" x="99" y="98" width="51" height="50"><path d="M124.389 147.822C110.638 147.822 99.4922 136.675 99.4922 122.925C99.4922 109.174 110.638 98.0273 124.389 98.0273C138.14 98.0273 149.287 109.174 149.287 122.925C149.287 136.675 138.14 147.822 124.389 147.822Z" fill="white"></path></mask><g mask="url(#mask38_301_697)"><path d="M135.248 127.954L135.294 129.494C135.294 129.494 135.646 130.195 136.263 129.716C136.88 129.237 136.416 127.977 136.416 127.977" fill="black"></path></g><mask id="mask39_301_697" style="mask-type:luminance" maskUnits="userSpaceOnUse" x="99" y="98" width="51" height="50"><path d="M124.389 147.822C110.638 147.822 99.4922 136.675 99.4922 122.925C99.4922 109.174 110.638 98.0273 124.389 98.0273C138.14 98.0273 149.287 109.174 149.287 122.925C149.287 136.675 138.14 147.822 124.389 147.822Z" fill="white"></path></mask><g mask="url(#mask39_301_697)"><path d="M133.041 128.107L133.087 129.647C133.087 129.647 133.439 130.348 134.056 129.869C134.673 129.391 134.209 128.13 134.209 128.13" fill="black"></path></g><mask id="mask40_301_697" style="mask-type:luminance" maskUnits="userSpaceOnUse" x="99" y="98" width="51" height="50"><path d="M124.389 147.822C110.638 147.822 99.4922 136.675 99.4922 122.925C99.4922 109.174 110.638 98.0273 124.389 98.0273C138.14 98.0273 149.287 109.174 149.287 122.925C149.287 136.675 138.14 147.822 124.389 147.822Z" fill="white"></path></mask><g mask="url(#mask40_301_697)"><path d="M109.699 113.712C109.699 113.712 110.913 114.237 110.929 112.605L109.699 113.712Z" fill="black"></path></g><mask id="mask41_301_697" style="mask-type:luminance" maskUnits="userSpaceOnUse" x="99" y="98" width="51" height="50"><path d="M124.389 147.822C110.638 147.822 99.4922 136.675 99.4922 122.925C99.4922 109.174 110.638 98.0273 124.389 98.0273C138.14 98.0273 149.287 109.174 149.287 122.925C149.287 136.675 138.14 147.822 124.389 147.822Z" fill="white"></path></mask><g mask="url(#mask41_301_697)"><path d="M112.949 111.247C112.949 111.247 115.427 114.181 115.305 110.086L112.949 111.247Z" fill="black"></path></g><mask id="mask42_301_697" style="mask-type:luminance" maskUnits="userSpaceOnUse" x="99" y="98" width="51" height="50"><path d="M124.389 147.822C110.638 147.822 99.4922 136.675 99.4922 122.925C99.4922 109.174 110.638 98.0273 124.389 98.0273C138.14 98.0273 149.287 109.174 149.287 122.925C149.287 136.675 138.14 147.822 124.389 147.822Z" fill="white"></path></mask><g mask="url(#mask42_301_697)"><path d="M117.947 109.235C117.947 109.235 119.112 110.848 120.383 108.795L117.947 109.235Z" fill="black"></path></g><mask id="mask43_301_697" style="mask-type:luminance" maskUnits="userSpaceOnUse" x="99" y="98" width="51" height="50"><path d="M124.389 147.822C110.638 147.822 99.4922 136.675 99.4922 122.925C99.4922 109.174 110.638 98.0273 124.389 98.0273C138.14 98.0273 149.287 109.174 149.287 122.925C149.287 136.675 138.14 147.822 124.389 147.822Z" fill="white"></path></mask><g mask="url(#mask43_301_697)"><path d="M117.916 135.623C117.916 135.623 115.694 136.868 114.564 137.117" stroke="black" stroke-width="0.124486" stroke-miterlimit="10" stroke-linecap="round"></path></g><mask id="mask44_301_697" style="mask-type:luminance" maskUnits="userSpaceOnUse" x="99" y="98" width="51" height="50"><path d="M124.389 147.822C110.638 147.822 99.4922 136.675 99.4922 122.925C99.4922 109.174 110.638 98.0273 124.389 98.0273C138.14 98.0273 149.287 109.174 149.287 122.925C149.287 136.675 138.14 147.822 124.389 147.822Z" fill="white"></path></mask><g mask="url(#mask44_301_697)"><path d="M117.295 136.745C117.295 136.745 115.571 137.73 114.816 137.86" stroke="black" stroke-width="0.124486" stroke-miterlimit="10" stroke-linecap="round"></path></g><mask id="mask45_301_697" style="mask-type:luminance" maskUnits="userSpaceOnUse" x="99" y="98" width="51" height="50"><path d="M124.389 147.822C110.638 147.822 99.4922 136.675 99.4922 122.925C99.4922 109.174 110.638 98.0273 124.389 98.0273C138.14 98.0273 149.287 109.174 149.287 122.925C149.287 136.675 138.14 147.822 124.389 147.822Z" fill="white"></path></mask><g mask="url(#mask45_301_697)"><path d="M147.192 132.106L144.22 133.662C144.22 133.662 143.186 135.021 144.71 135.776C146.234 136.53 148.257 134.42 148.257 134.42" fill="black"></path></g><mask id="mask46_301_697" style="mask-type:luminance" maskUnits="userSpaceOnUse" x="99" y="98" width="51" height="50"><path d="M124.389 147.822C110.638 147.822 99.4922 136.675 99.4922 122.925C99.4922 109.174 110.638 98.0273 124.389 98.0273C138.14 98.0273 149.287 109.174 149.287 122.925C149.287 136.675 138.14 147.822 124.389 147.822Z" fill="white"></path></mask><g mask="url(#mask46_301_697)"><path d="M144.104 127.234L141.339 129.372C141.339 129.372 140.527 130.954 142.224 131.448C143.92 131.942 145.613 129.41 145.613 129.41" fill="black"></path></g><mask id="mask47_301_697" style="mask-type:luminance" maskUnits="userSpaceOnUse" x="99" y="98" width="51" height="50"><path d="M124.389 147.822C110.638 147.822 99.4922 136.675 99.4922 122.925C99.4922 109.174 110.638 98.0273 124.389 98.0273C138.14 98.0273 149.287 109.174 149.287 122.925C149.287 136.675 138.14 147.822 124.389 147.822Z" fill="white"></path></mask><g mask="url(#mask47_301_697)"><path d="M149.241 137.392L146.108 138.591C146.108 138.591 144.924 139.824 146.349 140.747C147.774 141.67 150.03 139.812 150.03 139.812" fill="black"></path></g><path d="M124.389 147.823C110.638 147.823 99.4922 136.676 99.4922 122.926C99.4922 109.175 110.638 98.0283 124.389 98.0283C138.14 98.0283 149.287 109.175 149.287 122.926C149.287 136.676 138.14 147.823 124.389 147.823Z" stroke="#231F20" stroke-width="0.431565" stroke-miterlimit="10"></path></g><defs><clipPath id="clip0_301_697"><rect width="124.348" height="150" fill="white" transform="translate(63.1465 49.8047)"></rect></clipPath></defs></svg>