<svg xmlns="http://www.w3.org/2000/svg" width="250" height="250" viewBox="0 0 250 250" fill="none"><circle cx="125" cy="125" r="124.5" fill="#D5D9FF" stroke="black"></circle><path d="M97.8569 63.5062V63.6366C105.735 64.1275 115.017 64.4344 124.944 64.4344C153.542 64.4344 176.717 61.9029 176.717 59.7089C176.717 57.5149 153.542 55.7275 124.944 55.7275C122.136 55.7275 119.382 55.7429 116.705 55.7659C116.651 55.7659 116.582 55.7812 116.521 55.7812C111.489 56.2645 78.3413 59.5785 97.8569 63.5062Z" fill="#FFF8E6"></path><path d="M176.64 185.042C176.624 185.065 176.594 185.088 176.578 185.111C176.532 185.164 176.479 185.226 176.402 185.279C176.364 185.31 176.325 185.333 176.279 185.364C176.195 185.417 176.11 185.471 176.011 185.532C175.957 185.563 175.896 185.594 175.842 185.625C175.727 185.678 175.604 185.74 175.466 185.793C175.397 185.824 175.328 185.855 175.251 185.878C175.098 185.939 174.937 186 174.76 186.062C174.684 186.092 174.607 186.115 174.523 186.146C174.315 186.215 174.101 186.284 173.87 186.353C173.801 186.376 173.732 186.399 173.663 186.415C173.042 186.599 172.329 186.783 171.531 186.967C171.408 186.998 171.278 187.021 171.147 187.051C170.871 187.113 170.587 187.174 170.288 187.235C170.119 187.274 169.935 187.305 169.759 187.343C169.483 187.397 169.206 187.45 168.923 187.512C168.731 187.55 168.524 187.588 168.324 187.627C168.025 187.68 167.726 187.734 167.411 187.788C167.212 187.826 167.012 187.857 166.805 187.895C166.445 187.957 166.076 188.018 165.701 188.079C165.532 188.102 165.378 188.133 165.21 188.156C164.673 188.24 164.113 188.325 163.537 188.409C163.53 188.409 163.522 188.409 163.514 188.409C158.812 189.092 153.051 189.713 146.576 190.166C146.469 190.174 146.354 190.181 146.246 190.189C145.019 190.273 143.761 190.35 142.48 190.427C142.411 190.427 142.342 190.434 142.273 190.434C141.038 190.503 139.78 190.565 138.498 190.618C138.383 190.626 138.268 190.626 138.146 190.634C136.895 190.688 135.622 190.734 134.333 190.772C134.095 190.78 133.85 190.787 133.612 190.795C132.346 190.833 131.057 190.856 129.761 190.879C129.538 190.879 129.308 190.887 129.086 190.887C127.72 190.902 126.347 190.918 124.959 190.918C117.686 190.918 110.767 190.665 104.492 190.25C103.172 190.166 101.884 190.066 100.626 189.966C99.5669 189.882 98.539 189.79 97.5264 189.698C95.8387 189.545 94.2277 189.376 92.6781 189.207C92.2255 189.153 91.7883 189.107 91.351 189.054C90.3154 188.931 89.3105 188.808 88.3516 188.678C87.4464 188.555 86.5795 188.432 85.7357 188.309C85.2294 188.233 84.7384 188.156 84.2628 188.079C82.6672 187.826 81.225 187.558 79.9439 187.297C75.648 186.415 73.1855 185.517 73.1855 184.804L72.5488 188.386C72.5488 188.386 83.4803 194.255 124.959 194.255C166.437 194.255 177.369 188.386 177.369 188.386L176.732 184.804C176.724 184.88 176.693 184.957 176.64 185.042Z" fill="#F2E7CE"></path><path d="M97.8554 66.9811C97.8554 66.9811 97.7634 66.9811 97.5869 66.9657C97.5102 66.9504 97.4105 66.9504 97.2954 66.9504C97.1113 66.935 96.9349 66.9274 96.7507 66.912C96.6434 66.8967 96.5129 66.889 96.3902 66.889C96.0987 66.866 95.8072 66.8507 95.508 66.82C94.6795 66.7509 93.6823 66.6742 92.5776 66.5822C92.2554 66.5592 91.9486 66.5285 91.6571 66.5055C91.3118 66.4824 90.9666 66.4518 90.6061 66.4134C89.5781 66.3213 88.5042 66.2139 87.4225 66.0835C84.799 65.815 82.137 65.4545 80.0351 65.0556C80.0351 65.0556 79.9814 66.9044 80.1042 70.157C89.0642 71.392 105.787 72.5811 124.943 72.5811C153.541 72.5811 176.716 69.9345 176.716 68.4386V63.5137C173.877 64.4189 160.859 67.7865 124.943 67.7865C113.858 67.7789 104.951 67.4567 97.8554 66.9811Z" fill="#FFF8E6"></path><path d="M140.861 182.679C145.917 185.234 151.394 187.435 157.331 189.2C159.548 188.954 161.62 188.686 163.514 188.409C163.522 188.409 163.53 188.409 163.537 188.409C164.113 188.325 164.665 188.241 165.21 188.156C165.379 188.133 165.54 188.103 165.701 188.08C166.077 188.018 166.445 187.957 166.805 187.896C167.013 187.857 167.212 187.826 167.411 187.788C167.718 187.734 168.025 187.681 168.324 187.627C168.524 187.589 168.723 187.55 168.923 187.512C169.214 187.458 169.49 187.405 169.759 187.343C169.935 187.305 170.119 187.274 170.288 187.236C170.587 187.174 170.864 187.113 171.147 187.052C171.278 187.021 171.408 186.998 171.531 186.967C172.329 186.783 173.042 186.599 173.664 186.415C173.74 186.392 173.802 186.369 173.871 186.354C174.101 186.285 174.323 186.216 174.523 186.146C174.607 186.116 174.676 186.093 174.761 186.062C174.937 186.001 175.098 185.939 175.251 185.878C175.328 185.847 175.397 185.817 175.466 185.794C175.604 185.732 175.727 185.679 175.842 185.625C175.904 185.594 175.957 185.563 176.011 185.533C176.111 185.479 176.203 185.418 176.279 185.364C176.318 185.333 176.364 185.31 176.402 185.28C176.479 185.218 176.533 185.165 176.579 185.111C176.602 185.088 176.625 185.065 176.64 185.042C176.694 184.965 176.724 184.888 176.724 184.812V176.972C176.724 178.736 161.666 181.628 140.861 182.679Z" fill="#FFF8E6"></path><path d="M124.706 72.7196C105.55 72.7196 88.8272 71.5382 79.8672 70.2955C80.3581 83.6665 83.6491 120.841 104.53 151.043C105.144 151.94 105.781 152.838 106.44 153.72C110.261 158.637 113.536 162.266 116.144 164.897C120.693 169.469 123.24 171.011 123.24 171.011C123.24 171.011 123.248 171.003 123.256 170.988C127.966 174.709 135.2 180.102 140.616 182.825C161.42 181.774 176.479 178.889 176.479 177.117V68.5771C176.479 70.073 153.304 72.7196 124.706 72.7196ZM173.057 143.824C173.019 135.616 172.382 91.0615 162.364 74.2232C162.364 74.2232 170.357 73.6555 173.057 72.5202V143.824Z" fill="#EA6251"></path><path d="M124.95 64.4423C115.016 64.4423 105.742 64.1354 97.8633 63.6445V66.9891C104.959 67.4647 113.865 67.7869 124.95 67.7869C160.867 67.7869 173.885 64.4193 176.724 63.5141C177.161 63.3836 177.36 63.2993 177.36 63.2993L176.724 59.7168C176.724 61.9108 153.541 64.4423 124.95 64.4423Z" fill="#FFF8E6"></path><path d="M88.3438 62.8926C91.2051 63.1688 94.404 63.4219 97.8638 63.6367V63.5063C78.3405 59.5787 111.488 56.2647 116.52 55.7891C91.9339 56.0882 73.1777 57.7452 73.1777 59.7091C73.1777 60.8214 78.9695 61.9874 88.3438 62.8926Z" fill="#F2E7CE"></path><path d="M80.1125 70.1491C79.9898 66.9042 80.0435 65.0478 80.0435 65.0478C76.2462 64.3957 74.1366 63.8127 73.1777 63.5059V68.4308C73.1777 68.9217 75.7092 69.5508 80.1125 70.1491Z" fill="#F2E7CE"></path><path d="M85.7279 188.309C86.564 188.432 87.4309 188.563 88.3438 188.678C89.3027 188.808 90.3076 188.931 91.3432 189.054C91.7805 189.107 92.2177 189.153 92.6703 189.207C94.2199 189.383 95.8309 189.545 97.5186 189.698C98.5312 189.79 99.5591 189.882 100.618 189.966C101.876 190.066 103.165 190.158 104.484 190.25C110.759 190.665 117.679 190.918 124.951 190.918C126.339 190.918 127.713 190.902 129.078 190.887C129.3 190.887 129.531 190.879 129.753 190.879C131.05 190.856 132.338 190.833 133.604 190.795C133.842 190.787 134.087 190.78 134.325 190.772C135.614 190.734 136.887 190.688 138.138 190.634C138.253 190.626 138.376 190.626 138.491 190.619C139.764 190.565 141.03 190.503 142.265 190.434C142.334 190.434 142.403 190.427 142.472 190.427C143.753 190.358 145.003 190.273 146.239 190.189C146.346 190.181 146.461 190.174 146.568 190.166C150.435 189.897 154.048 189.568 157.331 189.192C151.394 187.42 145.924 185.226 140.861 182.671C135.859 182.924 130.505 183.07 124.951 183.07C96.3525 183.07 73.1777 179.158 73.1777 176.956V184.796C73.1777 185.509 75.6402 186.399 79.9361 187.289C81.2172 187.55 82.6594 187.819 84.255 188.072C84.7306 188.156 85.2216 188.233 85.7279 188.309Z" fill="#F2E7CE"></path><path d="M124.951 183.077C130.505 183.077 135.852 182.931 140.861 182.678C132.077 178.26 124.567 172.798 118.139 166.638C117.886 166.492 117.648 166.308 117.418 166.085C117.387 166.055 117.356 166.024 117.326 166.001C117.111 165.786 116.911 165.541 116.712 165.265C116.704 165.249 116.689 165.242 116.681 165.234C85.0681 133.69 80.6879 85.737 80.1125 70.149C75.7092 69.5507 73.1777 68.9216 73.1777 68.4307V176.971C73.1777 179.165 96.3525 183.077 124.951 183.077Z" fill="#DB4942"></path><path d="M87.4385 66.0761C88.4358 66.1835 89.5021 66.3062 90.6221 66.406C90.975 66.452 91.3202 66.475 91.6654 66.5057C91.9569 66.5287 92.2638 66.5594 92.5859 66.5824C93.6906 66.6745 94.6879 66.7588 95.5164 66.8202C95.8079 66.8432 96.0994 66.8586 96.3986 66.8893C96.5213 66.8893 96.6517 66.9046 96.7591 66.9123C96.9432 66.9276 97.1196 66.9353 97.3038 66.9506C97.4265 66.9506 97.5185 66.9506 97.5953 66.966C97.6873 66.9813 97.7794 66.9813 97.8638 66.9813V63.6367C94.404 63.4219 91.2051 63.1687 88.3438 62.8925C78.9695 61.9873 73.1777 60.8213 73.1777 59.709L72.541 63.2915C72.541 63.2915 72.7405 63.3682 73.1777 63.5062C74.1366 63.8131 76.2539 64.3961 80.0435 65.0482C82.0303 65.3857 84.4698 65.7309 87.4385 66.0761Z" fill="#F2E7CE"></path><path d="M162.408 74.2763C172.435 91.1223 173.071 135.669 173.102 143.877V72.5732C170.402 73.7009 162.408 74.2763 162.408 74.2763Z" fill="#FF7F76"></path><path d="M73.1777 59.7177C73.1777 57.5161 96.3602 55.7363 124.951 55.7363C153.542 55.7363 176.724 57.5161 176.724 59.7177" stroke="#000707" stroke-miterlimit="10" stroke-linecap="round" stroke-linejoin="round"></path><path d="M73.1777 63.5078V184.813" stroke="#000707" stroke-miterlimit="10" stroke-linecap="round" stroke-linejoin="round"></path><path d="M73.1777 176.965C73.1777 179.159 96.3602 183.079 124.951 183.079C153.542 183.079 176.724 179.166 176.724 176.965" stroke="#000707" stroke-width="0.492723" stroke-miterlimit="10" stroke-linecap="round" stroke-linejoin="round"></path><path d="M73.1777 68.4316C73.1777 69.9199 96.3602 72.5664 124.951 72.5664C153.542 72.5664 176.724 69.9199 176.724 68.4316" stroke="#000707" stroke-width="0.492723" stroke-miterlimit="10" stroke-linecap="round" stroke-linejoin="round"></path><path d="M176.717 184.813V63.5078" stroke="#000707" stroke-miterlimit="10" stroke-linecap="round" stroke-linejoin="round"></path><path d="M124.951 194.263C166.43 194.263 177.361 188.387 177.361 188.387L176.724 184.812" stroke="#000707" stroke-miterlimit="10" stroke-linecap="round" stroke-linejoin="round"></path><path d="M124.951 194.263C83.4725 194.263 72.541 188.387 72.541 188.387L73.1777 184.812C73.1777 187.006 96.3602 190.919 124.951 190.919C153.542 190.919 176.724 187.006 176.724 184.812" stroke="#000707" stroke-miterlimit="10" stroke-linecap="round" stroke-linejoin="round"></path><path d="M124.951 67.7791C166.43 67.7791 177.361 63.2838 177.361 63.2838L176.724 59.709" stroke="#000707" stroke-miterlimit="10" stroke-linecap="round" stroke-linejoin="round"></path><path d="M124.951 67.7802C83.4725 67.7802 72.541 63.2849 72.541 63.2849L73.1777 59.7178C73.1777 61.9117 96.3602 64.4433 124.951 64.4433C153.542 64.4433 176.724 61.9194 176.724 59.7178" stroke="#000707" stroke-miterlimit="10" stroke-linecap="round" stroke-linejoin="round"></path><path d="M85.4443 128.16C85.4443 129.127 86.4109 129.61 88.3364 129.61C89.6405 129.61 91.2744 129.119 93.2459 128.13L94.1358 127.662C95.4783 126.979 96.2377 126.833 96.4142 127.217C96.4602 127.324 96.4832 127.439 96.4832 127.577C96.4832 127.715 96.4295 127.853 96.3144 127.991C96.1994 128.137 96.0459 128.291 95.8618 128.459C95.6701 128.628 95.4476 128.812 95.1944 128.996C94.9413 129.188 94.6728 129.372 94.389 129.556L93.5375 130.086C93.2459 130.262 92.9314 130.431 92.6016 130.6L91.3358 131.229C89.349 132.157 87.4695 132.617 85.7128 132.617C84.1709 132.617 82.9818 132.31 82.1533 131.704C81.4092 131.167 81.041 130.469 81.041 129.618C81.041 128.444 81.5703 127.255 82.629 126.058C83.5418 125.03 84.7999 124.056 86.3955 123.136C87.784 122.33 89.2722 121.67 90.8449 121.156C92.3331 120.665 93.5451 120.42 94.4733 120.42C94.6728 120.42 94.8339 120.481 94.972 120.612C95.2175 120.834 95.3402 121.064 95.3402 121.279C95.3402 122.138 94.9873 122.829 94.2739 123.358C93.6679 123.803 92.9544 124.025 92.1413 124.025C91.3281 124.025 90.7221 123.941 90.3155 123.78C88.8043 124.363 87.5769 125.153 86.6257 126.135C86.2344 126.549 85.9353 126.933 85.7512 127.293C85.544 127.662 85.4443 127.953 85.4443 128.16Z" fill="#FFF9FD" stroke="#000706" stroke-width="0.383562" stroke-miterlimit="10"></path><path d="M110.123 125.712C110.307 125.712 110.399 125.865 110.399 126.18C110.399 126.717 110.023 127.415 109.271 128.274L108.773 128.781C107.269 130.284 105.857 131.281 104.53 131.78C103.71 132.087 103.119 132.072 102.758 131.734C102.459 131.45 102.229 130.99 102.053 130.361L101.845 129.601L99.9966 130.737L98.9303 131.343C97.6569 132.041 96.698 132.386 96.0613 132.386C95.2405 132.386 94.5654 132.072 94.0207 131.435C93.4991 130.836 93.2383 130.146 93.2383 129.356C93.2383 128.581 93.5451 127.883 94.1665 127.277C95.0564 126.41 96.4525 125.612 98.3627 124.884C100.173 124.208 101.631 123.863 102.743 123.863C103.119 123.863 103.311 124.047 103.311 124.423C103.311 124.676 103.265 124.868 103.165 124.999C103.065 125.129 102.866 125.259 102.559 125.39L101.462 125.858C99.8355 126.533 98.6542 127.239 97.8947 127.967C97.6799 128.167 97.5725 128.366 97.5725 128.558C97.5725 128.75 97.726 128.842 98.0328 128.842C98.332 128.842 99.0377 128.52 100.135 127.868L100.856 127.438C101.976 126.763 102.912 126.433 103.663 126.433C104.3 126.433 104.722 126.717 104.929 127.277C104.983 127.43 105.029 127.584 105.075 127.73C105.121 127.883 105.167 128.021 105.213 128.144C105.32 128.428 105.413 128.573 105.497 128.573C105.581 128.573 105.704 128.535 105.857 128.451C106.011 128.366 106.187 128.259 106.371 128.128C106.563 127.998 106.755 127.852 106.962 127.699L108.013 126.855C108.949 126.103 109.655 125.712 110.123 125.712Z" fill="#FFF9FD" stroke="#000706" stroke-width="0.383562" stroke-miterlimit="10"></path><path d="M117.931 126.288C118.499 126.288 118.783 126.488 118.783 126.879C118.783 127.255 118.514 127.746 117.985 128.336L117.555 128.781C117.041 129.311 116.435 129.825 115.753 130.339C115.07 130.845 114.464 131.251 113.942 131.551C112.73 132.226 111.633 132.556 110.644 132.556C109.715 132.556 108.956 132.279 108.373 131.719C107.867 131.236 107.613 130.73 107.613 130.2C107.613 129.663 107.667 129.134 107.767 128.612C107.867 128.091 108.005 127.569 108.173 127.063C108.511 126.035 108.879 125.168 109.278 124.447C109.385 124.248 109.432 124.125 109.432 124.063H108.311C107.89 124.063 107.56 123.964 107.33 123.764C107.099 123.565 106.984 123.342 106.984 123.097C106.984 122.851 107.03 122.667 107.122 122.552C107.215 122.437 107.33 122.353 107.468 122.299C107.667 122.215 107.951 122.176 108.335 122.176L110.467 122.184C110.513 122.169 110.605 122.038 110.743 121.808L111.273 120.895C111.495 120.489 111.725 120.189 111.955 119.998C112.185 119.806 112.454 119.714 112.761 119.714C113.068 119.714 113.328 119.745 113.543 119.798C113.758 119.852 113.935 119.929 114.08 120.013C114.364 120.197 114.51 120.404 114.51 120.619C114.51 120.711 114.479 120.834 114.418 120.995L113.935 122.176L118.062 122.169C118.422 122.169 118.599 122.353 118.599 122.729C118.599 123.611 117.816 124.048 116.244 124.048L113.06 124.056C112.991 124.094 112.868 124.255 112.707 124.562L112.316 125.283C112.216 125.46 112.147 125.598 112.109 125.69L111.917 126.119C111.526 126.994 111.334 127.623 111.334 128.014C111.334 128.405 111.434 128.728 111.641 128.988C111.848 129.249 112.124 129.38 112.462 129.38C112.807 129.38 113.137 129.311 113.467 129.18C113.796 129.05 114.119 128.881 114.425 128.697C114.993 128.344 115.438 128.014 115.768 127.715C116.09 127.416 116.359 127.186 116.573 127.025L117.179 126.595C117.502 126.396 117.747 126.288 117.931 126.288Z" fill="#FFF9FD" stroke="#000706" stroke-width="0.383562" stroke-miterlimit="10"></path><path d="M103.157 142.521C103.157 143.373 103.426 143.802 103.955 143.802C104.323 143.802 104.968 143.48 105.873 142.828C106.694 142.222 107.185 141.839 107.346 141.677C107.706 141.378 108.082 141.225 108.473 141.225C108.642 141.225 108.788 141.279 108.903 141.394C109.018 141.509 109.079 141.677 109.079 141.9C109.079 142.122 109.026 142.329 108.911 142.514C108.803 142.698 108.657 142.889 108.489 143.089C108.32 143.288 108.105 143.503 107.852 143.749C107.599 143.994 107.307 144.247 106.985 144.516C106.663 144.784 106.302 145.053 105.919 145.321C105.535 145.59 105.136 145.828 104.722 146.042C103.794 146.518 102.958 146.756 102.206 146.756C101.347 146.756 100.764 146.365 100.457 145.59C100.28 145.145 100.188 144.608 100.188 143.979L97.6569 145.689C95.9232 146.909 94.8952 147.554 94.5577 147.63C94.3889 147.669 94.2201 147.692 94.0514 147.692C93.8826 147.692 93.7215 147.676 93.5681 147.646C93.4147 147.615 93.2843 147.561 93.1692 147.485C92.9007 147.331 92.7703 147.093 92.7703 146.786C92.7703 146.664 92.8547 146.372 93.0158 145.897L93.7599 143.848C93.99 143.189 94.1051 142.79 94.1051 142.659C94.1051 142.613 94.0744 142.59 94.0207 142.59C93.967 142.59 93.8519 142.652 93.6985 142.774C93.5451 142.897 93.3533 143.051 93.1308 143.242L91.0596 145.053L89.9703 145.958C88.858 146.848 87.9527 147.285 87.247 147.285C86.9171 147.285 86.5796 147.139 86.2497 146.84C85.8815 146.526 85.7051 146.15 85.7051 145.713C85.7051 145.275 85.7511 144.792 85.8278 144.27C85.9122 143.749 86.0349 143.25 86.1884 142.759C86.3418 142.276 86.5412 141.823 86.7714 141.394C87.0015 140.964 87.27 140.596 87.5615 140.281C88.1982 139.599 88.95 139.253 89.8169 139.253C90.6837 139.253 91.1133 139.506 91.1133 140.02C91.1133 140.243 90.9982 140.58 90.7604 141.025C90.2541 142.023 90.001 142.56 90.001 142.636C90.001 142.713 90.024 142.774 90.0777 142.82C90.1237 142.866 90.1774 142.889 90.2388 142.889C90.3615 142.889 90.538 142.79 90.7604 142.59C92.2486 141.286 93.1845 140.481 93.5758 140.166C93.9593 139.852 94.3352 139.576 94.6958 139.338C95.5166 138.801 96.1763 138.532 96.6596 138.532C97.0585 138.532 97.3807 138.594 97.6338 138.724C98.0711 138.946 98.2859 139.207 98.2859 139.491C98.2859 139.775 98.2475 140.097 98.1708 140.458C98.0941 140.818 98.0097 141.163 97.9177 141.501L97.6569 142.391C97.5725 142.644 97.5341 142.843 97.5341 142.982C97.5341 143.12 97.5955 143.189 97.7106 143.189C97.9867 143.189 98.5391 142.797 99.3675 142.007L100.211 141.217C101.178 140.35 101.914 139.913 102.413 139.913C102.651 139.913 102.866 140.005 103.05 140.189C103.372 140.511 103.533 140.795 103.533 141.041C103.533 141.171 103.487 141.355 103.395 141.578C103.242 142.007 103.157 142.322 103.157 142.521Z" fill="#FFF9FD" stroke="#000706" stroke-width="0.383562" stroke-miterlimit="10"></path><path d="M119.366 140.895C119.642 140.895 119.78 141.048 119.78 141.363C119.78 141.57 119.711 141.83 119.566 142.153C119.42 142.475 119.22 142.766 118.952 143.043C118.683 143.319 118.377 143.603 118.031 143.902C117.686 144.201 117.287 144.508 116.827 144.83C116.367 145.152 115.86 145.474 115.3 145.796C114.74 146.119 114.15 146.403 113.528 146.656C112.14 147.223 110.797 147.507 109.501 147.507C108.511 147.507 107.645 147.246 106.9 146.732C106.126 146.195 105.734 145.536 105.734 144.769C105.734 143.556 106.386 142.406 107.691 141.316C108.818 140.381 110.138 139.652 111.664 139.138C112.592 138.823 113.375 138.67 114.019 138.67C114.541 138.67 114.978 138.8 115.339 139.053C115.722 139.33 115.914 139.706 115.914 140.173C115.914 140.91 115.331 141.723 114.165 142.613C113.981 142.759 113.812 142.881 113.659 142.981L113.344 143.188C112.761 143.595 111.887 144.047 110.698 144.554C111.066 144.746 111.403 144.838 111.718 144.838C112.032 144.838 112.316 144.799 112.569 144.723C112.823 144.646 113.106 144.538 113.429 144.4C113.751 144.262 114.088 144.093 114.449 143.902C114.809 143.71 115.178 143.495 115.546 143.265C116.374 142.751 117.095 142.222 117.701 141.685C118.024 141.386 118.423 141.155 118.921 140.979C119.098 140.925 119.243 140.895 119.366 140.895ZM109.769 143.342L110.245 143.096C110.398 143.012 110.544 142.943 110.659 142.874C111.833 142.199 112.5 141.784 112.661 141.631C112.823 141.478 112.907 141.363 112.907 141.309C112.907 141.247 112.892 141.178 112.853 141.094C112.815 141.01 112.769 140.941 112.715 140.879C112.577 140.718 112.431 140.634 112.27 140.634C112.117 140.634 111.94 140.664 111.749 140.718C111.557 140.78 111.373 140.856 111.181 140.956C110.989 141.056 110.805 141.178 110.629 141.324C110.452 141.47 110.299 141.616 110.161 141.777C109.854 142.145 109.7 142.46 109.7 142.728C109.708 142.989 109.731 143.196 109.769 143.342Z" fill="#FFF9FD" stroke="#000706" stroke-width="0.383562" stroke-miterlimit="10"></path><path d="M134.188 142.521C134.188 143.373 134.457 143.802 134.986 143.802C135.354 143.802 135.999 143.48 136.904 142.828C137.725 142.222 138.216 141.839 138.377 141.677C138.737 141.378 139.113 141.225 139.505 141.225C139.673 141.225 139.819 141.279 139.934 141.394C140.049 141.509 140.111 141.677 140.111 141.9C140.111 142.122 140.057 142.329 139.942 142.514C139.834 142.698 139.689 142.889 139.52 143.089C139.351 143.288 139.136 143.503 138.883 143.749C138.63 143.994 138.339 144.247 138.016 144.516C137.694 144.784 137.334 145.053 136.95 145.321C136.566 145.59 136.168 145.828 135.753 146.042C134.825 146.518 133.989 146.756 133.237 146.756C132.378 146.756 131.795 146.365 131.488 145.59C131.312 145.145 131.22 144.608 131.22 143.979L128.688 145.689C126.954 146.909 125.926 147.554 125.589 147.63C125.42 147.669 125.251 147.692 125.083 147.692C124.914 147.692 124.753 147.676 124.599 147.646C124.446 147.615 124.316 147.561 124.2 147.485C123.932 147.331 123.802 147.093 123.802 146.786C123.802 146.664 123.886 146.372 124.047 145.897L124.791 143.848C125.021 143.189 125.136 142.79 125.136 142.659C125.136 142.613 125.106 142.59 125.052 142.59C124.991 142.59 124.883 142.652 124.73 142.774C124.576 142.897 124.385 143.051 124.162 143.242L122.091 145.053L121.002 145.958C119.889 146.848 118.984 147.285 118.278 147.285C117.948 147.285 117.611 147.139 117.281 146.84C116.913 146.526 116.736 146.15 116.736 145.713C116.736 145.275 116.782 144.792 116.859 144.27C116.943 143.749 117.066 143.25 117.22 142.759C117.373 142.276 117.572 141.823 117.803 141.394C118.033 140.964 118.301 140.596 118.593 140.281C119.229 139.599 119.981 139.253 120.848 139.253C121.715 139.253 122.145 139.506 122.145 140.02C122.145 140.243 122.029 140.58 121.792 141.025C121.285 142.023 121.032 142.56 121.032 142.636C121.032 142.713 121.055 142.774 121.109 142.82C121.155 142.866 121.209 142.889 121.27 142.889C121.393 142.889 121.569 142.79 121.792 142.59C123.28 141.286 124.216 140.481 124.607 140.166C124.991 139.852 125.366 139.576 125.727 139.338C126.548 138.801 127.208 138.532 127.691 138.532C128.09 138.532 128.412 138.594 128.665 138.724C129.102 138.946 129.317 139.207 129.317 139.491C129.317 139.775 129.279 140.097 129.202 140.458C129.125 140.818 129.041 141.163 128.949 141.501L128.688 142.391C128.604 142.644 128.565 142.843 128.565 142.982C128.565 143.12 128.627 143.189 128.742 143.189C129.018 143.189 129.57 142.797 130.399 142.007L131.243 141.217C132.209 140.35 132.946 139.913 133.444 139.913C133.682 139.913 133.897 140.005 134.081 140.189C134.403 140.511 134.564 140.795 134.564 141.041C134.564 141.171 134.518 141.355 134.426 141.578C134.273 142.007 134.188 142.322 134.188 142.521Z" fill="#FFF9FD" stroke="#000706" stroke-width="0.383562" stroke-miterlimit="10"></path><path d="M150.397 140.895C150.674 140.895 150.812 141.048 150.812 141.363C150.812 141.57 150.743 141.83 150.597 142.153C150.451 142.467 150.252 142.766 149.983 143.043C149.715 143.319 149.408 143.603 149.063 143.902C148.717 144.201 148.319 144.508 147.858 144.83C147.398 145.152 146.892 145.474 146.332 145.796C145.772 146.119 145.181 146.403 144.56 146.656C143.171 147.223 141.829 147.507 140.532 147.507C139.543 147.507 138.676 147.246 137.932 146.732C137.157 146.195 136.766 145.536 136.766 144.769C136.766 143.556 137.418 142.406 138.722 141.316C139.849 140.381 141.169 139.652 142.695 139.138C143.624 138.823 144.406 138.67 145.051 138.67C145.572 138.67 146.009 138.8 146.37 139.053C146.754 139.33 146.945 139.706 146.945 140.173C146.945 140.91 146.362 141.723 145.196 142.613C145.012 142.759 144.843 142.881 144.69 142.981L144.375 143.188C143.792 143.595 142.918 144.047 141.729 144.554C142.097 144.746 142.435 144.838 142.749 144.838C143.064 144.838 143.348 144.799 143.601 144.723C143.854 144.646 144.138 144.538 144.46 144.4C144.782 144.262 145.12 144.093 145.48 143.902C145.841 143.71 146.209 143.495 146.577 143.265C147.406 142.751 148.127 142.222 148.733 141.685C149.055 141.386 149.454 141.155 149.952 140.979C150.129 140.925 150.275 140.895 150.397 140.895ZM140.808 143.342L141.284 143.096C141.437 143.012 141.583 142.943 141.698 142.874C142.872 142.199 143.539 141.784 143.7 141.631C143.862 141.478 143.946 141.363 143.946 141.309C143.946 141.247 143.931 141.178 143.892 141.094C143.854 141.01 143.808 140.941 143.754 140.879C143.616 140.718 143.47 140.634 143.309 140.634C143.156 140.634 142.979 140.664 142.788 140.718C142.596 140.78 142.412 140.856 142.22 140.956C142.028 141.056 141.844 141.178 141.668 141.324C141.491 141.47 141.338 141.616 141.2 141.777C140.893 142.145 140.739 142.46 140.739 142.728C140.747 142.989 140.762 143.196 140.808 143.342Z" fill="#FFF9FD" stroke="#000706" stroke-width="0.383562" stroke-miterlimit="10"></path><path d="M118.975 164.153C118.422 164.445 117.862 164.682 117.287 164.866C116.719 165.051 116.182 165.143 115.684 165.143C115.185 165.143 114.625 164.92 113.996 164.468C113.904 164.974 113.82 165.473 113.743 165.979C113.666 166.477 113.574 166.961 113.459 167.421C113.344 167.881 113.214 168.303 113.045 168.702C112.884 169.093 112.661 169.439 112.401 169.722C111.818 170.344 111.004 170.651 109.961 170.651C109.8 170.651 109.662 170.589 109.562 170.466C109.378 170.244 109.301 169.999 109.34 169.715C109.378 169.431 109.485 169.032 109.67 168.51C109.854 167.989 110.091 167.413 110.375 166.784C110.659 166.155 110.981 165.488 111.334 164.782L112.454 162.642C112.324 162.343 112.262 162.074 112.262 161.836C112.262 161.599 112.301 161.361 112.385 161.123C112.47 160.885 112.577 160.663 112.723 160.456C113.053 159.965 113.421 159.719 113.827 159.719C113.904 159.719 113.981 159.727 114.065 159.742C115.584 157.165 116.459 155.699 116.681 155.339L117.157 154.595C118.047 153.275 118.898 152.493 119.696 152.232C119.972 152.148 120.248 152.102 120.532 152.102C120.816 152.102 121.054 152.201 121.23 152.401C121.414 152.6 121.506 152.907 121.506 153.337C121.506 154.556 120.824 155.968 119.458 157.556L117.195 160.057C116.796 160.494 116.413 160.939 116.044 161.399C116.236 161.622 116.413 161.813 116.574 161.967C116.735 162.12 116.873 162.205 116.98 162.205C117.088 162.205 117.249 162.166 117.456 162.097C117.663 162.028 117.901 161.928 118.169 161.806C118.438 161.683 118.729 161.545 119.036 161.384C119.343 161.223 119.642 161.062 119.934 160.893C120.57 160.525 121.031 160.218 121.307 159.98C121.79 159.566 122.174 159.366 122.458 159.366C122.657 159.366 122.81 159.412 122.902 159.504C123.056 159.658 123.125 159.834 123.125 160.041C123.125 160.248 123.01 160.532 122.787 160.9C122.565 161.269 122.258 161.645 121.882 162.028C121.499 162.412 121.061 162.795 120.563 163.171C120.056 163.524 119.535 163.862 118.975 164.153Z" fill="#FFF9FD" stroke="#000706" stroke-width="0.383562" stroke-miterlimit="10"></path><path d="M130.522 160.156C130.522 160.47 130.791 160.624 131.32 160.624C131.711 160.624 132.233 160.432 132.869 160.048L133.568 159.665C133.782 159.542 133.966 159.481 134.128 159.481C134.289 159.481 134.411 159.527 134.503 159.627C134.595 159.726 134.642 159.864 134.642 160.033C134.642 160.21 134.58 160.409 134.465 160.639C134.35 160.869 134.189 161.107 133.989 161.36C133.79 161.613 133.552 161.859 133.276 162.104C133 162.35 132.708 162.572 132.402 162.772C131.703 163.209 131.059 163.424 130.461 163.424C129.832 163.424 129.325 163.316 128.949 163.102C128.834 163.033 128.719 162.956 128.612 162.887C127.991 163.593 127.093 164.245 125.919 164.835C124.669 165.464 123.572 165.771 122.644 165.771C121.662 165.771 120.887 165.388 120.319 164.613C119.859 163.984 119.629 163.355 119.629 162.71C119.629 161.782 120.128 160.9 121.117 160.056C121.846 159.442 122.552 158.975 123.234 158.66C123.917 158.338 124.531 158.092 125.083 157.924C126.249 157.555 127.3 157.379 128.228 157.379C128.643 157.379 129.018 157.456 129.348 157.617C129.678 157.778 129.916 157.939 130.077 158.1C130.445 158.468 130.637 158.928 130.637 159.496C130.637 159.665 130.622 159.795 130.583 159.887C130.537 159.987 130.522 160.072 130.522 160.156ZM123.411 161.798L123.403 161.821V161.828C123.403 162.074 123.457 162.242 123.572 162.312C123.84 162.473 124.117 162.519 124.416 162.434C124.715 162.358 124.991 162.258 125.26 162.143C125.919 161.859 126.518 161.498 127.047 161.061C126.955 160.877 126.909 160.685 126.909 160.486C126.909 160.071 127.093 159.65 127.454 159.235C126.993 159.235 126.364 159.45 125.574 159.887C124.707 160.371 124.055 160.862 123.618 161.376C123.48 161.567 123.411 161.698 123.411 161.798Z" fill="#FFF9FD" stroke="#000706" stroke-width="0.383562" stroke-miterlimit="10"></path><path d="M142.35 160.156C142.35 160.47 142.619 160.624 143.148 160.624C143.539 160.624 144.061 160.432 144.698 160.048L145.396 159.665C145.61 159.542 145.795 159.481 145.956 159.481C146.117 159.481 146.24 159.527 146.332 159.627C146.424 159.726 146.47 159.864 146.47 160.033C146.47 160.21 146.408 160.409 146.293 160.639C146.178 160.869 146.017 161.107 145.818 161.36C145.618 161.613 145.38 161.859 145.104 162.104C144.828 162.35 144.536 162.572 144.23 162.772C143.532 163.209 142.887 163.424 142.289 163.424C141.66 163.424 141.153 163.316 140.778 163.102C140.663 163.033 140.547 162.956 140.44 162.887C139.819 163.593 138.921 164.245 137.747 164.835C136.497 165.464 135.4 165.771 134.472 165.771C133.49 165.771 132.715 165.388 132.147 164.613C131.687 163.984 131.457 163.355 131.457 162.71C131.457 161.782 131.956 160.9 132.945 160.056C133.674 159.442 134.38 158.975 135.063 158.66C135.745 158.338 136.359 158.092 136.911 157.924C138.077 157.555 139.128 157.379 140.056 157.379C140.471 157.379 140.847 157.456 141.176 157.617C141.506 157.778 141.744 157.939 141.905 158.1C142.273 158.468 142.465 158.928 142.465 159.496C142.465 159.665 142.45 159.795 142.412 159.887C142.366 159.987 142.35 160.072 142.35 160.156ZM135.231 161.798L135.224 161.821V161.828C135.224 162.074 135.277 162.242 135.392 162.312C135.661 162.473 135.937 162.519 136.236 162.434C136.535 162.358 136.812 162.258 137.08 162.143C137.74 161.859 138.338 161.498 138.867 161.061C138.775 160.877 138.729 160.685 138.729 160.486C138.729 160.071 138.913 159.65 139.274 159.235C138.814 159.235 138.185 159.45 137.395 159.887C136.528 160.371 135.876 160.862 135.438 161.376C135.308 161.567 135.231 161.698 135.231 161.798Z" fill="#FFF9FD" stroke="#000706" stroke-width="0.383562" stroke-miterlimit="10"></path><path d="M159.779 159.09C160.04 159.09 160.17 159.221 160.17 159.489C160.17 159.911 159.894 160.509 159.334 161.277C158.943 161.814 158.145 162.565 156.933 163.517C155.491 164.644 154.333 165.212 153.458 165.212C152.798 165.212 152.3 164.936 151.962 164.376C151.763 164.038 151.594 163.547 151.464 162.895L150.689 163.455C148.564 164.928 146.976 165.665 145.925 165.665C145.05 165.665 144.345 165.342 143.823 164.706C143.363 164.13 143.125 163.448 143.125 162.642C143.125 161.76 143.424 161.062 144.03 160.555C145.258 159.52 146.784 158.676 148.61 158.009C149.354 157.732 149.822 157.602 150.021 157.602C150.221 157.602 150.397 157.633 150.566 157.702C150.727 157.771 150.896 157.855 151.057 157.955C151.441 158.216 151.632 158.469 151.632 158.714C151.632 158.914 151.51 159.067 151.264 159.19C151.187 159.228 151.065 159.282 150.881 159.359C150.704 159.428 150.482 159.528 150.221 159.643C149.523 159.972 148.832 160.371 148.173 160.839C147.697 161.246 147.459 161.568 147.459 161.806C147.459 162.044 147.628 162.166 147.966 162.166C148.242 162.166 148.802 161.921 149.638 161.43L150.374 160.977C150.904 160.648 151.326 160.348 151.64 160.072L152.039 158.768C152.53 157.211 153.082 155.93 153.681 154.917C154.747 152.869 155.821 151.849 156.895 151.849C157.286 151.849 157.601 151.918 157.831 152.063C158.245 152.324 158.46 152.616 158.46 152.93C158.46 153.245 158.398 153.582 158.283 153.935C158.168 154.288 158.015 154.641 157.831 154.986C157.639 155.331 157.424 155.677 157.179 156.022L155.69 157.986C155.445 158.308 155.223 158.615 155.031 158.914C154.693 159.635 154.524 160.256 154.524 160.778C154.524 161.522 154.793 161.89 155.33 161.89C155.637 161.89 156.189 161.568 156.987 160.924L158.015 160.057C158.498 159.627 158.974 159.328 159.442 159.152C159.595 159.113 159.703 159.09 159.779 159.09Z" fill="#FFF9FD" stroke="#000706" stroke-width="0.383562" stroke-miterlimit="10"></path><path d="M143.233 125.445C131.588 125.445 122.145 116.002 122.145 104.357C122.145 92.7118 131.588 83.2686 143.233 83.2686C154.878 83.2686 164.321 92.7118 164.321 104.357C164.321 116.002 154.878 125.445 143.233 125.445Z" fill="white"></path><mask id="mask0_301_698" style="mask-type:luminance" maskUnits="userSpaceOnUse" x="122" y="83" width="43" height="43"><path d="M143.233 125.446C131.588 125.446 122.145 116.003 122.145 104.358C122.145 92.7128 131.588 83.2695 143.233 83.2695C154.878 83.2695 164.321 92.7128 164.321 104.358C164.321 116.003 154.878 125.446 143.233 125.446Z" fill="white"></path></mask><g mask="url(#mask0_301_698)"><path d="M133.721 115.635C133.721 115.635 131.949 117.322 131.742 117.53C131.535 117.737 131.535 117.951 131.535 118.159C131.535 118.366 131.535 118.788 131.742 119.002C131.949 119.217 132.164 119.002 132.164 119.002C132.164 119.002 131.957 119.631 132.793 119.631C133.637 119.631 135.532 118.581 135.532 118.581C135.532 118.581 135.494 115.85 133.721 115.635Z" fill="#FEFEFE" stroke="black" stroke-width="0.105403" stroke-miterlimit="10"></path><path d="M132.164 118.166C132.164 118.166 131.765 118.373 131.543 118.481" stroke="black" stroke-width="0.105403" stroke-miterlimit="10" stroke-linecap="round"></path><path d="M132.54 118.48L132.164 119.01" stroke="black" stroke-width="0.105403" stroke-miterlimit="10" stroke-linecap="round"></path></g><mask id="mask1_301_698" style="mask-type:luminance" maskUnits="userSpaceOnUse" x="122" y="83" width="43" height="43"><path d="M143.233 125.446C131.588 125.446 122.145 116.003 122.145 104.358C122.145 92.7128 131.588 83.2695 143.233 83.2695C154.878 83.2695 164.321 92.7128 164.321 104.358C164.321 116.003 154.878 125.446 143.233 125.446Z" fill="white"></path></mask><g mask="url(#mask1_301_698)"><path d="M135.116 116.071L133.428 115.849L131.871 117.406C131.871 117.406 132.492 118.932 134.855 116.969" fill="#6D6D6D"></path></g><mask id="mask2_301_698" style="mask-type:luminance" maskUnits="userSpaceOnUse" x="122" y="83" width="43" height="43"><path d="M143.233 125.446C131.588 125.446 122.145 116.003 122.145 104.358C122.145 92.7128 131.588 83.2695 143.233 83.2695C154.878 83.2695 164.321 92.7128 164.321 104.358C164.321 116.003 154.878 125.446 143.233 125.446Z" fill="white"></path></mask><g mask="url(#mask2_301_698)"><path d="M132.984 116.394L133.621 116.992C133.621 116.992 134.043 117.13 134.097 116.693C134.15 116.256 133.46 115.934 133.46 115.934" fill="black"></path></g><mask id="mask3_301_698" style="mask-type:luminance" maskUnits="userSpaceOnUse" x="122" y="83" width="43" height="43"><path d="M143.233 125.446C131.588 125.446 122.145 116.003 122.145 104.358C122.145 92.7128 131.588 83.2695 143.233 83.2695C154.878 83.2695 164.321 92.7128 164.321 104.358C164.321 116.003 154.878 125.446 143.233 125.446Z" fill="white"></path></mask><g mask="url(#mask3_301_698)"><path d="M133.721 115.643C133.721 115.643 131.949 117.33 131.742 117.537C131.535 117.744 131.535 117.959 131.535 118.166C131.535 118.374 131.535 118.795 131.742 119.01C131.949 119.225 132.164 119.01 132.164 119.01C132.164 119.01 131.957 119.639 132.793 119.639C133.637 119.639 135.532 118.588 135.532 118.588C135.532 118.588 135.494 115.857 133.721 115.643Z" stroke="black" stroke-width="0.105403" stroke-miterlimit="10"></path></g><mask id="mask4_301_698" style="mask-type:luminance" maskUnits="userSpaceOnUse" x="122" y="83" width="43" height="43"><path d="M143.233 125.446C131.588 125.446 122.145 116.003 122.145 104.358C122.145 92.7128 131.588 83.2695 143.233 83.2695C154.878 83.2695 164.321 92.7128 164.321 104.358C164.321 116.003 154.878 125.446 143.233 125.446Z" fill="white"></path></mask><g mask="url(#mask4_301_698)"><path d="M142.564 92.5512L146.5 89.9123C146.5 89.9123 147.551 89.0684 148.817 90.3342C150.082 91.5999 151.885 95.1671 152.038 96.126L142.564 92.5512Z" fill="#6D6D6D" stroke="black" stroke-width="0.105403" stroke-miterlimit="10"></path><path d="M147.765 90.334C147.765 90.334 146.499 92.0217 147.136 93.7093L147.765 90.334Z" fill="#6D6D6D"></path><path d="M147.765 90.334C147.765 90.334 146.499 92.0217 147.136 93.7093" stroke="black" stroke-width="0.105403" stroke-miterlimit="10"></path></g><mask id="mask5_301_698" style="mask-type:luminance" maskUnits="userSpaceOnUse" x="122" y="83" width="43" height="43"><path d="M143.233 125.446C131.588 125.446 122.145 116.003 122.145 104.358C122.145 92.7128 131.588 83.2695 143.233 83.2695C154.878 83.2695 164.321 92.7128 164.321 104.358C164.321 116.003 154.878 125.446 143.233 125.446Z" fill="white"></path></mask><g mask="url(#mask5_301_698)"><path d="M127.736 102.356C127.736 102.356 127.736 98.2976 128.158 96.633C128.58 94.976 129.846 95.1831 129.846 95.1831L133.543 95.1754C133.543 95.1754 131.956 99.4023 127.736 102.356Z" fill="#6D6D6D" stroke="black" stroke-width="0.105403" stroke-miterlimit="10"></path></g><mask id="mask6_301_698" style="mask-type:luminance" maskUnits="userSpaceOnUse" x="122" y="83" width="43" height="43"><path d="M143.233 125.446C131.588 125.446 122.145 116.003 122.145 104.358C122.145 92.7128 131.588 83.2695 143.233 83.2695C154.878 83.2695 164.321 92.7128 164.321 104.358C164.321 116.003 154.878 125.446 143.233 125.446Z" fill="white"></path></mask><g mask="url(#mask6_301_698)"><path d="M155.199 103.337C155.199 103.337 156.411 93.8174 144.183 92.3445C144.183 92.3445 135.054 90.8716 129.178 98.2513C129.178 98.2513 123.517 106.291 128.365 113.655C128.365 113.655 130.052 116.386 134.901 116.386C134.901 116.386 134.479 116.8 135.108 117.015C135.108 117.015 133.635 122.078 136.374 125.768L166.314 125.875C166.314 125.875 164.88 109.497 156.426 105.14C156.434 105.132 156.518 103.368 155.199 103.337Z" fill="#FEFEFE" stroke="black" stroke-width="0.105403" stroke-miterlimit="10"></path></g><mask id="mask7_301_698" style="mask-type:luminance" maskUnits="userSpaceOnUse" x="122" y="83" width="43" height="43"><path d="M143.233 125.446C131.588 125.446 122.145 116.003 122.145 104.358C122.145 92.7128 131.588 83.2695 143.233 83.2695C154.878 83.2695 164.321 92.7128 164.321 104.358C164.321 116.003 154.878 125.446 143.233 125.446Z" fill="white"></path></mask><g mask="url(#mask7_301_698)"><path d="M160.478 125.967C160.478 125.967 160.577 117.191 154.44 114.237L149.186 110.494C149.186 110.494 147.751 108.377 149.186 107.932C150.62 107.487 151.878 108.116 152.722 107.272C152.722 107.272 155.039 102.723 152.193 98.8719C152.193 98.8719 150.191 96.7086 147.552 97.2379C147.552 97.2379 143.44 97.6061 140.379 99.4779L132.976 102.562C132.976 102.562 129.969 104.035 128.259 105.83C128.259 105.83 126.379 108.545 126.479 108.783C126.579 109.021 125.328 101.35 131.327 96.0796C131.327 96.0796 135.431 92.5738 139.121 92.5355C139.121 92.5355 147.03 91.1776 152.193 95.6346C152.193 95.6346 155.254 97.5678 155.254 103.475C155.254 103.475 156.351 103.122 156.435 105.201C156.519 107.28 165.265 115.304 165.318 125.967H160.478Z" fill="#6E6E6E"></path></g><mask id="mask8_301_698" style="mask-type:luminance" maskUnits="userSpaceOnUse" x="122" y="83" width="43" height="43"><path d="M143.233 125.446C131.588 125.446 122.145 116.003 122.145 104.358C122.145 92.7128 131.588 83.2695 143.233 83.2695C154.878 83.2695 164.321 92.7128 164.321 104.358C164.321 116.003 154.878 125.446 143.233 125.446Z" fill="white"></path></mask><g mask="url(#mask8_301_698)"><path d="M137.01 102.141C137.01 102.141 136.381 101.719 136.166 100.453" stroke="black" stroke-width="0.105403" stroke-miterlimit="10" stroke-linecap="round"></path></g><mask id="mask9_301_698" style="mask-type:luminance" maskUnits="userSpaceOnUse" x="122" y="83" width="43" height="43"><path d="M143.233 125.446C131.588 125.446 122.145 116.003 122.145 104.358C122.145 92.7128 131.588 83.2695 143.233 83.2695C154.878 83.2695 164.321 92.7128 164.321 104.358C164.321 116.003 154.878 125.446 143.233 125.446Z" fill="white"></path></mask><g mask="url(#mask9_301_698)"><path d="M135.117 104.25C135.117 104.25 138.914 108.891 138.914 111.63C138.914 111.63 141.868 112.474 143.556 109.52C143.556 109.52 140.756 103.828 140.364 101.297C140.357 101.297 136.383 101.512 135.117 104.25Z" fill="#D13B53" stroke="black" stroke-width="0.105403" stroke-miterlimit="10"></path></g><mask id="mask10_301_698" style="mask-type:luminance" maskUnits="userSpaceOnUse" x="122" y="83" width="43" height="43"><path d="M143.233 125.446C131.588 125.446 122.145 116.003 122.145 104.358C122.145 92.7128 131.588 83.2695 143.233 83.2695C154.878 83.2695 164.321 92.7128 164.321 104.358C164.321 116.003 154.878 125.446 143.233 125.446Z" fill="white"></path></mask><g mask="url(#mask10_301_698)"><path d="M135.746 104.465L136.805 104.887V103.652L135.746 104.465Z" fill="white" stroke="black" stroke-width="0.105403" stroke-miterlimit="10" stroke-linecap="round"></path></g><mask id="mask11_301_698" style="mask-type:luminance" maskUnits="userSpaceOnUse" x="122" y="83" width="43" height="43"><path d="M143.233 125.446C131.588 125.446 122.145 116.003 122.145 104.358C122.145 92.7128 131.588 83.2695 143.233 83.2695C154.878 83.2695 164.321 92.7128 164.321 104.358C164.321 116.003 154.878 125.446 143.233 125.446Z" fill="white"></path></mask><g mask="url(#mask11_301_698)"><path d="M138.492 102.776L139.543 103.405L139.758 102.14L138.492 102.776Z" fill="white" stroke="black" stroke-width="0.105403" stroke-miterlimit="10" stroke-linecap="round"></path></g><mask id="mask12_301_698" style="mask-type:luminance" maskUnits="userSpaceOnUse" x="122" y="83" width="43" height="43"><path d="M143.233 125.446C131.588 125.446 122.145 116.003 122.145 104.358C122.145 92.7128 131.588 83.2695 143.233 83.2695C154.878 83.2695 164.321 92.7128 164.321 104.358C164.321 116.003 154.878 125.446 143.233 125.446Z" fill="white"></path></mask><g mask="url(#mask12_301_698)"><path d="M128.366 105.73C128.366 105.73 125.696 102.991 128.719 99.1939C128.719 99.1939 133.007 95.6959 135.538 101.449C135.538 101.449 129.632 103.827 128.366 105.73Z" fill="white" stroke="black" stroke-width="0.105403" stroke-miterlimit="10" stroke-linecap="round"></path><path d="M127.945 106.36L128.367 105.73" stroke="black" stroke-width="0.105403" stroke-miterlimit="10" stroke-linecap="round"></path><path d="M133.322 101.089C133.496 101.089 133.637 100.948 133.637 100.774C133.637 100.601 133.496 100.46 133.322 100.46C133.149 100.46 133.008 100.601 133.008 100.774C133.008 100.948 133.149 101.089 133.322 101.089Z" fill="black" stroke="black" stroke-width="0.105403" stroke-miterlimit="10" stroke-linecap="round"></path></g><mask id="mask13_301_698" style="mask-type:luminance" maskUnits="userSpaceOnUse" x="122" y="83" width="43" height="43"><path d="M143.233 125.446C131.588 125.446 122.145 116.003 122.145 104.358C122.145 92.7128 131.588 83.2695 143.233 83.2695C154.878 83.2695 164.321 92.7128 164.321 104.358C164.321 116.003 154.878 125.446 143.233 125.446Z" fill="white"></path></mask><g mask="url(#mask13_301_698)"><path d="M147.559 97.292L145.664 97.5835C141.667 98.2969 138.43 100.775 138.43 100.775C135.837 95.3972 139.964 93.7786 139.964 93.7786C146.078 91.9528 145.656 97.5068 145.656 97.5068" fill="white"></path><path d="M147.559 97.292L145.664 97.5835C141.667 98.2969 138.43 100.775 138.43 100.775C135.837 95.3972 139.964 93.7786 139.964 93.7786C146.078 91.9528 145.656 97.5068 145.656 97.5068" stroke="black" stroke-width="0.105403" stroke-miterlimit="10" stroke-linecap="round"></path><path d="M143.232 97.2921C143.406 97.2921 143.547 97.1513 143.547 96.9776C143.547 96.8039 143.406 96.6631 143.232 96.6631C143.059 96.6631 142.918 96.8039 142.918 96.9776C142.918 97.1513 143.059 97.2921 143.232 97.2921Z" fill="black" stroke="black" stroke-width="0.105403" stroke-miterlimit="10" stroke-linecap="round"></path></g><mask id="mask14_301_698" style="mask-type:luminance" maskUnits="userSpaceOnUse" x="122" y="83" width="43" height="43"><path d="M143.233 125.446C131.588 125.446 122.145 116.003 122.145 104.358C122.145 92.7128 131.588 83.2695 143.233 83.2695C154.878 83.2695 164.321 92.7128 164.321 104.358C164.321 116.003 154.878 125.446 143.233 125.446Z" fill="white"></path></mask><g mask="url(#mask14_301_698)"><path d="M150.084 98.3505C150.084 98.3505 150.713 97.7214 152.194 97.9286" stroke="black" stroke-width="0.105403" stroke-miterlimit="10" stroke-linecap="round"></path></g><mask id="mask15_301_698" style="mask-type:luminance" maskUnits="userSpaceOnUse" x="122" y="83" width="43" height="43"><path d="M143.233 125.446C131.588 125.446 122.145 116.003 122.145 104.358C122.145 92.7128 131.588 83.2695 143.233 83.2695C154.878 83.2695 164.321 92.7128 164.321 104.358C164.321 116.003 154.878 125.446 143.233 125.446Z" fill="white"></path></mask><g mask="url(#mask15_301_698)"><path d="M150.836 99.8235C150.836 99.8235 152.409 99.6164 153.252 100.453" stroke="black" stroke-width="0.105403" stroke-miterlimit="10" stroke-linecap="round"></path></g><mask id="mask16_301_698" style="mask-type:luminance" maskUnits="userSpaceOnUse" x="122" y="83" width="43" height="43"><path d="M143.233 125.446C131.588 125.446 122.145 116.003 122.145 104.358C122.145 92.7128 131.588 83.2695 143.233 83.2695C154.878 83.2695 164.321 92.7128 164.321 104.358C164.321 116.003 154.878 125.446 143.233 125.446Z" fill="white"></path></mask><g mask="url(#mask16_301_698)"><path d="M126.256 111.207C126.256 111.207 126.678 110.156 127.522 110.156" stroke="black" stroke-width="0.105403" stroke-miterlimit="10" stroke-linecap="round"></path></g><mask id="mask17_301_698" style="mask-type:luminance" maskUnits="userSpaceOnUse" x="122" y="83" width="43" height="43"><path d="M143.233 125.446C131.588 125.446 122.145 116.003 122.145 104.358C122.145 92.7128 131.588 83.2695 143.233 83.2695C154.878 83.2695 164.321 92.7128 164.321 104.358C164.321 116.003 154.878 125.446 143.233 125.446Z" fill="white"></path></mask><g mask="url(#mask17_301_698)"><path d="M126.893 113.156C126.893 113.156 126.893 111.415 127.944 110.993" stroke="black" stroke-width="0.105403" stroke-miterlimit="10" stroke-linecap="round"></path></g><mask id="mask18_301_698" style="mask-type:luminance" maskUnits="userSpaceOnUse" x="122" y="83" width="43" height="43"><path d="M143.233 125.446C131.588 125.446 122.145 116.003 122.145 104.358C122.145 92.7128 131.588 83.2695 143.233 83.2695C154.878 83.2695 164.321 92.7128 164.321 104.358C164.321 116.003 154.878 125.446 143.233 125.446Z" fill="white"></path></mask><g mask="url(#mask18_301_698)"><path d="M141.016 113.318C141.016 113.318 143.125 113.318 143.969 111.845" stroke="black" stroke-width="0.105403" stroke-miterlimit="10" stroke-linecap="round"></path></g><mask id="mask19_301_698" style="mask-type:luminance" maskUnits="userSpaceOnUse" x="122" y="83" width="43" height="43"><path d="M143.233 125.446C131.588 125.446 122.145 116.003 122.145 104.358C122.145 92.7128 131.588 83.2695 143.233 83.2695C154.878 83.2695 164.321 92.7128 164.321 104.358C164.321 116.003 154.878 125.446 143.233 125.446Z" fill="white"></path></mask><g mask="url(#mask19_301_698)"><path d="M141.652 113.739C141.652 113.739 142.703 113.947 143.762 112.688" stroke="black" stroke-width="0.105403" stroke-miterlimit="10" stroke-linecap="round"></path></g><mask id="mask20_301_698" style="mask-type:luminance" maskUnits="userSpaceOnUse" x="122" y="83" width="43" height="43"><path d="M143.233 125.446C131.588 125.446 122.145 116.003 122.145 104.358C122.145 92.7128 131.588 83.2695 143.233 83.2695C154.878 83.2695 164.321 92.7128 164.321 104.358C164.321 116.003 154.878 125.446 143.233 125.446Z" fill="white"></path></mask><g mask="url(#mask20_301_698)"><path d="M142.703 113.953C142.703 113.953 143.202 113.953 143.693 113.324" stroke="black" stroke-width="0.105403" stroke-miterlimit="10" stroke-linecap="round"></path></g><mask id="mask21_301_698" style="mask-type:luminance" maskUnits="userSpaceOnUse" x="122" y="83" width="43" height="43"><path d="M143.233 125.446C131.588 125.446 122.145 116.003 122.145 104.358C122.145 92.7128 131.588 83.2695 143.233 83.2695C154.878 83.2695 164.321 92.7128 164.321 104.358C164.321 116.003 154.878 125.446 143.233 125.446Z" fill="white"></path></mask><g mask="url(#mask21_301_698)"><path d="M139.173 108.929C139.173 108.929 139.472 108.783 139.074 108.423C138.675 108.062 138.874 107.418 138.874 107.418C138.874 107.418 139.074 106.773 139.641 107.418C139.641 107.418 139.81 107.709 139.741 107.924C139.672 108.139 139.841 108.43 139.841 108.43C139.841 108.43 140.24 108.791 140.378 108.361C140.378 108.361 140.447 108.147 140.278 107.855C140.109 107.564 140.109 107.564 140.24 107.134C140.37 106.704 140.922 107.111 141.014 107.372C141.106 107.633 141.114 107.64 141.045 107.855C140.976 108.07 140.961 108.032 141.022 108.3C141.083 108.576 141.551 108.714 141.551 108.714L141.191 109.55L140.615 110.08L140.078 110.149L139.442 109.719L139.043 109.359L139.173 108.929Z" fill="black"></path></g><mask id="mask22_301_698" style="mask-type:luminance" maskUnits="userSpaceOnUse" x="122" y="83" width="43" height="43"><path d="M143.233 125.446C131.588 125.446 122.145 116.003 122.145 104.358C122.145 92.7128 131.588 83.2695 143.233 83.2695C154.878 83.2695 164.321 92.7128 164.321 104.358C164.321 116.003 154.878 125.446 143.233 125.446Z" fill="white"></path></mask><g mask="url(#mask22_301_698)"><path d="M136.92 101.226C137.831 100.638 138.213 99.6094 137.774 98.9297C137.335 98.2501 136.24 98.1764 135.329 98.7651C134.418 99.3538 134.036 100.382 134.475 101.062C134.914 101.741 136.009 101.815 136.92 101.226Z" fill="#EF8EA8" stroke="black" stroke-width="0.105403" stroke-miterlimit="10"></path><path d="M135.223 100.453C135.396 100.453 135.537 100.312 135.537 100.139C135.537 99.965 135.396 99.8242 135.223 99.8242C135.049 99.8242 134.908 99.965 134.908 100.139C134.908 100.312 135.049 100.453 135.223 100.453Z" fill="black" stroke="black" stroke-width="0.105403" stroke-miterlimit="10" stroke-linecap="round"></path><path d="M136.695 99.8244C136.869 99.8244 137.01 99.6835 137.01 99.5098C137.01 99.3361 136.869 99.1953 136.695 99.1953C136.522 99.1953 136.381 99.3361 136.381 99.5098C136.381 99.6835 136.522 99.8244 136.695 99.8244Z" fill="black" stroke="black" stroke-width="0.105403" stroke-miterlimit="10" stroke-linecap="round"></path></g><mask id="mask23_301_698" style="mask-type:luminance" maskUnits="userSpaceOnUse" x="122" y="83" width="43" height="43"><path d="M143.233 125.446C131.588 125.446 122.145 116.003 122.145 104.358C122.145 92.7128 131.588 83.2695 143.233 83.2695C154.878 83.2695 164.321 92.7128 164.321 104.358C164.321 116.003 154.878 125.446 143.233 125.446Z" fill="white"></path></mask><g mask="url(#mask23_301_698)"><path d="M153.903 108.677C153.903 108.677 149.454 108.884 148.395 108.47C147.344 108.048 147.766 109.099 147.766 109.099C147.766 109.099 147.137 109.943 147.973 110.15C147.973 110.15 147.973 110.994 148.395 111.201C148.817 111.408 149.553 113.096 153.826 112.574" fill="#FEFEFE"></path><path d="M153.903 108.677C153.903 108.677 149.454 108.884 148.395 108.47C147.344 108.048 147.766 109.099 147.766 109.099C147.766 109.099 147.137 109.943 147.973 110.15C147.973 110.15 147.973 110.994 148.395 111.201C148.817 111.408 149.553 113.096 153.826 112.574" stroke="black" stroke-width="0.105403" stroke-miterlimit="10"></path><path d="M148.397 109.314L147.768 109.1" stroke="black" stroke-width="0.105403" stroke-miterlimit="10" stroke-linecap="round"></path><path d="M148.61 110.157H147.98" stroke="black" stroke-width="0.105403" stroke-miterlimit="10" stroke-linecap="round"></path></g><mask id="mask24_301_698" style="mask-type:luminance" maskUnits="userSpaceOnUse" x="122" y="83" width="43" height="43"><path d="M143.233 125.446C131.588 125.446 122.145 116.003 122.145 104.358C122.145 92.7128 131.588 83.2695 143.233 83.2695C154.878 83.2695 164.321 92.7128 164.321 104.358C164.321 116.003 154.878 125.446 143.233 125.446Z" fill="white"></path></mask><g mask="url(#mask24_301_698)"><path d="M136.167 100.452C136.167 100.452 133.85 100.659 133.214 102.347C133.214 102.347 132.37 104.242 134.479 104.664C134.479 104.664 136.374 104.871 137.218 102.769C137.218 102.769 140.593 103.398 140.8 100.659C140.8 100.659 140.8 98.5499 138.484 98.9718C138.491 98.9795 137.433 99.1943 136.167 100.452Z" fill="white" stroke="black" stroke-width="0.105403" stroke-miterlimit="10"></path></g><mask id="mask25_301_698" style="mask-type:luminance" maskUnits="userSpaceOnUse" x="122" y="83" width="43" height="43"><path d="M143.233 125.446C131.588 125.446 122.145 116.003 122.145 104.358C122.145 92.7128 131.588 83.2695 143.233 83.2695C154.878 83.2695 164.321 92.7128 164.321 104.358C164.321 116.003 154.878 125.446 143.233 125.446Z" fill="white"></path></mask><g mask="url(#mask25_301_698)"><mask id="mask26_301_698" style="mask-type:luminance" maskUnits="userSpaceOnUse" x="132" y="98" width="9" height="7"><path d="M136.095 100.412C136.095 100.412 133.778 100.619 133.141 102.307C133.141 102.307 132.297 104.202 134.407 104.624C134.407 104.624 136.302 104.831 137.146 102.729C137.146 102.729 140.521 103.358 140.728 100.619C140.728 100.619 140.728 98.5098 138.411 98.9318C138.411 98.9394 137.36 99.1466 136.095 100.412Z" fill="white"></path></mask><g mask="url(#mask26_301_698)"><path d="M133.257 105.438C133.257 105.438 134.063 102.139 136.587 101.932C136.587 101.932 137.638 99.1935 141.65 100.459L141.021 97.5059L134.063 97.713L131.531 101.932L133.257 105.438Z" fill="#D9D3D0"></path></g></g><mask id="mask27_301_698" style="mask-type:luminance" maskUnits="userSpaceOnUse" x="122" y="83" width="43" height="43"><path d="M143.233 125.446C131.588 125.446 122.145 116.003 122.145 104.358C122.145 92.7128 131.588 83.2695 143.233 83.2695C154.878 83.2695 164.321 92.7128 164.321 104.358C164.321 116.003 154.878 125.446 143.233 125.446Z" fill="white"></path></mask><g mask="url(#mask27_301_698)"><path d="M136.145 100.361C136.145 100.361 133.829 100.568 133.192 102.255C133.192 102.255 132.348 104.15 134.458 104.572C134.458 104.572 136.353 104.779 137.196 102.677C137.196 102.677 140.572 103.306 140.779 100.568C140.779 100.568 140.779 98.4581 138.462 98.88C138.47 98.88 137.411 99.0948 136.145 100.361Z" stroke="black" stroke-width="0.105403" stroke-miterlimit="10"></path></g><mask id="mask28_301_698" style="mask-type:luminance" maskUnits="userSpaceOnUse" x="122" y="83" width="43" height="43"><path d="M143.233 125.446C131.588 125.446 122.145 116.003 122.145 104.358C122.145 92.7128 131.588 83.2695 143.233 83.2695C154.878 83.2695 164.321 92.7128 164.321 104.358C164.321 116.003 154.878 125.446 143.233 125.446Z" fill="white"></path></mask><g mask="url(#mask28_301_698)"><path d="M143.547 109.52C142.396 111.53 140.662 111.783 139.673 111.737C139.212 111.714 138.913 111.629 138.913 111.629C138.913 111.031 138.729 110.341 138.445 109.627C138.683 108.952 139.243 108.277 140.601 108.891C140.601 108.891 140.915 107.195 142.404 107.042C143.025 108.461 143.547 109.52 143.547 109.52Z" fill="#EF8EA8" stroke="black" stroke-width="0.105403" stroke-miterlimit="10"></path></g><mask id="mask29_301_698" style="mask-type:luminance" maskUnits="userSpaceOnUse" x="122" y="83" width="43" height="43"><path d="M143.233 125.446C131.588 125.446 122.145 116.003 122.145 104.358C122.145 92.7128 131.588 83.2695 143.233 83.2695C154.878 83.2695 164.321 92.7128 164.321 104.358C164.321 116.003 154.878 125.446 143.233 125.446Z" fill="white"></path></mask><g mask="url(#mask29_301_698)"><path d="M142.342 110.741L143.171 109.958L142.051 109.437L142.342 110.741Z" fill="white" stroke="black" stroke-width="0.105403" stroke-miterlimit="10" stroke-linecap="round"></path></g><mask id="mask30_301_698" style="mask-type:luminance" maskUnits="userSpaceOnUse" x="122" y="83" width="43" height="43"><path d="M143.233 125.446C131.588 125.446 122.145 116.003 122.145 104.358C122.145 92.7128 131.588 83.2695 143.233 83.2695C154.878 83.2695 164.321 92.7128 164.321 104.358C164.321 116.003 154.878 125.446 143.233 125.446Z" fill="white"></path></mask><g mask="url(#mask30_301_698)"><path d="M140.962 111.499L140.257 110.494L139.551 111.568L140.962 111.499Z" fill="white" stroke="black" stroke-width="0.105403" stroke-miterlimit="10" stroke-linecap="round"></path></g><mask id="mask31_301_698" style="mask-type:luminance" maskUnits="userSpaceOnUse" x="122" y="83" width="43" height="43"><path d="M143.233 125.446C131.588 125.446 122.145 116.003 122.145 104.358C122.145 92.7128 131.588 83.2695 143.233 83.2695C154.878 83.2695 164.321 92.7128 164.321 104.358C164.321 116.003 154.878 125.446 143.233 125.446Z" fill="white"></path></mask><g mask="url(#mask31_301_698)"><path d="M156.435 105.231C156.435 105.231 164.428 108.469 166.323 125.967H163.562C163.562 125.967 162.265 112.067 155.768 107.633C155.76 107.633 156.458 106.635 156.435 105.231Z" fill="#6E6E6E"></path></g><mask id="mask32_301_698" style="mask-type:luminance" maskUnits="userSpaceOnUse" x="122" y="83" width="43" height="43"><path d="M143.233 125.446C131.588 125.446 122.145 116.003 122.145 104.358C122.145 92.7128 131.588 83.2695 143.233 83.2695C154.878 83.2695 164.321 92.7128 164.321 104.358C164.321 116.003 154.878 125.446 143.233 125.446Z" fill="white"></path></mask><g mask="url(#mask32_301_698)"><path d="M155.209 103.337C155.209 103.337 156.421 93.8174 144.193 92.3445C144.193 92.3445 135.064 90.8716 129.188 98.2513C129.188 98.2513 123.526 106.291 128.375 113.655C128.375 113.655 130.062 116.386 134.91 116.386C134.91 116.386 134.489 116.8 135.118 117.015C135.118 117.015 133.645 122.078 136.383 125.768L166.324 125.875C166.324 125.875 164.89 109.497 156.436 105.14C156.444 105.132 156.528 103.368 155.209 103.337Z" stroke="black" stroke-width="0.105403" stroke-miterlimit="10"></path></g><mask id="mask33_301_698" style="mask-type:luminance" maskUnits="userSpaceOnUse" x="122" y="83" width="43" height="43"><path d="M143.233 125.446C131.588 125.446 122.145 116.003 122.145 104.358C122.145 92.7128 131.588 83.2695 143.233 83.2695C154.878 83.2695 164.321 92.7128 164.321 104.358C164.321 116.003 154.878 125.446 143.233 125.446Z" fill="white"></path></mask><g mask="url(#mask33_301_698)"><path d="M153.672 107.204C153.672 107.204 155.045 106.214 155.198 103.438" stroke="black" stroke-width="0.105403" stroke-miterlimit="10" stroke-linecap="round"></path></g><mask id="mask34_301_698" style="mask-type:luminance" maskUnits="userSpaceOnUse" x="122" y="83" width="43" height="43"><path d="M143.233 125.446C131.588 125.446 122.145 116.003 122.145 104.358C122.145 92.7128 131.588 83.2695 143.233 83.2695C154.878 83.2695 164.321 92.7128 164.321 104.358C164.321 116.003 154.878 125.446 143.233 125.446Z" fill="white"></path></mask><g mask="url(#mask34_301_698)"><path d="M154.939 108.676C154.939 108.676 156.251 107.686 156.435 105.231" stroke="black" stroke-width="0.105403" stroke-miterlimit="10" stroke-linecap="round"></path></g><mask id="mask35_301_698" style="mask-type:luminance" maskUnits="userSpaceOnUse" x="122" y="83" width="43" height="43"><path d="M143.233 125.446C131.588 125.446 122.145 116.003 122.145 104.358C122.145 92.7128 131.588 83.2695 143.233 83.2695C154.878 83.2695 164.321 92.7128 164.321 104.358C164.321 116.003 154.878 125.446 143.233 125.446Z" fill="white"></path></mask><g mask="url(#mask35_301_698)"><path d="M132.262 117.037L132.898 117.636C132.898 117.636 133.32 117.774 133.374 117.337C133.428 116.899 132.737 116.577 132.737 116.577" fill="black"></path></g><mask id="mask36_301_698" style="mask-type:luminance" maskUnits="userSpaceOnUse" x="122" y="83" width="43" height="43"><path d="M143.233 125.446C131.588 125.446 122.145 116.003 122.145 104.358C122.145 92.7128 131.588 83.2695 143.233 83.2695C154.878 83.2695 164.321 92.7128 164.321 104.358C164.321 116.003 154.878 125.446 143.233 125.446Z" fill="white"></path></mask><g mask="url(#mask36_301_698)"><path d="M149.363 108.676H154.027L154.204 112.788H152.731C152.731 112.788 152.731 112.995 151.887 112.366C151.043 111.737 152.355 111.215 151.703 110.839C151.036 110.471 150.008 110.893 149.363 108.676Z" fill="#6D6D6D"></path></g><mask id="mask37_301_698" style="mask-type:luminance" maskUnits="userSpaceOnUse" x="122" y="83" width="43" height="43"><path d="M143.233 125.446C131.588 125.446 122.145 116.003 122.145 104.358C122.145 92.7128 131.588 83.2695 143.233 83.2695C154.878 83.2695 164.321 92.7128 164.321 104.358C164.321 116.003 154.878 125.446 143.233 125.446Z" fill="white"></path></mask><g mask="url(#mask37_301_698)"><path d="M153.903 108.677C153.903 108.677 149.454 108.884 148.395 108.47C147.344 108.048 147.766 109.099 147.766 109.099C147.766 109.099 147.137 109.943 147.973 110.15C147.973 110.15 147.973 110.994 148.395 111.201C148.817 111.408 149.553 113.096 153.826 112.574" stroke="black" stroke-width="0.105403" stroke-miterlimit="10"></path><path d="M148.397 109.314L147.768 109.1" stroke="black" stroke-width="0.105403" stroke-miterlimit="10" stroke-linecap="round"></path><path d="M148.61 110.157H147.98" stroke="black" stroke-width="0.105403" stroke-miterlimit="10" stroke-linecap="round"></path></g><mask id="mask38_301_698" style="mask-type:luminance" maskUnits="userSpaceOnUse" x="122" y="83" width="43" height="43"><path d="M143.233 125.446C131.588 125.446 122.145 116.003 122.145 104.358C122.145 92.7128 131.588 83.2695 143.233 83.2695C154.878 83.2695 164.321 92.7128 164.321 104.358C164.321 116.003 154.878 125.446 143.233 125.446Z" fill="white"></path></mask><g mask="url(#mask38_301_698)"><path d="M152.432 108.615L152.47 109.919C152.47 109.919 152.769 110.51 153.291 110.111C153.812 109.712 153.421 108.638 153.421 108.638" fill="black"></path></g><mask id="mask39_301_698" style="mask-type:luminance" maskUnits="userSpaceOnUse" x="122" y="83" width="43" height="43"><path d="M143.233 125.446C131.588 125.446 122.145 116.003 122.145 104.358C122.145 92.7128 131.588 83.2695 143.233 83.2695C154.878 83.2695 164.321 92.7128 164.321 104.358C164.321 116.003 154.878 125.446 143.233 125.446Z" fill="white"></path></mask><g mask="url(#mask39_301_698)"><path d="M150.559 108.745L150.597 110.049C150.597 110.049 150.896 110.64 151.418 110.241C151.939 109.842 151.548 108.768 151.548 108.768" fill="black"></path></g><mask id="mask40_301_698" style="mask-type:luminance" maskUnits="userSpaceOnUse" x="122" y="83" width="43" height="43"><path d="M143.233 125.446C131.588 125.446 122.145 116.003 122.145 104.358C122.145 92.7128 131.588 83.2695 143.233 83.2695C154.878 83.2695 164.321 92.7128 164.321 104.358C164.321 116.003 154.878 125.446 143.233 125.446Z" fill="white"></path></mask><g mask="url(#mask40_301_698)"><path d="M130.789 96.555C130.789 96.555 131.817 97 131.832 95.6191L130.789 96.555Z" fill="black"></path></g><mask id="mask41_301_698" style="mask-type:luminance" maskUnits="userSpaceOnUse" x="122" y="83" width="43" height="43"><path d="M143.233 125.446C131.588 125.446 122.145 116.003 122.145 104.358C122.145 92.7128 131.588 83.2695 143.233 83.2695C154.878 83.2695 164.321 92.7128 164.321 104.358C164.321 116.003 154.878 125.446 143.233 125.446Z" fill="white"></path></mask><g mask="url(#mask41_301_698)"><path d="M133.543 94.4692C133.543 94.4692 135.645 96.9547 135.537 93.4873L133.543 94.4692Z" fill="black"></path></g><mask id="mask42_301_698" style="mask-type:luminance" maskUnits="userSpaceOnUse" x="122" y="83" width="43" height="43"><path d="M143.233 125.446C131.588 125.446 122.145 116.003 122.145 104.358C122.145 92.7128 131.588 83.2695 143.233 83.2695C154.878 83.2695 164.321 92.7128 164.321 104.358C164.321 116.003 154.878 125.446 143.233 125.446Z" fill="white"></path></mask><g mask="url(#mask42_301_698)"><path d="M137.777 92.7665C137.777 92.7665 138.767 94.132 139.841 92.3906L137.777 92.7665Z" fill="black"></path></g><mask id="mask43_301_698" style="mask-type:luminance" maskUnits="userSpaceOnUse" x="122" y="83" width="43" height="43"><path d="M143.233 125.446C131.588 125.446 122.145 116.003 122.145 104.358C122.145 92.7128 131.588 83.2695 143.233 83.2695C154.878 83.2695 164.321 92.7128 164.321 104.358C164.321 116.003 154.878 125.446 143.233 125.446Z" fill="white"></path></mask><g mask="url(#mask43_301_698)"><path d="M137.747 115.112C137.747 115.112 135.867 116.163 134.908 116.378" stroke="black" stroke-width="0.105403" stroke-miterlimit="10" stroke-linecap="round"></path></g><mask id="mask44_301_698" style="mask-type:luminance" maskUnits="userSpaceOnUse" x="122" y="83" width="43" height="43"><path d="M143.233 125.446C131.588 125.446 122.145 116.003 122.145 104.358C122.145 92.7128 131.588 83.2695 143.233 83.2695C154.878 83.2695 164.321 92.7128 164.321 104.358C164.321 116.003 154.878 125.446 143.233 125.446Z" fill="white"></path></mask><g mask="url(#mask44_301_698)"><path d="M137.227 116.056C137.227 116.056 135.769 116.892 135.125 116.999" stroke="black" stroke-width="0.105403" stroke-miterlimit="10" stroke-linecap="round"></path></g><mask id="mask45_301_698" style="mask-type:luminance" maskUnits="userSpaceOnUse" x="122" y="83" width="43" height="43"><path d="M143.233 125.446C131.588 125.446 122.145 116.003 122.145 104.358C122.145 92.7128 131.588 83.2695 143.233 83.2695C154.878 83.2695 164.321 92.7128 164.321 104.358C164.321 116.003 154.878 125.446 143.233 125.446Z" fill="white"></path></mask><g mask="url(#mask45_301_698)"><path d="M162.54 112.136L160.024 113.455C160.024 113.455 159.15 114.606 160.439 115.243C161.727 115.879 163.446 114.092 163.446 114.092" fill="black"></path></g><mask id="mask46_301_698" style="mask-type:luminance" maskUnits="userSpaceOnUse" x="122" y="83" width="43" height="43"><path d="M143.233 125.446C131.588 125.446 122.145 116.003 122.145 104.358C122.145 92.7128 131.588 83.2695 143.233 83.2695C154.878 83.2695 164.321 92.7128 164.321 104.358C164.321 116.003 154.878 125.446 143.233 125.446Z" fill="white"></path></mask><g mask="url(#mask46_301_698)"><path d="M159.933 108.009L157.593 109.819C157.593 109.819 156.903 111.162 158.345 111.576C159.779 111.99 161.214 109.85 161.214 109.85" fill="black"></path></g><mask id="mask47_301_698" style="mask-type:luminance" maskUnits="userSpaceOnUse" x="122" y="83" width="43" height="43"><path d="M143.233 125.446C131.588 125.446 122.145 116.003 122.145 104.358C122.145 92.7128 131.588 83.2695 143.233 83.2695C154.878 83.2695 164.321 92.7128 164.321 104.358C164.321 116.003 154.878 125.446 143.233 125.446Z" fill="white"></path></mask><g mask="url(#mask47_301_698)"><path d="M164.276 116.608L161.622 117.621C161.622 117.621 160.617 118.664 161.829 119.447C163.033 120.229 164.943 118.657 164.943 118.657" fill="black"></path></g><path d="M143.233 125.445C131.588 125.445 122.145 116.002 122.145 104.357C122.145 92.7118 131.588 83.2686 143.233 83.2686C154.878 83.2686 164.321 92.7118 164.321 104.357C164.321 116.002 154.878 125.445 143.233 125.445Z" stroke="#231F20" stroke-width="0.383562" stroke-miterlimit="10"></path></svg>