<svg xmlns="http://www.w3.org/2000/svg" width="250" height="250" viewBox="0 0 250 250" fill="none"><circle cx="125" cy="125" r="124.5" fill="#D5D9FF" stroke="black"></circle><path d="M118.703 116.858C118.703 116.858 120.909 144.977 156.592 152.907C198.512 148.902 213.03 137.805 213.03 137.805L197.329 101.714C197.329 88.957 124.713 89.5034 124.713 89.5034C124.713 89.5034 52.0966 88.9624 52.0966 101.714C52.0966 101.714 48.5374 116.858 118.703 116.858ZM205.704 134.601C205.704 134.601 192.82 115.299 171.396 114.153C171.396 114.153 186.932 113.819 193.966 108.583L205.704 134.601ZM58.9551 100.86C60.2971 99.9371 62.5938 99.0619 65.6916 98.2609C66.7259 97.9904 67.8451 97.7305 69.0545 97.4812C71.468 96.9773 74.2156 96.5105 77.2497 96.0808C78.7667 95.8687 80.358 95.6618 82.0182 95.4708C83.6785 95.2799 85.4024 95.0942 87.1847 94.9245C89.8633 94.6699 92.6799 94.4418 95.6132 94.2402C98.5465 94.0387 101.602 93.8689 104.753 93.731C106.853 93.6408 109.001 93.5613 111.187 93.4976C113.372 93.434 115.595 93.3862 117.849 93.3544C120.103 93.3226 122.395 93.3066 124.713 93.3066C142.09 93.3066 157.923 94.2402 169.836 95.7626C173.014 96.171 175.915 96.6219 178.488 97.1046C186.858 98.6853 191.818 100.643 191.818 102.764C191.818 104.886 186.858 106.843 178.488 108.424C175.91 108.912 173.014 109.358 169.836 109.766C157.918 111.294 142.09 112.222 124.713 112.222C122.395 112.222 120.109 112.206 117.849 112.174C115.595 112.143 113.367 112.095 111.187 112.031C109.001 111.967 106.858 111.888 104.753 111.798C101.602 111.66 98.5465 111.49 95.6132 111.289C92.6799 111.087 89.8633 110.859 87.1847 110.604C85.3971 110.435 83.6732 110.254 82.0182 110.058C80.358 109.867 78.772 109.66 77.2497 109.448C74.2156 109.018 71.468 108.551 69.0545 108.048C67.8504 107.798 66.7259 107.533 65.6916 107.268C62.5885 106.462 60.2971 105.592 58.9551 104.669C58.064 104.053 57.5919 103.417 57.5919 102.764C57.5919 102.112 58.0587 101.475 58.9551 100.86Z" fill="#EA6251"></path><path d="M213.024 137.805C213.024 137.805 198.511 148.896 156.586 152.906C163.307 154.407 171.21 155.182 180.519 154.911C205.486 150.169 214.918 143.464 214.918 143.464C218.015 139.863 213.024 137.805 213.024 137.805Z" fill="#EA6251"></path><path d="M57.5918 102.764C57.5918 103.417 58.0639 104.053 58.955 104.669C60.297 105.592 62.5938 106.467 65.6915 107.268C66.7258 107.538 67.845 107.798 69.0544 108.048C71.4679 108.551 74.2155 109.018 77.2496 109.448C78.7666 109.66 80.3579 109.867 82.0182 110.058C83.6784 110.249 85.4023 110.435 87.1846 110.604C89.8632 110.859 92.6798 111.087 95.6131 111.289C98.5464 111.49 101.602 111.66 104.752 111.798C106.853 111.888 109.001 111.967 111.187 112.031C113.372 112.095 115.594 112.143 117.849 112.174C120.103 112.206 122.395 112.222 124.713 112.222C142.09 112.222 157.923 111.289 169.836 109.766C173.014 109.358 175.915 108.907 178.488 108.424C186.858 106.843 191.817 104.886 191.817 102.764C191.817 100.643 186.858 98.6853 178.488 97.1046C175.91 96.6166 173.014 96.171 169.836 95.7626C157.918 94.2349 142.09 93.3066 124.713 93.3066C122.395 93.3066 120.108 93.3226 117.849 93.3544C115.594 93.3862 113.367 93.4339 111.187 93.4976C109.001 93.5613 106.858 93.6408 104.752 93.731C101.602 93.8689 98.5464 94.0386 95.6131 94.2402C92.6798 94.4418 89.8632 94.6699 87.1846 94.9245C85.397 95.0942 83.6731 95.2746 82.0182 95.4708C80.3579 95.6618 78.7719 95.8687 77.2496 96.0808C74.2155 96.5105 71.4679 96.9773 69.0544 97.4812C67.8503 97.7305 66.7258 97.9904 65.6915 98.2609C62.5885 99.0672 60.297 99.9371 58.955 100.86C58.0586 101.475 57.5918 102.112 57.5918 102.764Z" fill="#DB4942"></path><path d="M156.583 152.907C120.901 144.976 118.694 116.858 118.694 116.858C48.5342 116.858 52.088 101.714 52.088 101.714L36.3926 137.805C36.3926 137.805 58.0183 154.339 124.704 154.339C136.756 154.339 147.343 153.792 156.583 152.907Z" fill="#DB4942"></path><path d="M156.585 152.906C147.345 153.792 136.752 154.338 124.706 154.338C58.0255 154.338 36.3945 137.805 36.3945 137.805C36.3945 137.805 31.4084 139.863 34.4849 143.459C34.4849 143.459 57.0124 159.5 124.706 159.5C148.613 159.5 166.886 157.495 180.518 154.906C171.209 155.182 163.306 154.407 156.585 152.906Z" fill="#DB4942"></path><path d="M205.703 134.602L193.964 108.584C186.931 113.819 171.395 114.154 171.395 114.154C192.824 115.299 205.703 134.602 205.703 134.602Z" fill="#FF7F76"></path><path d="M124.705 112.221C161.772 112.221 191.821 107.987 191.821 102.763C191.821 97.54 161.772 93.3057 124.705 93.3057C87.6385 93.3057 57.5898 97.54 57.5898 102.763C57.5898 107.987 87.6385 112.221 124.705 112.221Z" stroke="#2D0707" stroke-width="1.02215" stroke-miterlimit="10" stroke-linecap="round" stroke-linejoin="round"></path><path d="M124.706 89.5033C124.706 89.5033 52.09 88.9623 52.09 101.714L36.3945 137.81" stroke="#2D0707" stroke-width="1.02215" stroke-miterlimit="10" stroke-linecap="round" stroke-linejoin="round"></path><path d="M36.3945 137.811C36.3945 137.811 58.0255 154.344 124.711 154.344" stroke="#2D0707" stroke-width="1.02215" stroke-miterlimit="10" stroke-linecap="round" stroke-linejoin="round"></path><path d="M36.3956 137.811C36.3956 137.811 31.4096 139.858 34.4967 143.465C34.4967 143.465 57.0241 159.5 124.712 159.5" stroke="#2D0707" stroke-width="1.02215" stroke-miterlimit="10" stroke-linecap="round" stroke-linejoin="round"></path><path d="M124.709 89.5033C124.709 89.5033 197.325 88.9623 197.325 101.714L213.026 137.81" stroke="#2D0707" stroke-width="1.02215" stroke-miterlimit="10" stroke-linecap="round" stroke-linejoin="round"></path><path d="M213.026 137.811C213.026 137.811 191.395 154.344 124.709 154.344" stroke="#2D0707" stroke-width="1.02215" stroke-miterlimit="10" stroke-linecap="round" stroke-linejoin="round"></path><path d="M213.026 137.811C213.026 137.811 218.012 139.858 214.925 143.465C214.925 143.465 192.397 159.5 124.709 159.5" stroke="#2D0707" stroke-width="1.02215" stroke-miterlimit="10" stroke-linecap="round" stroke-linejoin="round"></path><path d="M67.1922 128.723C66.0071 129.976 64.7542 131.129 63.4334 132.171C62.8595 132.608 62.1301 132.738 61.2157 132.518L61.215 132.518C60.512 132.351 59.9375 132.061 59.4863 131.644L59.4848 131.643C59.3474 131.518 59.2628 131.418 59.2185 131.343C59.1929 131.3 59.1873 131.277 59.186 131.269L59.1864 131.268C59.2195 131.148 59.3232 131.012 59.5793 130.87C60.7614 130.241 61.9827 129.426 63.2433 128.427L63.6926 128.071L63.126 127.984L61.7159 127.768C61.0319 127.627 60.7737 127.4 60.7141 127.184C60.6471 126.938 60.645 126.668 60.7162 126.369L60.7165 126.368C60.7602 126.18 60.8388 126.049 60.9361 125.962C61.0483 125.863 61.1384 125.832 61.2089 125.829C61.3273 125.825 61.4655 125.838 61.6252 125.871L61.6374 125.874L61.6499 125.875L65.5327 126.3L65.6516 126.313L65.7364 126.228C67.8019 124.168 68.9595 123.021 69.2159 122.78L69.216 122.78C69.4747 122.537 69.7059 122.347 69.9266 122.205C70.4705 121.866 70.9308 121.77 71.3252 121.865L71.3269 121.865C71.5941 121.928 71.8317 122.096 72.0372 122.395L72.0375 122.395C72.1082 122.498 72.1197 122.58 72.1008 122.662C72.0727 122.778 71.9985 122.944 71.8607 123.165C71.7244 123.383 71.534 123.643 71.2863 123.946C71.2862 123.946 71.2861 123.946 71.286 123.946L69.3239 126.327L69.029 126.685L69.4901 126.735L73.6752 127.186L73.7864 127.198L73.8695 127.123C75.3978 125.743 76.432 124.836 76.9877 124.39C77.5548 123.936 78.024 123.589 78.3966 123.345C78.7774 123.096 79.0329 122.971 79.1797 122.937L79.1811 122.937C79.9133 122.762 80.3706 122.729 80.6047 122.783C80.8729 122.846 80.9035 122.933 80.9083 122.96C80.9324 123.096 80.9202 123.224 80.8699 123.347C80.8167 123.478 80.7007 123.654 80.4974 123.878C80.2877 124.109 80.0191 124.393 79.6913 124.732L77.1773 127.32L76.9012 127.604L77.2766 127.731C77.653 127.858 77.8248 127.996 77.8897 128.116L77.8897 128.116L77.891 128.119C78.0442 128.396 78.0828 128.811 77.9407 129.415L77.9406 129.416C77.8461 129.822 77.7081 130.186 77.5314 130.513C77.4884 130.514 77.4203 130.506 77.3215 130.483C76.9599 130.305 76.2225 130.091 75.1543 129.839L75.0011 129.803L74.9023 129.926C73.5538 131.599 72.5141 133.136 71.7931 134.54C71.6323 134.848 71.3772 135.046 71.0059 135.138C70.6235 135.232 70.1118 135.213 69.4576 135.059C68.357 134.797 67.8363 134.401 67.698 133.946L67.6981 133.946L67.6953 133.938C67.6418 133.781 67.6483 133.663 67.6856 133.57C67.7354 133.446 67.8443 133.267 68.037 133.039L68.037 133.039L68.0391 133.037C68.2304 132.804 68.4861 132.517 68.8073 132.175C68.8075 132.174 68.8078 132.174 68.808 132.174L69.9242 131.005L71.2806 129.632L71.6262 129.283L71.1401 129.209L67.4112 128.647L67.282 128.628L67.1922 128.723ZM77.5621 130.511C77.5635 130.51 77.5643 130.51 77.5643 130.51C77.5644 130.51 77.5637 130.51 77.5621 130.511Z" fill="#FFFCFB" stroke="black" stroke-width="0.5"></path><path d="M81.884 132.681L81.884 132.682C81.8538 132.882 81.8954 133.079 82.0445 133.232C82.1819 133.372 82.3795 133.442 82.5915 133.475L82.592 133.475C83.0596 133.547 83.6731 133.351 84.3978 132.973C85.1357 132.588 86.038 131.986 87.1034 131.173C87.1037 131.173 87.1041 131.173 87.1044 131.172L88.1297 130.406C88.4754 130.157 88.7507 129.98 88.9591 129.869C89.0636 129.814 89.1452 129.778 89.2062 129.759C89.2628 129.74 89.2856 129.741 89.2856 129.741C89.2856 129.741 89.2855 129.741 89.2854 129.741C89.4561 129.769 89.5917 129.818 89.6999 129.886C89.8221 129.963 89.9236 130.051 90.0063 130.152L90.0067 130.152C90.1826 130.364 90.2299 130.544 90.2065 130.697C90.1722 130.923 90.1077 131.168 90.0149 131.446C89.9239 131.719 89.7959 132.022 89.6339 132.362L89.6338 132.362C89.3338 132.993 88.8376 133.83 88.1398 134.882C88.1397 134.882 88.1396 134.883 88.1395 134.883L87.6362 135.635L87.9822 135.982L89.7614 134.802L93.3802 132.548C93.7231 132.362 93.9529 132.315 94.0878 132.335C94.2853 132.364 94.3807 132.427 94.4268 132.487C94.4713 132.545 94.5047 132.645 94.4765 132.83L94.4764 132.83C94.4215 133.198 94.0911 133.693 93.3854 134.319L93.3853 134.319L93.3814 134.323C93.1757 134.514 92.9537 134.686 92.7197 134.843L90.2629 136.4L85.48 139.338L85.48 139.338L85.4764 139.34C85.0533 139.61 84.7214 139.827 84.4947 139.999L84.4732 140.015L84.4556 140.035C84.1682 140.371 83.9556 140.614 83.808 140.767L83.8079 140.767L83.8051 140.77C83.6499 140.936 83.4917 141.11 83.3326 141.308C83.1854 141.485 83.0441 141.636 82.9142 141.761C82.6341 142.022 82.4332 142.082 82.2965 142.062C82.102 142.031 81.9149 141.925 81.7345 141.709L81.7338 141.708C81.3484 141.25 81.2395 140.933 81.2697 140.734C81.3108 140.465 81.4373 140.147 81.6618 139.769C81.8892 139.386 82.1807 138.959 82.5386 138.47L85.041 135.167L84.7042 134.807C83.6371 135.509 82.8371 135.94 82.2955 136.126C81.7282 136.313 81.2711 136.419 80.9202 136.453C80.5635 136.483 80.1862 136.473 79.7987 136.413C79.4239 136.355 79.1206 136.23 78.8788 136.043C78.6261 135.848 78.4279 135.611 78.2862 135.333C78.008 134.771 77.9229 134.068 78.0553 133.208L78.0554 133.207C78.192 132.296 78.5616 131.432 79.1614 130.606L79.1615 130.606L79.1626 130.605C79.7414 129.795 80.4336 129.181 81.2332 128.766L81.2332 128.766L81.2346 128.765C82.0817 128.319 82.8979 128.164 83.6743 128.282L83.6746 128.282C84.071 128.342 84.3105 128.459 84.4413 128.597C84.5616 128.724 84.6203 128.903 84.5787 129.175C84.5566 129.318 84.4616 129.52 84.2509 129.785C84.0433 130.046 83.7397 130.348 83.3329 130.693C82.5007 131.397 81.9784 132.059 81.884 132.681Z" fill="#FFFCFB" stroke="black" stroke-width="0.5"></path><path d="M101.142 134.642L101.142 134.642C100.912 134.739 99.6262 135.26 97.2882 136.198L101.142 134.642ZM101.142 134.642L101.144 134.642M101.142 134.642L101.144 134.642M101.144 134.642L101.553 134.467L101.562 134.463M101.144 134.642L101.562 134.463M101.562 134.463L101.57 134.458M101.562 134.463L101.57 134.458M101.57 134.458C101.789 134.343 101.969 134.229 102.095 134.115C102.211 134.009 102.339 133.851 102.318 133.649L102.318 133.649M101.57 134.458L102.318 133.649M102.318 133.649L102.318 133.646M102.318 133.649L102.318 133.646M102.318 133.646C102.296 133.454 102.233 133.268 102.09 133.139C101.94 133.004 101.749 132.972 101.562 132.997C101.275 133.03 100.973 133.085 100.663 133.161C100.355 133.237 100.026 133.328 99.6805 133.442C98.9647 133.666 98.325 133.897 97.7684 134.14L97.7684 134.14M102.318 133.646L97.7684 134.14M97.7684 134.14L97.764 134.142M97.7684 134.14L97.764 134.142M97.764 134.142C97.5649 134.234 97.374 134.322 97.1912 134.406C95.6183 135.129 94.6499 135.574 94.2954 135.747L94.2249 135.781M97.764 134.142L94.2249 135.781M94.2249 135.781L94.1866 135.849M94.2249 135.781L94.1866 135.849M94.1866 135.849C93.8599 136.433 93.5653 137.012 93.2974 137.59L93.2972 137.591M94.1866 135.849L93.2972 137.591M93.2972 137.591L91.8817 140.66C91.8816 140.661 91.8815 140.661 91.8813 140.661C91.4372 141.607 91.0438 142.196 90.7003 142.47L90.7003 142.47M93.2972 137.591L90.7003 142.47M90.7003 142.47L90.6971 142.473M90.7003 142.47L90.6971 142.473M90.6971 142.473C90.5275 142.612 90.3736 142.659 90.2102 142.645C89.692 142.597 89.3242 142.387 89.0743 142.016C88.8144 141.631 88.7015 141.166 88.7553 140.594C88.8115 139.995 88.9445 139.411 89.1497 138.842C89.362 138.267 89.6315 137.692 89.9691 137.11L89.9696 137.109M90.6971 142.473L89.9696 137.109M89.9696 137.109C90.6458 135.934 91.5103 134.86 92.5599 133.878L92.5941 133.846M89.9696 137.109L92.5941 133.846M92.5941 133.846L92.6144 133.804M92.5941 133.846L92.6144 133.804M92.6144 133.804C93.3298 132.316 94.4272 130.899 95.9142 129.553C96.8203 128.736 97.6334 128.189 98.3488 127.902L98.3502 127.901M92.6144 133.804L98.3502 127.901M98.3502 127.901C98.7085 127.755 98.9795 127.706 99.1791 127.723C99.3899 127.74 99.5124 127.802 99.5816 127.87C99.6504 127.946 99.6758 128.025 99.667 128.119C99.6555 128.242 99.5975 128.421 99.4758 128.66L99.6985 128.773L99.4758 128.66C99.3546 128.897 99.1912 129.168 98.9846 129.462L98.9846 129.462M98.3502 127.901L98.9846 129.462M98.9846 129.462L98.9818 129.467M98.9846 129.462L98.9818 129.467M98.9818 129.467C98.7805 129.766 98.5416 130.083 98.2695 130.418L97.3953 131.467L97.3953 131.467M98.9818 129.467L97.3953 131.467M97.3953 131.467L97.3933 131.469L97.3953 131.467ZM97.6393 132.316L97.6393 132.316C97.5422 132.305 97.4245 132.274 97.3343 132.184C97.2357 132.085 97.2121 131.96 97.2215 131.851C97.2215 131.85 97.2216 131.849 97.2217 131.848L97.6393 132.316ZM97.6393 132.316L97.642 132.316M97.6393 132.316L97.642 132.316M97.642 132.316C97.7653 132.328 97.9159 132.305 98.0752 132.266M97.642 132.316L98.0752 132.266M105.415 131.955L105.415 131.954C104.951 131.351 104.457 131.056 103.924 131.006L105.415 131.955ZM105.415 131.955C105.882 132.561 106.068 133.163 106.016 133.769C105.928 134.738 105.471 135.436 104.636 135.883L104.635 135.884M105.415 131.955L104.635 135.884M104.635 135.884L103.418 136.54C102.982 136.761 102.536 136.976 102.079 137.186L100.678 137.794C99.1104 138.432 97.9599 138.692 97.2014 138.624C96.3904 138.551 95.859 138.396 95.5573 138.193C95.4062 138.092 95.3113 137.986 95.2558 137.879C95.2016 137.775 95.1777 137.656 95.1893 137.513C95.2316 137.16 95.5504 136.817 96.3828 136.532M104.635 135.884L96.3828 136.532M96.3828 136.532C96.601 136.461 96.9027 136.353 97.288 136.198L96.3828 136.532ZM98.0752 132.266C98.2406 132.226 98.4394 132.164 98.6694 132.08M98.0752 132.266L98.6694 132.08M98.6694 132.08C98.6696 132.08 98.6699 132.079 98.6702 132.079M98.6694 132.08L98.6702 132.079M98.6702 132.079L100.215 131.529C100.215 131.529 100.216 131.529 100.216 131.529C101.542 131.072 102.778 130.899 103.924 131.006L98.6702 132.079Z" fill="#FFFCFB" stroke="black" stroke-width="0.5"></path><path d="M119.061 133.429L119.062 133.429C119.163 133.433 119.195 133.462 119.207 133.476C119.223 133.497 119.252 133.553 119.245 133.688C119.237 133.861 119.168 134.106 119.008 134.418L119.008 134.418L119.005 134.422C118.856 134.726 118.641 135.01 118.363 135.274C118.072 135.549 117.739 135.835 117.357 136.133L117.356 136.134C116.982 136.43 116.544 136.739 116.039 137.065C115.538 137.388 114.988 137.703 114.383 138.018C113.783 138.331 113.147 138.608 112.473 138.848L112.472 138.848C110.986 139.385 109.57 139.622 108.218 139.566L108.217 139.566C107.203 139.525 106.336 139.222 105.605 138.672C104.848 138.099 104.515 137.45 104.543 136.722C104.592 135.523 105.285 134.381 106.694 133.298C107.914 132.364 109.339 131.656 110.966 131.181C111.96 130.894 112.78 130.768 113.433 130.793L113.433 130.793C113.945 130.813 114.36 130.958 114.69 131.208C115.023 131.47 115.173 131.806 115.156 132.225L115.156 132.225C115.142 132.552 114.998 132.912 114.688 133.308C114.378 133.705 113.911 134.126 113.278 134.572L113.278 134.572L113.276 134.573C113.073 134.718 112.895 134.836 112.739 134.926L112.739 134.926L112.734 134.929L112.389 135.142L112.389 135.142L112.386 135.144C111.765 135.538 110.824 135.982 109.536 136.462L109.042 136.647L109.498 136.912C109.905 137.15 110.305 137.283 110.694 137.302C111.052 137.318 111.381 137.291 111.686 137.209C111.974 137.137 112.292 137.032 112.649 136.892C113.004 136.752 113.381 136.591 113.784 136.397C114.188 136.203 114.596 135.988 115.009 135.752C115.932 135.232 116.734 134.688 117.424 134.133L117.424 134.133L117.429 134.129C117.752 133.854 118.163 133.636 118.669 133.479C118.835 133.441 118.962 133.425 119.061 133.429ZM108.442 135.424L108.513 135.718L108.788 135.593L109.313 135.354L109.313 135.354L109.316 135.353C109.487 135.273 109.644 135.197 109.781 135.125L109.782 135.125C110.424 134.791 110.931 134.519 111.301 134.31C111.66 134.106 111.914 133.95 112.027 133.85C112.122 133.766 112.201 133.688 112.26 133.616C112.309 133.555 112.378 133.458 112.387 133.342L112.388 133.332V133.323C112.388 133.231 112.373 133.117 112.319 132.995C112.28 132.906 112.227 132.795 112.146 132.698C111.977 132.486 111.762 132.333 111.493 132.325C111.297 132.319 111.088 132.344 110.866 132.402C110.64 132.46 110.419 132.545 110.203 132.645L110.203 132.645L110.198 132.647C109.979 132.754 109.76 132.883 109.551 133.036C109.341 133.189 109.153 133.36 108.993 133.537C108.637 133.926 108.407 134.316 108.393 134.693C108.382 134.989 108.397 135.238 108.442 135.424Z" fill="#FFFCFB" stroke="black" stroke-width="0.5"></path><path d="M144.066 135.616C144.327 135.602 144.634 135.475 144.975 135.277C145.323 135.074 145.734 134.781 146.209 134.4L146.209 134.4L146.212 134.398C147.034 133.715 147.554 133.263 147.732 133.064C148.062 132.756 148.398 132.605 148.749 132.588L148.751 132.588C148.868 132.581 148.965 132.614 149.047 132.683C149.109 132.735 149.168 132.838 149.181 133.044C149.194 133.243 149.156 133.42 149.072 133.58L149.071 133.582C148.973 133.772 148.844 133.971 148.677 134.183C148.506 134.402 148.304 134.645 148.05 134.914L148.048 134.916C147.799 135.187 147.512 135.474 147.182 135.777L147.181 135.778C146.859 136.08 146.499 136.382 146.105 136.692C145.715 136.994 145.315 137.269 144.896 137.517C143.953 138.072 143.111 138.356 142.361 138.401C141.941 138.425 141.602 138.349 141.329 138.189C141.057 138.029 140.833 137.773 140.662 137.405L140.661 137.404C140.46 136.972 140.333 136.437 140.297 135.788L140.271 135.316L139.896 135.603L137.291 137.592L137.291 137.592L137.288 137.595C136.398 138.299 135.69 138.837 135.162 139.211C134.898 139.398 134.682 139.541 134.512 139.644C134.336 139.75 134.229 139.8 134.175 139.816L134.175 139.816L134.172 139.817C134.016 139.864 133.856 139.892 133.689 139.902L133.689 139.902C133.528 139.911 133.369 139.902 133.216 139.882C133.087 139.866 132.974 139.824 132.866 139.764L132.866 139.763L132.858 139.76C132.641 139.647 132.538 139.488 132.521 139.248C132.52 139.215 132.53 139.131 132.564 138.973C132.596 138.82 132.648 138.618 132.718 138.364L133.391 136.123L133.391 136.123L133.392 136.12C133.496 135.757 133.574 135.464 133.626 135.242C133.675 135.033 133.708 134.856 133.704 134.747L133.704 134.738L133.703 134.729C133.695 134.655 133.661 134.566 133.576 134.502C133.495 134.442 133.404 134.433 133.336 134.439C133.244 134.447 133.157 134.495 133.095 134.534C133.025 134.579 132.945 134.641 132.859 134.718C132.696 134.859 132.497 135.043 132.272 135.262L132.272 135.263L130.168 137.324L129.063 138.354C127.935 139.366 127.042 139.843 126.385 139.881L126.385 139.881C126.109 139.897 125.802 139.793 125.456 139.52L125.456 139.52L125.454 139.518C125.097 139.245 124.921 138.917 124.899 138.525C124.873 138.068 124.888 137.562 124.946 137.01C125.003 136.459 125.096 135.926 125.235 135.411C125.375 134.892 125.546 134.408 125.761 133.957C125.976 133.507 126.225 133.111 126.507 132.774L126.507 132.774C127.108 132.053 127.831 131.676 128.684 131.628C129.132 131.602 129.429 131.653 129.61 131.746C129.769 131.829 129.847 131.948 129.858 132.135L129.858 132.135L129.858 132.137C129.863 132.214 129.848 132.333 129.798 132.505C129.748 132.673 129.67 132.878 129.561 133.122L129.561 133.122L129.56 133.124C129.321 133.674 129.141 134.098 129.021 134.396C128.961 134.545 128.915 134.666 128.884 134.756C128.868 134.801 128.855 134.841 128.846 134.876C128.84 134.9 128.825 134.955 128.829 135.011C128.838 135.154 128.895 135.288 129.012 135.382C129.104 135.455 129.223 135.504 129.359 135.494C129.488 135.488 129.609 135.431 129.714 135.363C129.824 135.292 129.94 135.193 130.06 135.072C131.578 133.587 132.529 132.667 132.918 132.31C133.304 131.956 133.679 131.648 134.044 131.371C134.886 130.751 135.52 130.461 135.963 130.434L135.963 130.434C136.363 130.409 136.672 130.46 136.902 130.557C137.358 130.765 137.488 130.967 137.496 131.121C137.511 131.402 137.491 131.734 137.43 132.107C137.367 132.491 137.299 132.868 137.221 133.222C137.22 133.222 137.22 133.223 137.22 133.223L136.999 134.184C136.928 134.465 136.89 134.704 136.896 134.888L136.896 134.888L136.897 134.897C136.904 134.996 136.931 135.118 137.021 135.213C137.119 135.318 137.247 135.344 137.36 135.335C137.487 135.327 137.615 135.277 137.736 135.211C137.861 135.142 137.999 135.046 138.148 134.927C138.445 134.688 138.807 134.34 139.232 133.889C139.232 133.889 139.232 133.889 139.232 133.888L140.084 132.995C140.567 132.506 140.99 132.144 141.35 131.903C141.716 131.657 141.994 131.553 142.192 131.543L142.196 131.543C142.374 131.531 142.544 131.592 142.708 131.739C143.064 132.059 143.189 132.293 143.198 132.449L143.198 132.449L143.198 132.452C143.205 132.541 143.178 132.696 143.095 132.935L143.095 132.935L143.092 132.942C142.945 133.411 142.856 133.791 142.869 134.058L142.869 134.061C142.897 134.534 142.991 134.928 143.186 135.205C143.395 135.5 143.7 135.637 144.066 135.616ZM144.066 135.616C144.066 135.616 144.066 135.616 144.066 135.616L144.052 135.367L144.066 135.616C144.066 135.616 144.066 135.616 144.066 135.616ZM140.048 135.802L140.199 136L140.071 136.099C140.061 136.002 140.053 135.903 140.048 135.802ZM140.048 135.802L139.798 135.816C139.801 135.872 139.805 135.928 139.809 135.984L140.048 135.802Z" fill="#FFFCFB" stroke="black" stroke-width="0.5"></path><path d="M160.421 130.558L160.419 130.559C160.323 130.57 160.203 130.606 160.059 130.681L160.056 130.683L160.056 130.683C159.581 130.92 159.207 131.203 158.93 131.528L158.927 131.532L158.927 131.532C158.338 132.197 157.633 132.859 156.807 133.523L156.806 133.524C156.438 133.818 156.073 134.097 155.707 134.355C155.341 134.614 154.995 134.835 154.666 135.029L154.665 135.03C154.342 135.218 154.041 135.377 153.768 135.494M160.421 130.558L153.669 135.265M160.421 130.558C160.523 130.546 160.56 130.569 160.574 130.581C160.593 130.598 160.63 130.649 160.645 130.784L160.645 130.784L160.645 130.786C160.666 130.957 160.635 131.204 160.528 131.546C160.426 131.87 160.26 132.185 160.031 132.494M160.421 130.558L150.716 138.369M153.768 135.494C153.768 135.494 153.768 135.494 153.768 135.494L153.669 135.265M153.768 135.494C153.769 135.494 153.769 135.494 153.769 135.494L153.669 135.265M153.768 135.494C153.486 135.618 153.159 135.696 152.809 135.741L152.806 135.741L152.806 135.741C152.423 135.784 152.006 135.716 151.566 135.552L151.069 135.367L151.528 135.101C152.717 134.414 153.575 133.831 154.123 133.339L154.128 133.334L154.128 133.334L154.435 133.075L154.597 133.265M153.669 135.265C153.415 135.376 153.112 135.45 152.778 135.493C152.532 135.52 152.264 135.496 151.975 135.42C151.91 135.458 151.845 135.496 151.779 135.534L151.653 135.318L151.741 135.083C151.809 135.109 151.875 135.131 151.94 135.151C152.988 134.532 153.769 133.992 154.29 133.525L154.597 133.265M154.597 133.265L154.436 133.074L154.435 133.075M154.597 133.265C154.746 133.138 154.905 132.989 155.085 132.809L154.435 133.075M154.435 133.075C154.578 132.952 154.732 132.809 154.909 132.632L154.91 132.63C156.03 131.532 156.461 130.67 156.381 130.012L156.381 130.011C156.332 129.592 156.129 129.286 155.756 129.082M154.435 133.075L146.381 136.188M155.756 129.082C155.756 129.082 155.756 129.082 155.756 129.082L155.876 128.862L155.756 129.082C155.756 129.082 155.756 129.082 155.756 129.082ZM155.756 129.082C155.39 128.883 154.962 128.808 154.448 128.872L154.446 128.872C153.795 128.947 153.012 129.205 152.074 129.65M152.074 129.65C152.074 129.65 152.075 129.65 152.075 129.65L151.966 129.425L152.074 129.65C152.074 129.65 152.074 129.65 152.074 129.65ZM152.074 129.65C150.545 130.386 149.256 131.313 148.202 132.434L148.202 132.434C146.98 133.728 146.487 134.968 146.629 136.158M146.629 136.158C146.629 136.158 146.629 136.157 146.629 136.157L146.381 136.188M146.629 136.158C146.629 136.158 146.629 136.158 146.629 136.158L146.381 136.188M146.629 136.158C146.718 136.88 147.151 137.464 147.993 137.908M146.381 136.188C146.482 137.01 146.98 137.657 147.877 138.129M147.993 137.908C147.993 137.908 147.993 137.908 147.993 137.908L147.877 138.129M147.993 137.908C148.804 138.333 149.707 138.491 150.716 138.369M147.993 137.908C147.993 137.908 147.993 137.908 147.993 137.908L147.877 138.129M147.877 138.129L150.716 138.369M150.716 138.369C150.716 138.369 150.716 138.369 150.716 138.369L150.746 138.617L150.717 138.369C150.716 138.369 150.716 138.369 150.716 138.369ZM150.716 138.369C152.059 138.204 153.423 137.743 154.799 136.972L154.8 136.972C155.422 136.627 156.006 136.251 156.548 135.844C157.094 135.435 157.587 135.031 158.032 134.633C158.478 134.234 158.859 133.858 159.181 133.505C159.506 133.149 159.787 132.816 160.031 132.494M160.031 132.494C160.03 132.495 160.03 132.495 160.03 132.495L160.231 132.644L160.031 132.493C160.031 132.494 160.031 132.494 160.031 132.494ZM150.259 134.237L150.373 134.525L150.631 134.353L151.108 134.035L151.108 134.035L151.111 134.033C151.268 133.925 151.409 133.822 151.532 133.731L151.532 133.731C152.114 133.297 152.571 132.947 152.902 132.68C153.224 132.42 153.447 132.225 153.543 132.109C153.625 132.01 153.691 131.919 153.737 131.839C153.759 131.799 153.78 131.756 153.795 131.713C153.809 131.673 153.823 131.616 153.817 131.552L153.817 131.542L153.815 131.532C153.799 131.433 153.76 131.331 153.701 131.228L153.701 131.227L153.698 131.221C153.641 131.126 153.567 131.03 153.473 130.95C153.273 130.77 153.04 130.655 152.774 130.688L152.773 130.688C152.579 130.713 152.376 130.774 152.164 130.866L152.164 130.866L152.162 130.867C151.955 130.959 151.744 131.079 151.545 131.221C151.35 131.361 151.152 131.524 150.97 131.712C150.79 131.898 150.636 132.091 150.505 132.296C150.215 132.739 150.052 133.158 150.101 133.53C150.139 133.825 150.19 134.06 150.259 134.237Z" fill="#FFFCFB" stroke="black" stroke-width="0.5"></path><path d="M177.574 130.626L177.572 130.627C177.212 130.691 176.892 130.593 176.648 130.327C176.419 130.077 176.275 129.699 176.189 129.234M177.574 130.626L176.189 129.232C176.189 129.233 176.189 129.233 176.189 129.234M177.574 130.626C177.83 130.578 178.119 130.412 178.432 130.173C178.751 129.93 179.121 129.588 179.542 129.154L179.542 129.154M177.574 130.626L179.542 129.154M176.189 129.234C176.136 128.96 176.18 128.572 176.297 128.087M176.189 129.234C176.189 129.234 176.189 129.234 176.189 129.235L176.297 128.087M176.297 128.087C176.348 127.842 176.354 127.682 176.338 127.595L176.337 127.593C176.309 127.437 176.155 127.221 175.761 126.947L175.761 126.947C175.582 126.822 175.405 126.784 175.23 126.818L175.227 126.818L175.227 126.818C175.028 126.854 174.766 126.994 174.435 127.284C174.108 127.57 173.735 127.982 173.314 128.526L172.579 129.52C172.579 129.52 172.579 129.52 172.578 129.521C172.215 130.02 171.9 130.41 171.634 130.684C171.501 130.821 171.376 130.934 171.26 131.017C171.148 131.099 171.026 131.166 170.899 131.189L170.897 131.189C170.79 131.208 170.66 131.197 170.551 131.109C170.448 131.027 170.405 130.909 170.386 130.808C170.352 130.626 170.362 130.382 170.399 130.092L170.5 129.111C170.531 128.743 170.557 128.361 170.568 127.976C170.578 127.597 170.557 127.271 170.508 126.989C170.476 126.834 170.32 126.65 169.844 126.504C169.602 126.434 169.289 126.425 168.896 126.499L168.895 126.5C168.457 126.581 167.866 126.949 167.107 127.671L176.297 128.087ZM179.542 129.154L179.545 129.151M179.542 129.154L179.545 129.151M179.545 129.151C180.274 128.37 180.735 127.858 180.889 127.635C181.175 127.29 181.494 127.097 181.836 127.036L181.837 127.035M179.545 129.151L181.837 127.035M181.837 127.035C181.951 127.015 182.051 127.035 182.145 127.095C182.215 127.14 182.285 127.235 182.32 127.433C182.356 127.632 182.342 127.815 182.279 127.987C182.206 128.187 182.101 128.402 181.964 128.636C181.826 128.871 181.65 129.136 181.434 129.441C181.222 129.741 180.972 130.059 180.683 130.406C180.395 130.746 180.081 131.096 179.732 131.445C179.383 131.794 179.02 132.121 178.637 132.416L178.637 132.416M181.837 127.035L178.637 132.416M178.637 132.416C177.772 133.084 176.97 133.47 176.235 133.609C175.819 133.684 175.472 133.652 175.182 133.528C174.893 133.404 174.639 133.179 174.425 132.832L174.425 132.832M178.637 132.416L174.425 132.832M174.425 132.832L174.423 132.83M174.425 132.832L174.423 132.83M174.423 132.83C174.169 132.428 173.977 131.915 173.864 131.276L173.782 130.808M174.423 132.83L173.782 130.808M173.782 130.808L173.443 131.141M173.782 130.808L173.443 131.141M173.443 131.141L171.109 133.438L171.109 133.438M173.443 131.141L171.109 133.438M171.109 133.438L171.106 133.441M171.109 133.438L171.106 133.441M171.106 133.441C170.311 134.252 169.677 134.874 169.201 135.31C168.963 135.529 168.767 135.699 168.612 135.821C168.451 135.949 168.351 136.012 168.3 136.033L168.3 136.033M171.106 133.441L168.3 136.033M168.3 136.033L168.298 136.034M168.3 136.033L168.298 136.034M168.298 136.034C168.142 136.102 167.986 136.154 167.83 136.181C167.662 136.211 167.505 136.225 167.362 136.22C167.224 136.216 167.099 136.189 166.996 136.148L166.996 136.148M168.298 136.034L166.996 136.148M166.996 136.148L166.987 136.144M166.996 136.148L166.987 136.144M166.987 136.144C166.76 136.064 166.635 135.915 166.592 135.68C166.588 135.649 166.586 135.564 166.6 135.402C166.613 135.246 166.639 135.039 166.678 134.78L167.065 132.475L167.065 132.475M166.987 136.144L167.065 132.475M167.065 132.475L167.065 132.472M167.065 132.475L167.065 132.472M167.065 132.472C167.124 132.099 167.164 131.798 167.187 131.57C167.208 131.355 167.217 131.174 167.196 131.062L167.197 131.062M167.065 132.472L167.197 131.062M167.197 131.062L167.195 131.053M167.197 131.062L167.195 131.053M167.195 131.053C167.18 130.985 167.139 130.895 167.042 130.84C166.954 130.789 166.863 130.792 166.803 130.802C166.701 130.819 166.616 130.882 166.56 130.929C166.496 130.983 166.427 131.054 166.355 131.138C166.207 131.303 166.039 131.509 165.843 131.752L165.842 131.753M167.195 131.053L165.842 131.753M165.842 131.753L164.014 134.058L163.047 135.221C162.051 136.364 161.23 136.946 160.583 137.068C160.311 137.117 159.996 137.052 159.616 136.823L159.616 136.823M165.842 131.753L159.616 136.823M159.616 136.823L159.613 136.822M159.616 136.823L159.613 136.822M159.613 136.822C159.224 136.595 159.008 136.293 158.938 135.905C158.856 135.454 158.809 134.953 158.793 134.395C158.783 133.839 158.809 133.3 158.876 132.773C158.943 132.247 159.056 131.743 159.215 131.266L159.215 131.266M159.613 136.822L159.215 131.266M159.215 131.266L159.216 131.264M159.215 131.266L159.216 131.264M159.216 131.264C159.369 130.789 159.567 130.37 159.808 130.003L159.808 130.003M159.216 131.264L159.808 130.003M159.808 130.003L159.809 130.001M159.808 130.003L159.809 130.001M159.809 130.001C160.317 129.21 160.986 128.745 161.825 128.589C162.264 128.508 162.567 128.52 162.759 128.59C162.929 128.652 163.021 128.759 163.055 128.941C163.086 129.109 163.046 129.433 162.882 129.956L162.882 129.956M159.809 130.001L162.882 129.956M162.882 129.956L162.881 129.96M162.882 129.956L162.881 129.96M162.881 129.96C162.711 130.536 162.586 130.981 162.504 131.292C162.464 131.448 162.434 131.573 162.414 131.666C162.405 131.712 162.397 131.754 162.393 131.789L162.392 131.79C162.389 131.813 162.382 131.868 162.392 131.922C162.418 132.061 162.487 132.186 162.615 132.268C162.726 132.338 162.853 132.361 162.973 132.34C163.1 132.318 163.214 132.246 163.309 132.166C163.409 132.082 163.513 131.97 163.619 131.835L163.619 131.835M162.881 129.96L163.619 131.835M163.619 131.835C164.936 130.168 165.765 129.138 166.106 128.74M163.619 131.835L166.106 128.74M166.106 128.74C166.447 128.341 166.781 127.982 167.107 127.671L166.106 128.74Z" fill="#FFFCFB" stroke="black" stroke-width="0.5"></path><path d="M188.936 127.95C189.269 127.649 189.596 127.333 189.928 126.99C190.669 126.233 191.288 125.485 191.795 124.757L191.795 124.757L191.799 124.751C192.03 124.4 192.367 124.074 192.808 123.783C192.955 123.699 193.067 123.65 193.161 123.626C193.263 123.603 193.301 123.621 193.317 123.632C193.338 123.646 193.381 123.692 193.416 123.826C193.457 123.995 193.457 124.246 193.392 124.594C193.328 124.932 193.206 125.266 193.013 125.597C192.81 125.945 192.571 126.314 192.29 126.7L192.29 126.7L192.287 126.703C192.012 127.092 191.679 127.51 191.285 127.961C190.892 128.411 190.452 128.872 189.959 129.339L189.958 129.34C189.468 129.809 188.936 130.253 188.361 130.671L188.36 130.672C187.089 131.604 185.792 132.225 184.475 132.551C183.486 132.794 182.573 132.747 181.717 132.422L181.717 132.422C180.825 132.083 180.325 131.554 180.153 130.851L180.152 130.85C179.864 129.686 180.211 128.398 181.262 126.963L181.262 126.963C182.171 125.723 183.34 124.646 184.77 123.732C185.644 123.177 186.393 122.827 187.029 122.672L187.029 122.672C187.531 122.549 187.969 122.567 188.351 122.719C188.748 122.88 188.985 123.155 189.088 123.566C189.247 124.21 188.923 125.122 187.942 126.34L187.942 126.34L187.94 126.343C187.789 126.535 187.65 126.699 187.524 126.837L187.522 126.838L187.252 127.135L187.252 127.135L187.248 127.139C186.767 127.692 185.982 128.38 184.884 129.204L184.462 129.52L184.974 129.647C185.432 129.76 185.851 129.775 186.228 129.684C186.576 129.6 186.886 129.48 187.155 129.323C187.41 129.173 187.689 128.981 187.988 128.748M188.936 127.95C188.608 128.251 188.29 128.516 187.988 128.748M188.936 127.95C188.936 127.95 188.936 127.95 188.935 127.95L188.768 127.765L188.937 127.949C188.937 127.949 188.936 127.95 188.936 127.95ZM187.988 128.748C187.987 128.748 187.987 128.748 187.987 128.748L187.834 128.55L187.988 128.747C187.988 128.747 187.988 128.747 187.988 128.748ZM185.034 129.404C185.123 129.337 185.211 129.27 185.297 129.205C185.231 129.193 185.163 129.178 185.094 129.161L185.034 129.404ZM185.034 129.404L185.184 129.604C185.245 129.558 185.304 129.513 185.364 129.468C185.257 129.453 185.147 129.432 185.034 129.404ZM186.97 122.429C187.511 122.296 188.004 122.312 188.444 122.487C188.916 122.678 189.208 123.017 189.33 123.505L186.97 122.429ZM183.528 128.516L183.679 128.778L183.908 128.58L184.343 128.203L184.343 128.203L184.346 128.201C184.49 128.073 184.615 127.959 184.729 127.85L184.729 127.85C185.252 127.348 185.663 126.945 185.96 126.641C186.248 126.346 186.449 126.124 186.53 125.992C186.596 125.884 186.65 125.787 186.686 125.703C186.704 125.661 186.72 125.616 186.73 125.57C186.739 125.527 186.746 125.464 186.73 125.397C186.702 125.287 186.644 125.187 186.572 125.096C186.502 125.007 186.421 124.924 186.316 124.854C186.096 124.697 185.846 124.613 185.587 124.68C185.394 124.729 185.203 124.814 185.008 124.929L185.008 124.929L185.003 124.932C184.815 125.048 184.621 125.184 184.436 125.357C184.248 125.523 184.079 125.709 183.924 125.909L183.924 125.909L183.922 125.911C183.765 126.118 183.634 126.329 183.53 126.547C183.294 127.026 183.19 127.456 183.273 127.816C183.34 128.108 183.433 128.351 183.528 128.516Z" fill="#FFFCFB" stroke="black" stroke-width="0.5"></path></svg>